Russolo-72ptLight.ufo
<glyph name="exclam" format="2">
  <advance width="470.98837209302326"/>
  <unicode hex="0021"/>
  <note>
exclam
</note>
  <outline>
    <contour>
      <point x="225.41860465116278" y="321.05426356589146" type="curve"/>
      <point x="246.30620155038758" y="321.05426356589146" type="line"/>
      <point x="252.46511627906978" y="991.8449612403101"/>
      <point x="307.2984496124031" y="1140.2674418604652"/>
      <point x="307.2984496124031" y="1224.4767441860465" type="curve" smooth="yes"/>
      <point x="307.2984496124031" y="1315.7325581395348"/>
      <point x="256.41472868217056" y="1265.5891472868218"/>
      <point x="248.8294573643411" y="1462.7364341085272" type="curve"/>
      <point x="222.52713178294573" y="1462.7364341085272" type="line"/>
      <point x="214.9418604651163" y="1265.5891472868218"/>
      <point x="164.0581395348837" y="1315.7325581395348"/>
      <point x="164.0581395348837" y="1224.4767441860465" type="curve" smooth="yes"/>
      <point x="164.0581395348837" y="1140.2674418604652"/>
      <point x="218.89147286821705" y="991.8449612403101"/>
    </contour>
    <contour>
      <point x="235.67829457364343" y="-15.84108527131783" type="curve" smooth="yes"/>
      <point x="273.2015503875969" y="-15.84108527131783"/>
      <point x="301.98837209302326" y="16.627906976744185"/>
      <point x="301.98837209302326" y="58.0968992248062" type="curve" smooth="yes"/>
      <point x="301.98837209302326" y="99.19767441860465"/>
      <point x="272.2015503875969" y="130.03488372093022"/>
      <point x="235.67829457364343" y="130.03488372093022" type="curve" smooth="yes"/>
      <point x="199.15503875968992" y="130.03488372093022"/>
      <point x="169.36821705426357" y="99.19767441860465"/>
      <point x="169.36821705426357" y="58.0968992248062" type="curve" smooth="yes"/>
      <point x="169.36821705426357" y="16.627906976744185"/>
      <point x="198.15503875968992" y="-15.84108527131783"/>
    </contour>
  </outline>
</glyph>
<glyph name="quotedbl" format="2">
  <advance width="495.23643410852713"/>
  <unicode hex="0022"/>
  <note>
quotedbl
</note>
  <outline>
    <contour>
      <point x="299.0387596899225" y="843.3217054263566" type="line"/>
      <point x="339.8682170542636" y="843.3217054263566" type="line"/>
      <point x="358.97286821705427" y="1355.8410852713178" type="line"/>
      <point x="283.0387596899225" y="1355.8410852713178" type="line"/>
    </contour>
    <contour>
      <point x="153.63178294573643" y="843.3217054263566" type="line"/>
      <point x="193.7248062015504" y="843.3217054263566" type="line"/>
      <point x="212.8294573643411" y="1355.8410852713178" type="line"/>
      <point x="137.26356589147287" y="1355.8410852713178" type="line"/>
    </contour>
  </outline>
</glyph>
<glyph name="numbersign" format="2">
  <advance width="1178.0891472868218"/>
  <unicode hex="0023"/>
  <note>
numbersign
</note>
  <outline>
    <contour>
      <point x="667.3178294573644" y="0.0" type="line"/>
      <point x="744.5658914728682" y="0.0" type="line"/>
      <point x="1012.6666666666666" y="1431.1046511627908" type="line"/>
      <point x="935.4186046511628" y="1431.1046511627908" type="line"/>
    </contour>
    <contour>
      <point x="65.63178294573643" y="491.0581395348837" type="line"/>
      <point x="1046.1937984496124" y="491.0581395348837" type="line"/>
      <point x="1046.1937984496124" y="520.5736434108527" type="line"/>
      <point x="65.63178294573643" y="520.5736434108527" type="line"/>
    </contour>
    <contour>
      <point x="181.0581395348837" y="0.0" type="line"/>
      <point x="258.6744186046512" y="0.0" type="line"/>
      <point x="527.1434108527131" y="1431.1046511627908" type="line"/>
      <point x="449.8953488372093" y="1431.1046511627908" type="line"/>
    </contour>
    <contour>
      <point x="124.52713178294573" y="915.2674418604652" type="line"/>
      <point x="1105.4573643410854" y="915.2674418604652" type="line"/>
      <point x="1105.4573643410854" y="945.1511627906976" type="line"/>
      <point x="124.52713178294573" y="945.1511627906976" type="line"/>
    </contour>
  </outline>
</glyph>
<glyph name="percent" format="2">
  <advance width="1693.4186046511627"/>
  <unicode hex="0025"/>
  <note>
percent
</note>
  <outline>
    <contour>
      <point x="303.5891472868217" y="-37.68604651162791" type="line"/>
      <point x="385.8333333333333" y="-37.68604651162791" type="line"/>
      <point x="1318.5116279069766" y="1449.1589147286822" type="line"/>
      <point x="1236.2674418604652" y="1449.1589147286822" type="line"/>
    </contour>
    <contour>
      <point x="1263.84496124031" y="-21.57751937984496" type="curve" smooth="yes"/>
      <point x="1472.2093023255813" y="-21.57751937984496"/>
      <point x="1597.5232558139535" y="139.68604651162792"/>
      <point x="1597.5232558139535" y="351.1589147286822" type="curve" smooth="yes"/>
      <point x="1597.5232558139535" y="564.2635658914728"/>
      <point x="1467.4728682170544" y="724.6317829457364"/>
      <point x="1263.84496124031" y="724.6317829457364" type="curve" smooth="yes"/>
      <point x="1059.953488372093" y="724.6317829457364"/>
      <point x="931.1666666666666" y="563.8953488372093"/>
      <point x="931.1666666666666" y="351.1589147286822" type="curve" smooth="yes"/>
      <point x="931.1666666666666" y="141.68604651162792"/>
      <point x="1054.4806201550387" y="-21.57751937984496"/>
    </contour>
    <contour>
      <point x="1263.84496124031" y="12.937984496124031" type="curve" smooth="yes"/>
      <point x="1120.9418604651162" y="12.937984496124031"/>
      <point x="1038.6744186046512" y="146.20542635658916"/>
      <point x="1038.6744186046512" y="351.1589147286822" type="curve" smooth="yes"/>
      <point x="1038.6744186046512" y="556.8488372093024"/>
      <point x="1120.9418604651162" y="691.7480620155038"/>
      <point x="1263.84496124031" y="691.7480620155038" type="curve" smooth="yes"/>
      <point x="1406.1162790697674" y="691.7480620155038"/>
      <point x="1489.3837209302326" y="557.1124031007752"/>
      <point x="1489.3837209302326" y="351.1589147286822" type="curve" smooth="yes"/>
      <point x="1489.3837209302326" y="146.20542635658916"/>
      <point x="1407.1162790697674" y="12.937984496124031"/>
    </contour>
    <contour>
      <point x="428.9418604651163" y="722.2131782945736" type="curve" smooth="yes"/>
      <point x="637.3062015503876" y="722.2131782945736"/>
      <point x="762.9883720930233" y="884.4767441860465"/>
      <point x="762.9883720930233" y="1095.6860465116279" type="curve" smooth="yes"/>
      <point x="762.9883720930233" y="1309.0542635658915"/>
      <point x="632.2015503875969" y="1468.7906976744187"/>
      <point x="428.9418604651163" y="1468.7906976744187" type="curve" smooth="yes"/>
      <point x="224.68217054263567" y="1468.7906976744187"/>
      <point x="95.8953488372093" y="1308.6860465116279"/>
      <point x="95.8953488372093" y="1095.6860465116279" type="curve" smooth="yes"/>
      <point x="95.8953488372093" y="885.4767441860465"/>
      <point x="219.2093023255814" y="722.2131782945736"/>
    </contour>
    <contour>
      <point x="428.9418604651163" y="756.0968992248062" type="curve" smooth="yes"/>
      <point x="286.0387596899225" y="756.0968992248062"/>
      <point x="203.77131782945736" y="890.9961240310078"/>
      <point x="203.77131782945736" y="1095.6860465116279" type="curve" smooth="yes"/>
      <point x="203.77131782945736" y="1301.375968992248"/>
      <point x="286.0387596899225" y="1434.906976744186"/>
      <point x="428.9418604651163" y="1434.906976744186" type="curve" smooth="yes"/>
      <point x="570.8449612403101" y="1434.906976744186"/>
      <point x="655.1124031007752" y="1301.2713178294573"/>
      <point x="655.1124031007752" y="1095.6860465116279" type="curve" smooth="yes"/>
      <point x="655.1124031007752" y="892.1007751937984"/>
      <point x="571.8449612403101" y="756.0968992248062"/>
    </contour>
  </outline>
</glyph>
<glyph name="ampersand" format="2">
  <advance width="1207.546511627907"/>
  <unicode hex="0026"/>
  <note>
ampersand
</note>
  <outline>
    <contour>
      <point x="547.4069767441861" y="-29.1046511627907" type="curve" smooth="yes"/>
      <point x="700.6124031007752" y="-29.1046511627907"/>
      <point x="788.5116279069767" y="-1.2635658914728687"/>
      <point x="874.4031007751938" y="53.52325581395349" type="curve"/>
      <point x="850.8875968992248" y="87.98837209302326" type="line"/>
      <point x="754.3062015503876" y="19.62015503875969"/>
      <point x="656.8333333333334" y="1.3062015503875983"/>
      <point x="541.4069767441861" y="1.3062015503875983" type="curve" smooth="yes"/>
      <point x="336.50387596899225" y="1.3062015503875983"/>
      <point x="246.02713178294573" y="183.51937984496124"/>
      <point x="246.02713178294573" y="388.0503875968992" type="curve" smooth="yes"/>
      <point x="246.02713178294573" y="619.7945736434109"/>
      <point x="363.9263565891473" y="768.3217054263566"/>
      <point x="559.984496124031" y="767.5852713178294" type="curve"/>
      <point x="563.6162790697674" y="796.3643410852713" type="line"/>
      <point x="388.29457364341084" y="794.8914728682171"/>
      <point x="324.02713178294573" y="950.3682170542636"/>
      <point x="324.02713178294573" y="1095.5813953488373" type="curve" smooth="yes"/>
      <point x="324.02713178294573" y="1270.4806201550387"/>
      <point x="420.45348837209303" y="1432.3255813953488"/>
      <point x="574.4612403100775" y="1432.3255813953488" type="curve" smooth="yes"/>
      <point x="730.453488372093" y="1432.3255813953488" type="line"/>
      <point x="730.453488372093" y="1460.7364341085272" type="line"/>
      <point x="570.4612403100775" y="1460.7364341085272" type="line" smooth="yes"/>
      <point x="350.57751937984494" y="1460.7364341085272"/>
      <point x="202.0" y="1297.5232558139535"/>
      <point x="202.0" y="1095.5813953488373" type="curve" smooth="yes"/>
      <point x="202.0" y="955.0"/>
      <point x="289.21317829457365" y="829.4728682170543"/>
      <point x="451.8488372093023" y="786.0" type="curve"/>
      <point x="276.6356589147287" y="753.5813953488372"/>
      <point x="112.52713178294573" y="612.0038759689922"/>
      <point x="112.52713178294573" y="382.0503875968992" type="curve" smooth="yes"/>
      <point x="112.52713178294573" y="136.63178294573643"/>
      <point x="292.4108527131783" y="-29.1046511627907"/>
    </contour>
    <contour>
      <point x="972.9263565891473" y="-19.1046511627907" type="curve" smooth="yes"/>
      <point x="1035.9186046511627" y="-19.1046511627907"/>
      <point x="1102.7596899224807" y="-1.0"/>
      <point x="1123.9147286821706" y="8.945736434108527" type="curve"/>
      <point x="1123.9147286821706" y="61.72093023255814" type="line"/>
      <point x="1073.453488372093" y="36.201550387596896"/>
      <point x="1023.9767441860465" y="12.674418604651166"/>
      <point x="987.922480620155" y="12.674418604651166" type="curve" smooth="yes"/>
      <point x="941.6550387596899" y="12.674418604651166"/>
      <point x="949.4418604651163" y="109.91085271317829"/>
      <point x="949.4418604651163" y="275.4922480620155" type="curve" smooth="yes"/>
      <point x="949.4418604651163" y="767.5852713178294" type="line"/>
      <point x="1089.8100775193798" y="767.5852713178294" type="line"/>
      <point x="1089.8100775193798" y="795.9961240310078" type="line"/>
      <point x="949.4418604651163" y="795.9961240310078" type="line"/>
      <point x="949.4418604651163" y="1127.046511627907" type="line"/>
      <point x="899.6162790697674" y="1127.046511627907" type="line"/>
      <point x="905.8759689922481" y="835.7248062015503"/>
      <point x="848.2015503875969" y="794.9961240310078"/>
      <point x="691.7325581395348" y="795.9961240310078" type="curve" smooth="yes"/>
      <point x="557.9341085271318" y="795.9961240310078" type="line"/>
      <point x="554.1976744186046" y="767.5852713178294" type="line"/>
      <point x="828.8372093023256" y="767.5852713178294" type="line"/>
      <point x="828.8372093023256" y="245.89147286821705" type="line" smooth="yes"/>
      <point x="828.8372093023256" y="72.26356589147287"/>
      <point x="851.7209302325581" y="-19.1046511627907"/>
    </contour>
  </outline>
</glyph>
<glyph name="quotesingle" format="2">
  <advance width="348.7248062015504"/>
  <unicode hex="0027"/>
  <note>
quotesingle
</note>
  <outline>
    <contour>
      <point x="153.63178294573643" y="843.3217054263566" type="line"/>
      <point x="193.7248062015504" y="843.3217054263566" type="line"/>
      <point x="212.8294573643411" y="1355.8410852713178" type="line"/>
      <point x="137.26356589147287" y="1355.8410852713178" type="line"/>
    </contour>
  </outline>
</glyph>
<glyph name="parenleft" format="2">
  <advance width="494.5658914728682"/>
  <unicode hex="0028"/>
  <note>
parenleft
</note>
  <outline>
    <contour>
      <point x="410.5232558139535" y="-392.7906976744186" type="curve"/>
      <point x="447.7751937984496" y="-368.8953488372093" type="line"/>
      <point x="314.9341085271318" y="-154.06201550387595"/>
      <point x="174.984496124031" y="207.78682170542635"/>
      <point x="174.984496124031" y="557.3643410852713" type="curve" smooth="yes"/>
      <point x="174.984496124031" y="909.1007751937984"/>
      <point x="317.4612403100775" y="1288.0581395348838"/>
      <point x="450.67054263565893" y="1497.7286821705427" type="curve"/>
      <point x="409.2596899224806" y="1516.2558139534883" type="line"/>
      <point x="175.41860465116278" y="1165.8294573643411"/>
      <point x="79.8953488372093" y="900.9922480620155"/>
      <point x="79.8953488372093" y="559.2054263565891" type="curve" smooth="yes"/>
      <point x="79.8953488372093" y="214.7325581395349"/>
      <point x="176.57751937984494" y="-63.15891472868217"/>
    </contour>
  </outline>
</glyph>
<glyph name="parenright" format="2">
  <advance width="494.9341085271318"/>
  <unicode hex="0029"/>
  <note>
parenright
</note>
  <outline>
    <contour>
      <point x="84.41085271317829" y="-392.7906976744186" type="line"/>
      <point x="319.09302325581393" y="-62.7906976744186"/>
      <point x="415.0387596899225" y="214.7325581395349"/>
      <point x="415.0387596899225" y="559.2054263565891" type="curve" smooth="yes"/>
      <point x="415.0387596899225" y="900.6240310077519"/>
      <point x="319.8837209302326" y="1165.8294573643411"/>
      <point x="85.67441860465117" y="1516.2558139534883" type="curve"/>
      <point x="43.895348837209305" y="1497.7286821705427" type="line"/>
      <point x="177.47286821705427" y="1288.7945736434108"/>
      <point x="320.3178294573643" y="908.3643410852713"/>
      <point x="320.3178294573643" y="557.3643410852713" type="curve" smooth="yes"/>
      <point x="320.3178294573643" y="207.41860465116278"/>
      <point x="179.63178294573643" y="-155.16666666666669"/>
      <point x="46.7906976744186" y="-368.8953488372093" type="curve"/>
    </contour>
  </outline>
</glyph>
<glyph name="asterisk" format="2">
  <advance width="717.6201550387597"/>
  <unicode hex="002A"/>
  <note>
asterisk
</note>
  <outline>
    <contour>
      <point x="362.51937984496124" y="1129.7945736434108" type="line"/>
      <point x="463.35658914728685" y="1190.5271317829458"/>
      <point x="563.4108527131783" y="1210.6356589147288"/>
      <point x="567.9883720930233" y="1213.108527131783" type="curve" smooth="yes"/>
      <point x="593.4069767441861" y="1228.6860465116279"/>
      <point x="556.937984496124" y="1241.6860465116279"/>
      <point x="610.7248062015503" y="1273.2635658914728" type="curve"/>
      <point x="603.8837209302326" y="1285.577519379845" type="line"/>
      <point x="550.4651162790698" y="1255.0"/>
      <point x="556.8837209302326" y="1292.9961240310076"/>
      <point x="530.0968992248062" y="1278.4186046511627" type="curve" smooth="yes"/>
      <point x="525.5193798449612" y="1275.9457364341085"/>
      <point x="459.1472868217054" y="1199.9457364341085"/>
      <point x="355.1007751937984" y="1141.8953488372092" type="curve"/>
    </contour>
    <contour>
      <point x="113.73643410852713" y="986.1124031007752" type="line"/>
      <point x="167.15503875968992" y="1016.6899224806201"/>
      <point x="161.1046511627907" y="978.6937984496124"/>
      <point x="187.52325581395348" y="993.2713178294574" type="curve" smooth="yes"/>
      <point x="192.10077519379846" y="995.7441860465117"/>
      <point x="258.8410852713178" y="1072.1124031007753"/>
      <point x="362.51937984496124" y="1129.7945736434108" type="curve"/>
      <point x="355.1007751937984" y="1141.8953488372092" type="line"/>
      <point x="253.8953488372093" y="1081.1627906976744"/>
      <point x="154.2093023255814" y="1060.6860465116279"/>
      <point x="149.63178294573643" y="1058.5813953488373" type="curve" smooth="yes"/>
      <point x="123.84496124031008" y="1042.6356589147288"/>
      <point x="160.31395348837208" y="1030.0038759689924"/>
      <point x="106.8953488372093" y="998.4263565891473" type="curve"/>
    </contour>
    <contour>
      <point x="351.468992248062" y="848.6937984496124" type="curve"/>
      <point x="366.15116279069764" y="848.6937984496124" type="line"/>
      <point x="366.15116279069764" y="910.8488372093024"/>
      <point x="396.2015503875969" y="897.8527131782946"/>
      <point x="396.2015503875969" y="916.0077519379845" type="curve" smooth="yes"/>
      <point x="396.2015503875969" y="932.2170542635658"/>
      <point x="363.88759689922483" y="1017.4302325581396"/>
      <point x="366.0968992248062" y="1135.84496124031" type="curve"/>
      <point x="351.5232558139535" y="1135.84496124031" type="line"/>
      <point x="353.7325581395349" y="1017.062015503876"/>
      <point x="321.4186046511628" y="932.5852713178294"/>
      <point x="321.4186046511628" y="916.0077519379845" type="curve" smooth="yes"/>
      <point x="321.4186046511628" y="897.8527131782946"/>
      <point x="351.468992248062" y="910.4806201550388"/>
    </contour>
    <contour>
      <point x="354.7325581395349" y="1129.7945736434108" type="curve"/>
      <point x="362.51937984496124" y="1141.8953488372092" type="line"/>
      <point x="258.47286821705427" y="1199.9457364341085"/>
      <point x="192.10077519379846" y="1275.9457364341085"/>
      <point x="187.52325581395348" y="1278.4186046511627" type="curve" smooth="yes"/>
      <point x="160.73643410852713" y="1292.9961240310076"/>
      <point x="166.78682170542635" y="1255.0"/>
      <point x="113.36821705426357" y="1285.2093023255813" type="curve"/>
      <point x="106.8953488372093" y="1273.2635658914728" type="line"/>
      <point x="160.31395348837208" y="1241.6860465116279"/>
      <point x="124.21317829457365" y="1228.6860465116279"/>
      <point x="149.63178294573643" y="1213.108527131783" type="curve" smooth="yes"/>
      <point x="154.2093023255814" y="1210.6356589147288"/>
      <point x="253.8953488372093" y="1190.1589147286822"/>
    </contour>
    <contour>
      <point x="530.0968992248062" y="993.2713178294574" type="curve" smooth="yes"/>
      <point x="556.515503875969" y="978.6937984496124"/>
      <point x="550.4651162790698" y="1016.6899224806201"/>
      <point x="603.8837209302326" y="986.1124031007752" type="curve"/>
      <point x="610.7248062015503" y="998.0581395348837" type="line"/>
      <point x="557.3062015503876" y="1029.6356589147288"/>
      <point x="593.7751937984497" y="1042.6356589147288"/>
      <point x="567.9883720930233" y="1058.5813953488373" type="curve" smooth="yes"/>
      <point x="563.4108527131783" y="1060.6860465116279"/>
      <point x="463.7248062015504" y="1081.1627906976744"/>
      <point x="362.51937984496124" y="1141.8953488372092" type="curve"/>
      <point x="354.7325581395349" y="1129.7945736434108" type="line"/>
      <point x="458.77906976744185" y="1071.7441860465117"/>
      <point x="525.5193798449612" y="995.7441860465117"/>
    </contour>
    <contour>
      <point x="351.5232558139535" y="1135.84496124031" type="curve"/>
      <point x="366.0968992248062" y="1135.84496124031" type="line"/>
      <point x="363.88759689922483" y="1254.2596899224807"/>
      <point x="396.2015503875969" y="1339.1046511627908"/>
      <point x="396.2015503875969" y="1355.6821705426357" type="curve" smooth="yes"/>
      <point x="396.2015503875969" y="1373.8372093023256"/>
      <point x="366.15116279069764" y="1360.8410852713178"/>
      <point x="366.15116279069764" y="1422.9961240310076" type="curve"/>
      <point x="351.468992248062" y="1422.9961240310076" type="line"/>
      <point x="351.468992248062" y="1360.8410852713178"/>
      <point x="321.4186046511628" y="1373.468992248062"/>
      <point x="321.4186046511628" y="1355.6821705426357" type="curve" smooth="yes"/>
      <point x="321.4186046511628" y="1339.1046511627908"/>
      <point x="353.7325581395349" y="1254.6279069767443"/>
    </contour>
  </outline>
</glyph>
<glyph name="plus" format="2">
  <advance width="952.937984496124"/>
  <unicode hex="002B"/>
  <note>
plus
</note>
  <outline>
    <contour>
      <point x="80.73643410852713" y="636.2751937984497" type="line"/>
      <point x="872.2015503875969" y="636.2751937984497" type="line"/>
      <point x="872.2015503875969" y="698.9883720930233" type="line"/>
      <point x="80.73643410852713" y="698.9883720930233" type="line"/>
    </contour>
    <contour>
      <point x="453.21317829457365" y="271.8992248062016" type="line"/>
      <point x="499.7248062015504" y="271.8992248062016" type="line"/>
      <point x="499.7248062015504" y="1063.3643410852712" type="line"/>
      <point x="453.21317829457365" y="1063.3643410852712" type="line"/>
    </contour>
  </outline>
</glyph>
<glyph name="comma" format="2">
  <advance width="418.18992248062017"/>
  <unicode hex="002C"/>
  <note>
comma
</note>
  <outline>
    <contour>
      <point x="140.52713178294573" y="-158.67829457364343" type="curve"/>
      <point x="192.40697674418604" y="-158.67829457364343" type="line"/>
      <point x="232.19379844961242" y="-63.52325581395349"/>
      <point x="272.9263565891473" y="41.310077519379846"/>
      <point x="291.66279069767444" y="144.9922480620155" type="curve"/>
      <point x="200.46899224806202" y="144.9922480620155" type="line"/>
      <point x="167.41860465116278" y="67.52325581395348"/>
      <point x="147.84108527131784" y="-76.31782945736434"/>
    </contour>
  </outline>
</glyph>
<glyph name="hyphen" format="2">
  <advance width="538.2868217054264"/>
  <unicode hex="002D"/>
  <note>
hyphen
</note>
  <outline>
    <contour>
      <point x="63.79069767441861" y="454.8488372093023" type="line"/>
      <point x="435.08527131782944" y="454.8488372093023" type="line"/>
      <point x="474.8643410852713" y="549.4612403100775" type="line"/>
      <point x="102.83333333333333" y="549.4612403100775" type="line"/>
    </contour>
  </outline>
</glyph>
<glyph name="period" format="2">
  <advance width="369.6627906976744"/>
  <unicode hex="002E"/>
  <note>
period
</note>
  <outline>
    <contour>
      <point x="184.14728682170542" y="-11.054263565891473" type="curve" smooth="yes"/>
      <point x="218.72093023255815" y="-11.054263565891473"/>
      <point x="248.39922480620154" y="15.310077519379846"/>
      <point x="248.39922480620154" y="53.82945736434108" type="curve" smooth="yes"/>
      <point x="248.39922480620154" y="92.7170542635659"/>
      <point x="218.72093023255815" y="118.44961240310077"/>
      <point x="184.14728682170542" y="118.44961240310077" type="curve" smooth="yes"/>
      <point x="149.9418604651163" y="118.44961240310077"/>
      <point x="120.26356589147287" y="92.34883720930233"/>
      <point x="120.26356589147287" y="53.82945736434108" type="curve" smooth="yes"/>
      <point x="120.26356589147287" y="15.310077519379846"/>
      <point x="149.5736434108527" y="-11.054263565891473"/>
    </contour>
  </outline>
</glyph>
<glyph name="slash" format="2">
  <advance width="541.9341085271318"/>
  <unicode hex="002F"/>
  <note>
slash
</note>
  <outline>
    <contour>
      <point x="7.263565891472865" y="-404.8953488372093" type="line"/>
      <point x="58.14728682170542" y="-404.8953488372093" type="line"/>
      <point x="534.6705426356589" y="1498.0" type="line"/>
      <point x="483.78682170542635" y="1498.0" type="line"/>
    </contour>
  </outline>
</glyph>
<glyph name="zero" format="2">
  <advance width="1278.0271317829458"/>
  <unicode hex="0030"/>
  <note>
zero
</note>
  <anchor x="635.1472868217054" y="716.0" name="center"/>
  <outline>
    <contour>
      <point x="638.8294573643411" y="-25.1046511627907" type="curve" smooth="yes"/>
      <point x="961.2441860465117" y="-25.1046511627907"/>
      <point x="1195.1317829457364" y="269.57751937984494"/>
      <point x="1195.1317829457364" y="716.0" type="curve" smooth="yes"/>
      <point x="1195.1317829457364" y="1158.0038759689924"/>
      <point x="957.1937984496124" y="1456.4728682170542"/>
      <point x="638.8294573643411" y="1456.4728682170542" type="curve" smooth="yes"/>
      <point x="320.0968992248062" y="1456.4728682170542"/>
      <point x="82.8953488372093" y="1158.3720930232557"/>
      <point x="82.8953488372093" y="716.0" type="curve" smooth="yes"/>
      <point x="82.8953488372093" y="271.0503875968992"/>
      <point x="317.88759689922483" y="-25.1046511627907"/>
    </contour>
    <contour>
      <point x="638.8294573643411" y="21.674418604651162" type="curve" smooth="yes"/>
      <point x="382.9263565891473" y="21.674418604651162"/>
      <point x="192.81782945736433" y="299.0968992248062"/>
      <point x="192.81782945736433" y="716.0" type="curve" smooth="yes"/>
      <point x="192.81782945736433" y="1132.5348837209303"/>
      <point x="382.9263565891473" y="1409.6937984496124"/>
      <point x="638.8294573643411" y="1409.6937984496124" type="curve" smooth="yes"/>
      <point x="895.1007751937984" y="1409.6937984496124"/>
      <point x="1085.577519379845" y="1132.1666666666667"/>
      <point x="1085.577519379845" y="716.0" type="curve" smooth="yes"/>
      <point x="1085.577519379845" y="299.8333333333333"/>
      <point x="895.468992248062" y="21.674418604651162"/>
    </contour>
  </outline>
</glyph>
<glyph name="one" format="2">
  <advance width="520.9728682170543"/>
  <unicode hex="0031"/>
  <note>
one
</note>
  <outline>
    <contour>
      <point x="241.52325581395348" y="0.0" type="line"/>
      <point x="355.7093023255814" y="0.0" type="line"/>
      <point x="355.7093023255814" y="1458.5271317829458" type="line"/>
      <point x="326.51162790697674" y="1458.5271317829458" type="line"/>
      <point x="24.263565891472865" y="1004.2248062015503" type="line"/>
      <point x="39.25968992248062" y="991.8604651162791" type="line"/>
      <point x="271.0503875968992" y="1335.5038759689924" type="line"/>
      <point x="241.52325581395348" y="1305.3410852713178" type="line"/>
    </contour>
  </outline>
</glyph>
<glyph name="two" format="2">
  <advance width="1019.5038759689922"/>
  <unicode hex="0032"/>
  <note>
two
</note>
  <outline>
    <contour>
      <point x="44.263565891472865" y="0.0" type="line"/>
      <point x="949.2403100775193" y="0.0" type="line"/>
      <point x="949.2403100775193" y="101.2984496124031" type="line"/>
      <point x="152.24418604651163" y="102.2984496124031" type="line"/>
      <point x="117.24418604651163" y="50.251937984496124" type="line"/>
      <point x="253.17054263565893" y="165.50387596899225"/>
      <point x="534.6589147286821" y="437.2093023255814"/>
      <point x="676.2403100775193" y="595.5813953488372" type="curve" smooth="yes"/>
      <point x="816.6782945736434" y="752.4961240310078"/>
      <point x="932.5581395348837" y="877.6550387596899"/>
      <point x="932.5581395348837" y="1055.1666666666667" type="curve" smooth="yes"/>
      <point x="932.5581395348837" y="1272.6899224806202"/>
      <point x="785.031007751938" y="1460.7364341085272"/>
      <point x="526.7248062015503" y="1460.7364341085272" type="curve" smooth="yes"/>
      <point x="288.31007751937983" y="1460.7364341085272"/>
      <point x="91.57751937984496" y="1274.7906976744187"/>
      <point x="91.57751937984496" y="1029.7906976744187" type="curve" smooth="yes"/>
      <point x="91.57751937984496" y="1014.0542635658915"/>
      <point x="92.94573643410853" y="1006.3682170542636"/>
      <point x="94.68217054263566" y="991.5813953488372" type="curve"/>
      <point x="200.6627906976744" y="995.6860465116279" type="line"/>
      <point x="200.6627906976744" y="1007.422480620155" type="line" smooth="yes"/>
      <point x="200.6627906976744" y="1250.8527131782946"/>
      <point x="315.40697674418607" y="1431.2713178294573"/>
      <point x="517.4108527131783" y="1431.2713178294573" type="curve" smooth="yes"/>
      <point x="670.3682170542636" y="1431.2713178294573"/>
      <point x="807.7906976744187" y="1350.8953488372092"/>
      <point x="807.7906976744187" y="1064.0" type="curve" smooth="yes"/>
      <point x="807.7906976744187" y="835.9883720930233"/>
      <point x="646.9341085271318" y="604.468992248062"/>
      <point x="387.62015503875966" y="343.41472868217056" type="curve" smooth="yes"/>
    </contour>
  </outline>
</glyph>
<glyph name="three" format="2">
  <advance width="1023.2403100775193"/>
  <unicode hex="0033"/>
  <note>
three
</note>
  <outline>
    <contour>
      <point x="479.77906976744185" y="-31.15891472868217" type="curve" smooth="yes"/>
      <point x="757.3488372093024" y="-31.15891472868217"/>
      <point x="940.7131782945736" y="155.73643410852713"/>
      <point x="940.7131782945736" y="380.94573643410854" type="curve" smooth="yes"/>
      <point x="940.7131782945736" y="610.7364341085271"/>
      <point x="769.5542635658915" y="741.0"/>
      <point x="577.5581395348837" y="772.1007751937984" type="curve"/>
      <point x="604.2248062015503" y="753.5813953488372" type="line"/>
      <point x="731.0271317829457" y="771.2093023255813"/>
      <point x="907.031007751938" y="872.1046511627907"/>
      <point x="907.031007751938" y="1096.6860465116279" type="curve" smooth="yes"/>
      <point x="907.031007751938" y="1290.1589147286822"/>
      <point x="760.2441860465117" y="1456.4728682170542"/>
      <point x="513.7790697674419" y="1456.4728682170542" type="curve" smooth="yes"/>
      <point x="287.8410852713178" y="1456.4728682170542"/>
      <point x="100.0" y="1318.3178294573643"/>
      <point x="85.63178294573643" y="1081.9457364341085" type="curve"/>
      <point x="192.98062015503876" y="1085.577519379845" type="line"/>
      <point x="194.45348837209303" y="1299.015503875969"/>
      <point x="324.4108527131783" y="1426.639534883721"/>
      <point x="509.77906976744185" y="1426.639534883721" type="curve" smooth="yes"/>
      <point x="724.046511627907" y="1426.639534883721"/>
      <point x="790.2093023255813" y="1261.639534883721"/>
      <point x="790.2093023255813" y="1097.2131782945737" type="curve" smooth="yes"/>
      <point x="790.2093023255813" y="882.6317829457364"/>
      <point x="696.7325581395348" y="772.1550387596899"/>
      <point x="485.4108527131783" y="772.1550387596899" type="curve" smooth="yes"/>
      <point x="308.0503875968992" y="772.1550387596899" type="line"/>
      <point x="308.0503875968992" y="752.5813953488372" type="line"/>
      <point x="489.4108527131783" y="752.5813953488372" type="line" smooth="yes"/>
      <point x="697.8914728682171" y="752.5813953488372"/>
      <point x="807.4728682170543" y="603.6860465116279"/>
      <point x="807.4728682170543" y="378.0503875968992" type="curve" smooth="yes"/>
      <point x="807.4728682170543" y="149.72868217054264"/>
      <point x="674.6782945736434" y="-4.4302325581395365"/>
      <point x="485.77906976744185" y="-4.4302325581395365" type="curve" smooth="yes"/>
      <point x="294.35271317829455" y="-4.4302325581395365"/>
      <point x="175.92635658914728" y="152.41472868217053"/>
      <point x="175.92635658914728" y="348.2093023255814" type="curve" smooth="yes"/>
      <point x="175.92635658914728" y="357.3682170542636" type="line"/>
      <point x="58.895348837209305" y="361.3682170542636" type="line"/>
      <point x="58.895348837209305" y="339.3139534883721" type="line" smooth="yes"/>
      <point x="58.895348837209305" y="104.1046511627907"/>
      <point x="242.31395348837208" y="-31.15891472868217"/>
    </contour>
  </outline>
</glyph>
<glyph name="four" format="2">
  <advance width="990.2364341085272"/>
  <unicode hex="0034"/>
  <note>
four
</note>
  <outline>
    <contour>
      <point x="655.1511627906976" y="0.0" type="line"/>
      <point x="776.6589147286821" y="0.0" type="line"/>
      <point x="776.6589147286821" y="394.2093023255814" type="line"/>
      <point x="689.7170542635658" y="343.4263565891473" type="line"/>
      <point x="969.2364341085271" y="343.4263565891473" type="line"/>
      <point x="969.2364341085271" y="378.4651162790698" type="line"/>
      <point x="689.7170542635658" y="378.4651162790698" type="line"/>
      <point x="776.6589147286821" y="328.58527131782944" type="line"/>
      <point x="776.6589147286821" y="885.8023255813954" type="line"/>
      <point x="655.1511627906976" y="885.8023255813954" type="line"/>
      <point x="655.1511627906976" y="328.58527131782944" type="line"/>
      <point x="705.1976744186046" y="378.4651162790698" type="line"/>
      <point x="55.72480620155039" y="378.4651162790698" type="line"/>
      <point x="78.13953488372093" y="360.0" type="line"/>
      <point x="289.6162790697674" y="632.7868217054264"/>
      <point x="553.3488372093024" y="1073.3565891472867"/>
      <point x="684.4496124031008" y="1431.5232558139535" type="curve"/>
      <point x="561.8875968992248" y="1444.5232558139535" type="line"/>
      <point x="459.1046511627907" y="1040.7286821705427"/>
      <point x="212.0581395348837" y="621.2674418604652"/>
      <point x="22.895348837209298" y="343.4263565891473" type="curve"/>
      <point x="705.1976744186046" y="343.4263565891473" type="line"/>
      <point x="655.1511627906976" y="394.2093023255814" type="line"/>
    </contour>
  </outline>
</glyph>
<glyph name="five" format="2">
  <advance width="926.2441860465117"/>
  <unicode hex="0035"/>
  <note>
five
</note>
  <outline>
    <contour>
      <point x="409.8255813953488" y="-28.84108527131783" type="curve" smooth="yes"/>
      <point x="687.1356589147287" y="-28.84108527131783"/>
      <point x="857.3488372093024" y="163.41860465116278"/>
      <point x="857.3488372093024" y="436.0" type="curve" smooth="yes"/>
      <point x="857.3488372093024" y="752.9457364341085"/>
      <point x="615.9883720930233" y="886.3139534883721"/>
      <point x="431.35658914728685" y="886.3139534883721" type="curve" smooth="yes"/>
      <point x="323.41472868217056" y="886.3139534883721"/>
      <point x="215.72868217054264" y="841.5813953488372"/>
      <point x="141.72868217054264" y="797.5852713178294" type="curve"/>
      <point x="153.7248062015504" y="801.531007751938" type="line"/>
      <point x="275.56976744186045" y="1362.6937984496124" type="line"/>
      <point x="233.2674418604651" y="1305.2790697674418" type="line"/>
      <point x="780.984496124031" y="1305.2790697674418" type="line"/>
      <point x="780.984496124031" y="1430.0" type="line"/>
      <point x="247.9496124031008" y="1430.0" type="line"/>
      <point x="109.8953488372093" y="791.7403100775193" type="line"/>
      <point x="131.515503875969" y="778.484496124031" type="line"/>
      <point x="215.88372093023256" y="819.4302325581396"/>
      <point x="319.82945736434107" y="854.9573643410853"/>
      <point x="402.72868217054264" y="854.9573643410853" type="curve" smooth="yes"/>
      <point x="587.7829457364342" y="854.9573643410853"/>
      <point x="734.422480620155" y="711.953488372093"/>
      <point x="734.422480620155" y="430.84496124031006" type="curve" smooth="yes"/>
      <point x="734.422480620155" y="200.73643410852713"/>
      <point x="660.3604651162791" y="3.1472868217054213"/>
      <point x="411.2480620155039" y="3.1472868217054213" type="curve" smooth="yes"/>
      <point x="268.98837209302326" y="3.1472868217054213"/>
      <point x="137.99612403100775" y="65.93410852713178"/>
      <point x="52.945736434108525" y="206.30232558139534" type="curve"/>
      <point x="42.263565891472865" y="190.46899224806202" type="line"/>
      <point x="134.63178294573643" y="23.205426356589147"/>
      <point x="266.1511627906977" y="-28.84108527131783"/>
    </contour>
  </outline>
</glyph>
<glyph name="six" format="2">
  <advance width="1027.2480620155038"/>
  <unicode hex="0036"/>
  <note>
six
</note>
  <outline>
    <contour>
      <point x="512.7790697674419" y="-33.0" type="curve" smooth="yes"/>
      <point x="792.4069767441861" y="-37.263565891472865"/>
      <point x="972.984496124031" y="165.7906976744186"/>
      <point x="972.984496124031" y="426.73643410852713" type="curve" smooth="yes"/>
      <point x="972.984496124031" y="686.7868217054264"/>
      <point x="788.7209302325581" y="883.9961240310078"/>
      <point x="538.3062015503876" y="883.9961240310078" type="curve" smooth="yes"/>
      <point x="335.5077519379845" y="883.9961240310078"/>
      <point x="198.03488372093022" y="732.515503875969"/>
      <point x="144.72868217054264" y="553.6705426356589" type="curve"/>
      <point x="178.4031007751938" y="489.7751937984496" type="line"/>
      <point x="181.6124031007752" y="679.6240310077519"/>
      <point x="188.4031007751938" y="743.2170542635658"/>
      <point x="214.56976744186045" y="844.2751937984497" type="curve" smooth="yes"/>
      <point x="314.6744186046512" y="1121.4263565891472"/>
      <point x="450.25581395348837" y="1303.7441860465117"/>
      <point x="746.2054263565891" y="1404.2209302325582" type="curve"/>
      <point x="745.468992248062" y="1442.1007751937984" type="line"/>
      <point x="496.6937984496124" y="1383.9418604651162"/>
      <point x="330.06201550387595" y="1248.5813953488373"/>
      <point x="201.32558139534885" y="1025.062015503876" type="curve" smooth="yes"/>
      <point x="138.2093023255814" y="889.9031007751938"/>
      <point x="76.8953488372093" y="742.8953488372093"/>
      <point x="76.8953488372093" y="520.0542635658915" type="curve" smooth="yes"/>
      <point x="76.8953488372093" y="180.36434108527132"/>
      <point x="230.2093023255814" y="-29.368217054263567"/>
    </contour>
    <contour>
      <point x="528.5697674418604" y="3.8294573643410814" type="curve" smooth="yes"/>
      <point x="286.5077519379845" y="7.461240310077514"/>
      <point x="188.29457364341084" y="233.25968992248062"/>
      <point x="191.5581395348837" y="461.26356589147287" type="curve" smooth="yes"/>
      <point x="193.82170542635657" y="624.6899224806201"/>
      <point x="320.87984496124034" y="845.3255813953489"/>
      <point x="545.3604651162791" y="845.3255813953489" type="curve" smooth="yes"/>
      <point x="778.8992248062016" y="845.3255813953489"/>
      <point x="859.7945736434109" y="604.8914728682171"/>
      <point x="859.7945736434109" y="430.0503875968992" type="curve" smooth="yes"/>
      <point x="859.7945736434109" y="245.51937984496124"/>
      <point x="783.2093023255813" y="-0.4341085271317837"/>
    </contour>
  </outline>
</glyph>
<glyph name="seven" format="2">
  <advance width="905.922480620155"/>
  <unicode hex="0037"/>
  <note>
seven
</note>
  <outline>
    <contour>
      <point x="244.41472868217053" y="0.0" type="curve"/>
      <point x="370.6046511627907" y="0.0" type="line"/>
      <point x="430.33720930232556" y="543.3682170542636"/>
      <point x="633.7558139534883" y="1056.3100775193798"/>
      <point x="881.6589147286821" y="1417.1046511627908" type="curve"/>
      <point x="30.0" y="1417.1046511627908" type="line"/>
      <point x="30.0" y="1291.6472868217054" type="line"/>
      <point x="782.1472868217054" y="1291.6472868217054" type="line"/>
      <point x="798.5736434108527" y="1354.953488372093" type="line"/>
      <point x="548.0387596899225" y="1027.6744186046512"/>
      <point x="352.67054263565893" y="531.2054263565891"/>
    </contour>
  </outline>
</glyph>
<glyph name="eight" format="2">
  <advance width="985.0852713178294"/>
  <unicode hex="0038"/>
  <note>
eight
</note>
  <outline>
    <contour>
      <point x="472.15116279069764" y="-31.368217054263567" type="curve" smooth="yes"/>
      <point x="727.984496124031" y="-31.368217054263567"/>
      <point x="913.8217054263566" y="144.1046511627907"/>
      <point x="913.8217054263566" y="379.8914728682171" type="curve" smooth="yes"/>
      <point x="913.8217054263566" y="590.1007751937984"/>
      <point x="776.7713178294574" y="713.7325581395348"/>
      <point x="552.6201550387597" y="798.3100775193799" type="curve" smooth="yes"/>
      <point x="276.34496124031006" y="905.9457364341085"/>
      <point x="240.34883720930233" y="1019.6317829457364"/>
      <point x="240.34883720930233" y="1114.6317829457364" type="curve" smooth="yes"/>
      <point x="240.34883720930233" y="1294.1627906976744"/>
      <point x="330.1937984496124" y="1408.1124031007753"/>
      <point x="485.40697674418607" y="1413.1124031007753" type="curve" smooth="yes"/>
      <point x="647.4612403100775" y="1418.1124031007753"/>
      <point x="778.9418604651163" y="1307.5852713178294"/>
      <point x="778.9418604651163" y="1116.5271317829458" type="curve" smooth="yes"/>
      <point x="778.9418604651163" y="993.3139534883721"/>
      <point x="729.0930232558139" y="866.6821705426356"/>
      <point x="501.7480620155039" y="820.6821705426356" type="curve"/>
      <point x="544.6705426356589" y="804.1085271317829" type="line"/>
      <point x="758.4031007751938" y="854.7945736434109"/>
      <point x="851.2984496124031" y="973.8488372093024"/>
      <point x="845.2984496124031" y="1128.108527131783" type="curve" smooth="yes"/>
      <point x="839.2984496124031" y="1300.5813953488373"/>
      <point x="704.1937984496124" y="1442.4728682170542"/>
      <point x="492.8837209302326" y="1442.4728682170542" type="curve" smooth="yes"/>
      <point x="296.3643410852713" y="1442.1046511627908"/>
      <point x="135.26356589147287" y="1325.422480620155"/>
      <point x="135.26356589147287" y="1109.0038759689924" type="curve" smooth="yes"/>
      <point x="135.26356589147287" y="954.7441860465117"/>
      <point x="206.0" y="846.7480620155038"/>
      <point x="387.6782945736434" y="773.5387596899225" type="curve" smooth="yes"/>
      <point x="746.6860465116279" y="625.4302325581396"/>
      <point x="800.6317829457364" y="504.4767441860465"/>
      <point x="800.6317829457364" y="358.0" type="curve" smooth="yes"/>
      <point x="800.6317829457364" y="132.25968992248062"/>
      <point x="647.577519379845" y="-1.2713178294573666"/>
      <point x="462.20542635658916" y="-1.2713178294573666" type="curve" smooth="yes"/>
      <point x="238.9922480620155" y="-1.2713178294573666"/>
      <point x="145.5658914728682" y="188.04651162790697"/>
      <point x="145.5658914728682" y="370.7906976744186" type="curve" smooth="yes"/>
      <point x="145.19767441860466" y="549.7945736434109"/>
      <point x="226.7829457364341" y="727.5852713178294"/>
      <point x="408.9341085271318" y="771.2131782945736" type="curve"/>
      <point x="388.73643410852713" y="783.7364341085271" type="line"/>
      <point x="198.26356589147287" y="743.4186046511628"/>
      <point x="76.26356589147287" y="560.1550387596899"/>
      <point x="76.26356589147287" y="371.3139534883721" type="curve" smooth="yes"/>
      <point x="76.26356589147287" y="165.52713178294573"/>
      <point x="200.42248062015506" y="-31.368217054263567"/>
    </contour>
  </outline>
</glyph>
<glyph name="nine" format="2">
  <advance width="1026.6162790697674"/>
  <unicode hex="0039"/>
  <note>
nine
</note>
  <outline>
    <contour>
      <point x="262.6317829457364" y="-35.945736434108525" type="line"/>
      <point x="431.72868217054264" y="2.4767441860465116"/>
      <point x="552.7325581395348" y="57.27519379844961"/>
      <point x="664.2558139534883" y="169.85271317829458" type="curve" smooth="yes"/>
      <point x="716.4108527131783" y="220.43023255813955"/>
      <point x="764.0930232558139" y="284.0581395348837"/>
      <point x="804.1976744186046" y="350.16279069767444" type="curve" smooth="yes"/>
      <point x="891.2480620155038" y="490.8449612403101"/>
      <point x="950.3527131782946" y="659.9457364341085"/>
      <point x="950.3527131782946" y="886.1007751937984" type="curve" smooth="yes"/>
      <point x="950.3527131782946" y="1225.7906976744187"/>
      <point x="796.6705426356589" y="1435.5232558139535"/>
      <point x="514.468992248062" y="1439.15503875969" type="curve" smooth="yes"/>
      <point x="239.99612403100775" y="1443.4186046511627"/>
      <point x="54.263565891472865" y="1240.3643410852712"/>
      <point x="54.263565891472865" y="977.9457364341085" type="curve" smooth="yes"/>
      <point x="54.263565891472865" y="714.5813953488372"/>
      <point x="241.84108527131784" y="517.3720930232558"/>
      <point x="488.5736434108527" y="517.3720930232558" type="curve" smooth="yes"/>
      <point x="691.7403100775193" y="517.3720930232558"/>
      <point x="824.4263565891473" y="671.4302325581396"/>
      <point x="882.5193798449612" y="852.8527131782946" type="curve"/>
      <point x="847.0038759689922" y="916.3798449612403" type="line"/>
      <point x="845.6356589147287" y="733.5271317829457"/>
      <point x="844.7364341085272" y="668.4612403100775"/>
      <point x="818.5697674418604" y="567.7713178294573" type="curve" smooth="yes"/>
      <point x="718.4651162790698" y="290.62015503875966"/>
      <point x="583.9883720930233" y="108.30232558139535"/>
      <point x="268.8914728682171" y="9.666666666666664" type="curve"/>
    </contour>
    <contour>
      <point x="481.88759689922483" y="558.6201550387597" type="curve" smooth="yes"/>
      <point x="248.7170542635659" y="558.6201550387597"/>
      <point x="168.92635658914728" y="801.2635658914729"/>
      <point x="168.92635658914728" y="974.6317829457364" type="curve" smooth="yes"/>
      <point x="168.92635658914728" y="1159.8992248062016"/>
      <point x="244.7751937984496" y="1405.8527131782946"/>
      <point x="498.6782945736434" y="1401.2209302325582" type="curve" smooth="yes"/>
      <point x="740.0038759689922" y="1397.9573643410852"/>
      <point x="837.1124031007752" y="1169.5813953488373"/>
      <point x="833.8488372093024" y="943.4186046511628" type="curve" smooth="yes"/>
      <point x="831.5852713178294" y="779.2558139534883"/>
      <point x="704.8953488372093" y="558.6201550387597"/>
    </contour>
  </outline>
</glyph>
<glyph name="greater" format="2">
  <advance width="952.937984496124"/>
  <unicode hex="003E"/>
  <note>
greater
</note>
  <outline>
    <contour>
      <point x="80.73643410852713" y="348.4922480620155" type="line"/>
      <point x="820.453488372093" y="667.5348837209302" type="line"/>
      <point x="820.453488372093" y="699.3604651162791" type="line"/>
      <point x="80.73643410852713" y="1016.4031007751938" type="line"/>
      <point x="80.73643410852713" y="952.3682170542636" type="line"/>
      <point x="709.8953488372093" y="682.6317829457364" type="line"/>
      <point x="80.73643410852713" y="412.52713178294573" type="line"/>
    </contour>
  </outline>
</glyph>
<glyph name="question" format="2">
  <advance width="881.7713178294573"/>
  <unicode hex="003F"/>
  <note>
question
</note>
  <outline>
    <contour>
      <point x="390.2596899224806" y="354.97286821705427" type="curve"/>
      <point x="446.1472868217054" y="354.97286821705427" type="line"/>
      <point x="422.62015503875966" y="379.93798449612405"/>
      <point x="396.8333333333333" y="517.6705426356589"/>
      <point x="396.8333333333333" y="587.5193798449612" type="curve" smooth="yes"/>
      <point x="396.8333333333333" y="953.9883720930233"/>
      <point x="812.3488372093024" y="876.1589147286821"/>
      <point x="812.3488372093024" y="1183.3720930232557" type="curve" smooth="yes"/>
      <point x="812.3488372093024" y="1396.7906976744187"/>
      <point x="621.9341085271318" y="1462.0"/>
      <point x="419.9418604651163" y="1462.0" type="curve" smooth="yes"/>
      <point x="162.26356589147287" y="1462.0"/>
      <point x="64.7906976744186" y="1354.0"/>
      <point x="64.7906976744186" y="1177.6860465116279" type="curve" smooth="yes"/>
      <point x="64.7906976744186" y="1159.3178294573643"/>
      <point x="65.7906976744186" y="1140.422480620155"/>
      <point x="67.7906976744186" y="1120.6899224806202" type="curve"/>
      <point x="185.35271317829458" y="1120.6899224806202" type="line"/>
      <point x="176.7751937984496" y="1158.577519379845"/>
      <point x="174.03875968992247" y="1191.7325581395348"/>
      <point x="174.03875968992247" y="1205.0" type="curve" smooth="yes"/>
      <point x="174.03875968992247" y="1337.6356589147288"/>
      <point x="253.6201550387597" y="1429.2209302325582"/>
      <point x="417.31007751937983" y="1429.2209302325582" type="curve" smooth="yes"/>
      <point x="553.6317829457364" y="1429.2209302325582"/>
      <point x="679.6860465116279" y="1357.3255813953488"/>
      <point x="679.6860465116279" y="1180.0542635658915" type="curve" smooth="yes"/>
      <point x="679.6860465116279" y="890.6240310077519"/>
      <point x="358.0503875968992" y="992.8217054263566"/>
      <point x="358.0503875968992" y="583.5193798449612" type="curve" smooth="yes"/>
      <point x="358.0503875968992" y="528.6744186046511"/>
      <point x="364.57751937984494" y="397.35271317829455"/>
    </contour>
    <contour>
      <point x="421.6782945736434" y="-15.84108527131783" type="curve" smooth="yes"/>
      <point x="459.2015503875969" y="-15.84108527131783"/>
      <point x="487.98837209302326" y="16.627906976744185"/>
      <point x="487.98837209302326" y="58.0968992248062" type="curve" smooth="yes"/>
      <point x="487.98837209302326" y="99.19767441860465"/>
      <point x="458.2015503875969" y="130.03488372093022"/>
      <point x="421.6782945736434" y="130.03488372093022" type="curve" smooth="yes"/>
      <point x="385.15503875968994" y="130.03488372093022"/>
      <point x="355.3682170542636" y="99.19767441860465"/>
      <point x="355.3682170542636" y="58.0968992248062" type="curve" smooth="yes"/>
      <point x="355.3682170542636" y="16.627906976744185"/>
      <point x="384.15503875968994" y="-15.84108527131783"/>
    </contour>
  </outline>
</glyph>
<glyph name="at" format="2">
  <advance width="1670.031007751938"/>
  <unicode hex="0040"/>
  <note>
at
</note>
  <outline>
    <contour>
      <point x="875.8333333333334" y="-32.2093023255814" type="curve" smooth="yes"/>
      <point x="1161.2480620155038" y="-32.2093023255814"/>
      <point x="1414.6627906976744" y="124.05038759689923"/>
      <point x="1545.9767441860465" y="360.4108527131783" type="curve"/>
      <point x="1488.2015503875969" y="356.72868217054264" type="line"/>
      <point x="1362.937984496124" y="144.72868217054264"/>
      <point x="1130.5697674418604" y="2.937984496124031"/>
      <point x="876.2015503875969" y="2.937984496124031" type="curve" smooth="yes"/>
      <point x="487.14728682170545" y="2.937984496124031"/>
      <point x="170.6201550387597" y="333.20542635658916"/>
      <point x="170.6201550387597" y="714.8953488372093" type="curve" smooth="yes"/>
      <point x="170.6201550387597" y="1095.3217054263566"/>
      <point x="487.14728682170545" y="1425.5891472868218"/>
      <point x="876.2015503875969" y="1425.5891472868218" type="curve" smooth="yes"/>
      <point x="1227.624031007752" y="1425.5891472868218"/>
      <point x="1474.3100775193798" y="1203.2170542635658"/>
      <point x="1474.3100775193798" y="890.1589147286821" type="curve" smooth="yes"/>
      <point x="1474.3100775193798" y="785.7906976744187"/>
      <point x="1454.6782945736434" y="689.3682170542636"/>
      <point x="1418.5736434108528" y="609.2093023255813" type="curve" smooth="yes"/>
      <point x="1367.0968992248063" y="483.88759689922483"/>
      <point x="1274.8837209302326" y="391.04651162790697"/>
      <point x="1178.1937984496124" y="380.0" type="curve" smooth="yes"/>
      <point x="1139.2441860465117" y="381.8410852713178"/>
      <point x="1067.2403100775193" y="447.8953488372093"/>
      <point x="1075.9263565891472" y="523.9031007751938" type="curve"/>
      <point x="1216.3953488372092" y="1081.7325581395348" type="line"/>
      <point x="1117.8410852713178" y="1081.7325581395348" type="line"/>
      <point x="1087.9961240310076" y="965.1395348837209" type="line"/>
      <point x="1057.577519379845" y="1064.360465116279"/>
      <point x="1013.8410852713179" y="1101.7325581395348"/>
      <point x="898.6279069767442" y="1101.7325581395348" type="curve" smooth="yes"/>
      <point x="657.7906976744187" y="1101.7325581395348"/>
      <point x="467.43023255813955" y="829.7325581395348"/>
      <point x="467.43023255813955" y="599.1627906976744" type="curve" smooth="yes"/>
      <point x="467.43023255813955" y="435.9573643410853"/>
      <point x="566.1627906976744" y="329.5387596899225"/>
      <point x="733.577519379845" y="329.5387596899225" type="curve" smooth="yes"/>
      <point x="838.9457364341085" y="329.5387596899225"/>
      <point x="915.5813953488372" y="371.48837209302326"/>
      <point x="991.577519379845" y="508.1240310077519" type="curve"/>
      <point x="1006.3100775193799" y="395.8062015503876"/>
      <point x="1066.3100775193798" y="342.5387596899225"/>
      <point x="1148.7325581395348" y="342.5387596899225" type="curve" smooth="yes"/>
      <point x="1216.9418604651162" y="342.5387596899225"/>
      <point x="1280.2558139534883" y="367.6434108527132"/>
      <point x="1335.4108527131782" y="411.9573643410853" type="curve" smooth="yes"/>
      <point x="1390.9341085271317" y="456.27131782945736"/>
      <point x="1432.6705426356589" y="511.1666666666667"/>
      <point x="1467.3527131782946" y="580.4806201550388" type="curve" smooth="yes"/>
      <point x="1509.2984496124031" y="668.7945736434109"/>
      <point x="1532.4031007751937" y="776.2674418604652"/>
      <point x="1532.4031007751937" y="885.0542635658915" type="curve" smooth="yes"/>
      <point x="1532.4031007751937" y="1214.5271317829458"/>
      <point x="1265.8798449612402" y="1460.3682170542636"/>
      <point x="875.8333333333334" y="1460.3682170542636" type="curve" smooth="yes"/>
      <point x="453.8914728682171" y="1460.3682170542636"/>
      <point x="112.8953488372093" y="1126.7364341085272"/>
      <point x="112.8953488372093" y="714.8953488372093" type="curve" smooth="yes"/>
      <point x="112.8953488372093" y="301.42248062015506"/>
      <point x="453.5232558139535" y="-32.2093023255814"/>
    </contour>
    <contour>
      <point x="747.9457364341085" y="368.26356589147287" type="curve" smooth="yes"/>
      <point x="635.5697674418604" y="368.26356589147287"/>
      <point x="561.0891472868217" y="444.2674418604651"/>
      <point x="561.0891472868217" y="581.6899224806201" type="curve" smooth="yes"/>
      <point x="561.0891472868217" y="833.2209302325581"/>
      <point x="726.0930232558139" y="1068.1124031007753"/>
      <point x="909.468992248062" y="1068.1124031007753" type="curve" smooth="yes"/>
      <point x="1010.577519379845" y="1068.1124031007753"/>
      <point x="1049.2635658914728" y="992.5813953488372"/>
      <point x="1049.2635658914728" y="870.6860465116279" type="curve" smooth="yes"/>
      <point x="1049.2635658914728" y="705.4806201550388"/>
      <point x="943.1085271317829" y="368.26356589147287"/>
    </contour>
  </outline>
</glyph>
<glyph name="A" format="2">
  <advance width="1347.5077519379845"/>
  <unicode hex="0041"/>
  <note>
A
</note>
  <anchor x="642.5697674418604" y="11.046511627906977" name="bottom"/>
  <anchor x="1180.8488372093022" y="0.0" name="ogonek"/>
  <anchor x="642.5697674418604" y="1430.0" name="top"/>
  <outline>
    <contour>
      <point x="39.8953488372093" y="0.0" type="line"/>
      <point x="81.93798449612403" y="0.0" type="line"/>
      <point x="634.0" y="1315.9806201550387" type="line"/>
      <point x="624.5232558139535" y="1302.7713178294573" type="line"/>
      <point x="1164.4302325581396" y="0.0" type="line"/>
      <point x="1307.6124031007753" y="0.0" type="line"/>
      <point x="672.5697674418604" y="1479.2093023255813" type="line"/>
    </contour>
    <contour>
      <point x="245.68604651162792" y="442.7015503875969" type="line"/>
      <point x="1019.0503875968992" y="442.7015503875969" type="line"/>
      <point x="1007.3178294573644" y="473.3217054263566" type="line"/>
      <point x="258.8914728682171" y="473.3217054263566" type="line"/>
    </contour>
  </outline>
</glyph>
<glyph name="B" format="2">
  <advance width="1220.0813953488373"/>
  <unicode hex="0042"/>
  <note>
B
</note>
  <anchor x="631.937984496124" y="11.046511627906977" name="bottom"/>
  <anchor x="631.937984496124" y="1430.0" name="top"/>
  <outline>
    <contour>
      <point x="173.26356589147287" y="0.0" type="line"/>
      <point x="559.4147286821706" y="0.0" type="line" smooth="yes"/>
      <point x="946.6627906976744" y="0.0"/>
      <point x="1131.8178294573643" y="108.42248062015504"/>
      <point x="1131.8178294573643" y="392.62790697674416" type="curve" smooth="yes"/>
      <point x="1131.8178294573643" y="634.6279069767442"/>
      <point x="994.3953488372093" y="769.7364341085271"/>
      <point x="665.7131782945736" y="764.1550387596899" type="curve"/>
      <point x="661.2945736434109" y="753.9496124031008" type="line"/>
      <point x="934.7131782945736" y="755.0"/>
      <point x="1085.7674418604652" y="879.2131782945736"/>
      <point x="1085.7674418604652" y="1067.7403100775193" type="curve" smooth="yes"/>
      <point x="1085.7674418604652" y="1282.577519379845"/>
      <point x="899.1395348837209" y="1431.1046511627908"/>
      <point x="606.468992248062" y="1431.1046511627908" type="curve" smooth="yes"/>
      <point x="173.26356589147287" y="1431.1046511627908" type="line"/>
    </contour>
    <contour>
      <point x="293.5" y="9.631782945736434" type="line"/>
      <point x="293.5" y="760.5232558139535" type="line"/>
      <point x="234.13953488372093" y="743.4263565891473" type="line"/>
      <point x="601.9922480620155" y="743.4263565891473" type="line" smooth="yes"/>
      <point x="840.7364341085271" y="743.4263565891473"/>
      <point x="987.8992248062016" y="699.5813953488372"/>
      <point x="987.8992248062016" y="401.78682170542635" type="curve" smooth="yes"/>
      <point x="987.8992248062016" y="162.72868217054264"/>
      <point x="893.6317829457364" y="28.410852713178294"/>
      <point x="555.3062015503876" y="28.410852713178294" type="curve" smooth="yes"/>
      <point x="227.36821705426357" y="28.410852713178294" type="line"/>
    </contour>
    <contour>
      <point x="293.5" y="755.1085271317829" type="line"/>
      <point x="293.5" y="1418.8953488372092" type="line"/>
      <point x="223.62790697674419" y="1402.6937984496124" type="line"/>
      <point x="589.4147286821706" y="1402.6937984496124" type="line" smooth="yes"/>
      <point x="883.5232558139535" y="1402.6937984496124"/>
      <point x="942.953488372093" y="1223.0658914728683"/>
      <point x="942.953488372093" y="1061.2674418604652" type="curve" smooth="yes"/>
      <point x="942.953488372093" y="819.6821705426356"/>
      <point x="802.3139534883721" y="772.5736434108527"/>
      <point x="586.468992248062" y="772.5736434108527" type="curve" smooth="yes"/>
      <point x="242.60852713178295" y="772.5736434108527" type="line"/>
    </contour>
  </outline>
</glyph>
<glyph name="C" format="2">
  <advance width="1449.2403100775193"/>
  <unicode hex="0043"/>
  <note>
C
</note>
  <anchor x="763.7286821705426" y="11.046511627906977" name="bottom"/>
  <anchor x="743.725" y="1430.0" name="top"/>
  <outline>
    <contour>
      <point x="819.7286821705426" y="-11.523255813953488" type="curve" smooth="yes"/>
      <point x="1073.2480620155038" y="-11.523255813953488"/>
      <point x="1246.1860465116279" y="103.15503875968992"/>
      <point x="1401.9767441860465" y="322.72868217054264" type="curve"/>
      <point x="1296.6860465116279" y="322.72868217054264" type="line"/>
      <point x="1143.3682170542636" y="103.62403100775194"/>
      <point x="983.6279069767442" y="17.624031007751938"/>
      <point x="824.2558139534883" y="17.624031007751938" type="curve" smooth="yes"/>
      <point x="491.4573643410853" y="17.624031007751938"/>
      <point x="214.34496124031008" y="320.8914728682171"/>
      <point x="214.34496124031008" y="716.8953488372093" type="curve" smooth="yes"/>
      <point x="214.34496124031008" y="1122.531007751938"/>
      <point x="497.1937984496124" y="1414.9031007751937"/>
      <point x="818.3604651162791" y="1414.9031007751937" type="curve" smooth="yes"/>
      <point x="975.9961240310078" y="1414.9031007751937"/>
      <point x="1152.0542635658915" y="1328.639534883721"/>
      <point x="1287.2131782945737" y="1111.062015503876" type="curve"/>
      <point x="1386.031007751938" y="1111.062015503876" type="line"/>
      <point x="1255.922480620155" y="1340.0581395348838"/>
      <point x="1054.0387596899225" y="1443.6821705426357"/>
      <point x="819.6240310077519" y="1443.6821705426357" type="curve" smooth="yes"/>
      <point x="421.1007751937984" y="1443.6821705426357"/>
      <point x="78.8953488372093" y="1151.422480620155"/>
      <point x="78.8953488372093" y="714.2635658914729" type="curve" smooth="yes"/>
      <point x="78.8953488372093" y="256.2093023255814"/>
      <point x="432.5736434108527" y="-11.523255813953488"/>
    </contour>
  </outline>
</glyph>
<glyph name="D" format="2">
  <advance width="1392.5581395348838"/>
  <unicode hex="0044"/>
  <note>
D
</note>
  <anchor x="701.9883720930233" y="3.3139534883720927" name="bottom"/>
  <anchor x="241.82945736434107" y="715.0" name="center"/>
  <anchor x="701.9883720930233" y="1430.0" name="top"/>
  <outline>
    <contour>
      <point x="173.26356589147287" y="0.0" type="line"/>
      <point x="535.3565891472869" y="0.0" type="line" smooth="yes"/>
      <point x="774.3992248062016" y="0.0"/>
      <point x="935.8255813953489" y="35.42248062015504"/>
      <point x="1066.2945736434108" y="129.89147286821705" type="curve" smooth="yes"/>
      <point x="1217.562015503876" y="239.41860465116278"/>
      <point x="1303.6627906976744" y="427.57751937984494"/>
      <point x="1303.6627906976744" y="715.7364341085271" type="curve" smooth="yes"/>
      <point x="1303.6627906976744" y="988.5813953488372"/>
      <point x="1227.875968992248" y="1174.1589147286822"/>
      <point x="1079.6124031007753" y="1286.5271317829458" type="curve" smooth="yes"/>
      <point x="940.2480620155038" y="1393.5232558139535"/>
      <point x="754.8720930232558" y="1431.1046511627908"/>
      <point x="473.35658914728685" y="1431.1046511627908" type="curve" smooth="yes"/>
      <point x="173.26356589147287" y="1431.1046511627908" type="line"/>
    </contour>
    <contour>
      <point x="307.1317829457364" y="2.4224806201550386" type="line"/>
      <point x="307.1317829457364" y="1428.6821705426357" type="line"/>
      <point x="238.2093023255814" y="1402.6937984496124" type="line"/>
      <point x="501.20542635658916" y="1402.6937984496124" type="line" smooth="yes"/>
      <point x="954.7906976744187" y="1402.6937984496124"/>
      <point x="1163.3720930232557" y="1192.2674418604652"/>
      <point x="1163.3720930232557" y="720.1046511627907" type="curve" smooth="yes"/>
      <point x="1163.3720930232557" y="243.31007751937983"/>
      <point x="951.0542635658915" y="28.410852713178294"/>
      <point x="494.6782945736434" y="28.410852713178294" type="curve" smooth="yes"/>
      <point x="238.2093023255814" y="28.410852713178294" type="line"/>
    </contour>
  </outline>
</glyph>
<glyph name="E" format="2">
  <advance width="1129.1899224806202"/>
  <unicode hex="0045"/>
  <note>
E
</note>
  <anchor x="546.3604651162791" y="11.046511627906977" name="bottom"/>
  <anchor x="967.3914728682171" y="0.0" name="ogonek"/>
  <anchor x="647.8333333333334" y="1430.0" name="top"/>
  <anchor x="-8.213178294573645" y="1430.0" name="topleft"/>
  <outline>
    <contour>
      <point x="173.26356589147287" y="0.0" type="line"/>
      <point x="1060.8217054263566" y="0.0" type="line"/>
      <point x="1060.8217054263566" y="28.410852713178294" type="line"/>
      <point x="261.67054263565893" y="28.410852713178294" type="line"/>
      <point x="307.5" y="6.527131782945737" type="line"/>
      <point x="307.5" y="745.6782945736434" type="line"/>
      <point x="231.10077519379846" y="714.531007751938" type="line"/>
      <point x="1060.8217054263566" y="714.531007751938" type="line"/>
      <point x="1060.8217054263566" y="742.9418604651163" type="line"/>
      <point x="261.67054263565893" y="742.9418604651163" type="line"/>
      <point x="307.5" y="721.0581395348837" type="line"/>
      <point x="307.5" y="1423.1046511627908" type="line"/>
      <point x="237.2093023255814" y="1402.6937984496124" type="line"/>
      <point x="1060.8217054263566" y="1402.6937984496124" type="line"/>
      <point x="1060.8217054263566" y="1431.1046511627908" type="line"/>
      <point x="173.26356589147287" y="1431.1046511627908" type="line"/>
    </contour>
  </outline>
</glyph>
<glyph name="F" format="2">
  <advance width="1102.1937984496124"/>
  <unicode hex="0046"/>
  <note>
F
</note>
  <anchor x="545.9418604651163" y="11.046511627906977" name="bottom"/>
  <anchor x="545.9418604651163" y="1430.0" name="top"/>
  <outline>
    <contour>
      <point x="173.26356589147287" y="0.0" type="line"/>
      <point x="307.5" y="0.0" type="line"/>
      <point x="307.5" y="691.2596899224807" type="line"/>
      <point x="223.0" y="661.5852713178294" type="line"/>
      <point x="1053.8255813953488" y="661.5852713178294" type="line"/>
      <point x="1053.8255813953488" y="689.6279069767442" type="line"/>
      <point x="240.68217054263567" y="689.6279069767442" type="line"/>
      <point x="307.5" y="667.3759689922481" type="line"/>
      <point x="307.5" y="1420.8953488372092" type="line"/>
      <point x="237.2093023255814" y="1402.6937984496124" type="line"/>
      <point x="1053.8255813953488" y="1402.6937984496124" type="line"/>
      <point x="1053.8255813953488" y="1431.1046511627908" type="line"/>
      <point x="173.26356589147287" y="1431.1046511627908" type="line"/>
    </contour>
  </outline>
</glyph>
<glyph name="G" format="2">
  <advance width="1568.0852713178294"/>
  <unicode hex="0047"/>
  <note>
G
</note>
  <anchor x="777.5697674418604" y="11.046511627906977" name="bottom"/>
  <anchor x="777.5697674418604" y="1430.0" name="top"/>
  <outline>
    <contour>
      <point x="802.4108527131783" y="-31.52325581395349" type="curve" smooth="yes"/>
      <point x="1189.5116279069766" y="-31.52325581395349"/>
      <point x="1478.453488372093" y="257.8953488372093"/>
      <point x="1518.8217054263566" y="625.1046511627907" type="curve"/>
      <point x="1381.531007751938" y="625.1046511627907" type="line"/>
      <point x="1344.3720930232557" y="270.15503875968994"/>
      <point x="1094.3139534883721" y="-1.6899224806201545"/>
      <point x="802.0426356589147" y="-0.21705426356589896" type="curve"/>
      <point x="484.5077519379845" y="-1.6899224806201545"/>
      <point x="217.18604651162792" y="318.4186046511628"/>
      <point x="217.18604651162792" y="716.5271317829457" type="curve" smooth="yes"/>
      <point x="217.18604651162792" y="1120.0038759689924"/>
      <point x="492.1395348837209" y="1433.4806201550387"/>
      <point x="802.0426356589147" y="1432.375968992248" type="curve"/>
      <point x="998.6782945736434" y="1433.1124031007753"/>
      <point x="1180.3139534883721" y="1307.8488372093022"/>
      <point x="1287.1589147286822" y="1111.2713178294573" type="curve"/>
      <point x="1416.2403100775193" y="1111.2713178294573" type="line"/>
      <point x="1297.0813953488373" y="1321.108527131783"/>
      <point x="1067.7751937984497" y="1463.6821705426357"/>
      <point x="802.0426356589147" y="1463.6821705426357" type="curve" smooth="yes"/>
      <point x="387.04651162790697" y="1463.6821705426357"/>
      <point x="79.8953488372093" y="1122.422480620155"/>
      <point x="79.8953488372093" y="715.0" type="curve" smooth="yes"/>
      <point x="79.8953488372093" y="305.8953488372093"/>
      <point x="382.83720930232556" y="-31.52325581395349"/>
    </contour>
    <contour>
      <point x="856.7364341085272" y="596.6937984496124" type="line"/>
      <point x="1445.4651162790697" y="596.6937984496124" type="line"/>
      <point x="1445.4651162790697" y="625.1046511627907" type="line"/>
      <point x="856.7364341085272" y="625.1046511627907" type="line"/>
    </contour>
  </outline>
</glyph>
<glyph name="H" format="2">
  <advance width="1553.0387596899225"/>
  <unicode hex="0048"/>
  <note>
H
</note>
  <anchor x="771.5193798449612" y="11.046511627906977" name="bottom"/>
  <anchor x="771.5193798449612" y="715.0" name="center"/>
  <anchor x="771.5193798449612" y="1430.0" name="top"/>
  <anchor x="78.78682170542636" y="1430.0" name="topleft"/>
  <outline>
    <contour>
      <point x="173.26356589147287" y="0.0" type="line"/>
      <point x="304.55426356589146" y="0.0" type="line"/>
      <point x="304.55426356589146" y="748.8333333333334" type="line"/>
      <point x="256.3139534883721" y="718.531007751938" type="line"/>
      <point x="1298.9341085271317" y="718.531007751938" type="line"/>
      <point x="1248.1162790697674" y="748.8333333333334" type="line"/>
      <point x="1248.1162790697674" y="0.0" type="line"/>
      <point x="1379.7751937984497" y="0.0" type="line"/>
      <point x="1379.7751937984497" y="1431.1046511627908" type="line"/>
      <point x="1248.1162790697674" y="1431.1046511627908" type="line"/>
      <point x="1248.1162790697674" y="717.0077519379845" type="line"/>
      <point x="1298.9341085271317" y="747.3100775193799" type="line"/>
      <point x="256.3139534883721" y="747.3100775193799" type="line"/>
      <point x="304.55426356589146" y="717.0077519379845" type="line"/>
      <point x="304.55426356589146" y="1431.1046511627908" type="line"/>
      <point x="173.26356589147287" y="1431.1046511627908" type="line"/>
    </contour>
  </outline>
</glyph>
<glyph name="I" format="2">
  <advance width="476.3953488372093"/>
  <unicode hex="0049"/>
  <note>
I
</note>
  <anchor x="238.19767441860466" y="11.046511627906977" name="bottom"/>
  <anchor x="420.5077519379845" y="10.0" name="ogonek"/>
  <anchor x="238.19767441860466" y="1430.0" name="top"/>
  <anchor x="24.41860465116279" y="1430.0" name="topleft"/>
  <outline>
    <contour>
      <point x="174.26356589147287" y="0.0" type="line"/>
      <point x="302.5" y="0.0" type="line"/>
      <point x="302.5" y="1431.1046511627908" type="line"/>
      <point x="174.26356589147287" y="1431.1046511627908" type="line"/>
    </contour>
  </outline>
</glyph>
<glyph name="J" format="2">
  <advance width="709.0697674418604"/>
  <unicode hex="004A"/>
  <note>
J
</note>
  <anchor x="363.29457364341084" y="11.046511627906977" name="bottom"/>
  <anchor x="483.29457364341084" y="1430.0" name="top"/>
  <outline>
    <contour>
      <point x="29.631782945736433" y="-64.48062015503876" type="line"/>
      <point x="116.31395348837209" y="-124.84496124031008"/>
      <point x="175.82945736434107" y="-154.1046511627907"/>
      <point x="249.98062015503876" y="-154.1046511627907" type="curve" smooth="yes"/>
      <point x="422.0736434108527" y="-154.1046511627907"/>
      <point x="541.5426356589147" y="-1.5891472868217065"/>
      <point x="541.5426356589147" y="298.02713178294573" type="curve" smooth="yes"/>
      <point x="541.5426356589147" y="1431.1046511627908" type="line"/>
      <point x="407.6744186046512" y="1431.1046511627908" type="line"/>
      <point x="407.6744186046512" y="191.61627906976744" type="line" smooth="yes"/>
      <point x="407.6744186046512" y="-89.7984496124031"/>
      <point x="285.984496124031" y="-123.85271317829458"/>
      <point x="233.24806201550388" y="-123.85271317829458" type="curve" smooth="yes"/>
      <point x="168.04263565891472" y="-123.85271317829458"/>
      <point x="92.73255813953489" y="-74.59302325581396"/>
      <point x="29.631782945736433" y="-9.860465116279073" type="curve"/>
    </contour>
  </outline>
</glyph>
<glyph name="K" format="2">
  <advance width="1384.0232558139535"/>
  <unicode hex="004B"/>
  <note>
K
</note>
  <anchor x="645.6240310077519" y="11.046511627906977" name="bottom"/>
  <anchor x="645.6240310077519" y="1430.0" name="top"/>
  <outline>
    <contour>
      <point x="173.26356589147287" y="0.0" type="line"/>
      <point x="307.5" y="0.0" type="line"/>
      <point x="307.5" y="1431.1046511627908" type="line"/>
      <point x="173.26356589147287" y="1431.1046511627908" type="line"/>
    </contour>
    <contour>
      <point x="268.7093023255814" y="352.8992248062016" type="line"/>
      <point x="1263.1317829457364" y="1431.1046511627908" type="line"/>
      <point x="1206.046511627907" y="1431.1046511627908" type="line"/>
      <point x="256.4651162790698" y="402.2674418604651" type="line"/>
    </contour>
    <contour>
      <point x="1208.2596899224807" y="0.0" type="line"/>
      <point x="1349.1279069767443" y="0.0" type="line"/>
      <point x="669.9147286821706" y="807.6240310077519" type="line"/>
      <point x="591.1434108527131" y="737.6356589147287" type="line"/>
    </contour>
  </outline>
</glyph>
<glyph name="L" format="2">
  <advance width="1022.7093023255813"/>
  <unicode hex="004C"/>
  <note>
L
</note>
  <anchor x="530.0387596899225" y="11.046511627906977" name="bottom"/>
  <anchor x="235.7248062015504" y="715.0" name="center"/>
  <anchor x="666.6046511627907" y="719.8914728682171" name="dot"/>
  <anchor x="951.0271317829457" y="10.0" name="ogonek"/>
  <anchor x="333.984496124031" y="1430.0" name="top"/>
  <anchor x="9.895348837209305" y="1430.0" name="topleft"/>
  <anchor x="887.2441860465117" y="1430.0" name="topright"/>
  <outline>
    <contour>
      <point x="173.26356589147287" y="0.0" type="line"/>
      <point x="994.077519379845" y="0.0" type="line"/>
      <point x="994.077519379845" y="24.728682170542633" type="line"/>
      <point x="234.57751937984494" y="24.728682170542633" type="line"/>
      <point x="307.1317829457364" y="5.104651162790697" type="line"/>
      <point x="307.1317829457364" y="1430.0" type="line"/>
      <point x="173.26356589147287" y="1430.0" type="line"/>
    </contour>
  </outline>
</glyph>
<glyph name="M" format="2">
  <advance width="1790.0852713178294"/>
  <unicode hex="004D"/>
  <note>
M
</note>
  <anchor x="895.0426356589147" y="11.046511627906977" name="bottom"/>
  <anchor x="895.0426356589147" y="1430.0" name="top"/>
  <outline>
    <contour>
      <point x="172.26356589147287" y="0.0" type="line"/>
      <point x="216.5077519379845" y="0.0" type="line"/>
      <point x="216.5077519379845" y="1373.9186046511627" type="line"/>
      <point x="190.9418604651163" y="1362.5542635658915" type="line"/>
      <point x="880.1511627906976" y="-17.72868217054264" type="line"/>
      <point x="1515.5736434108528" y="1368.2829457364342" type="line"/>
      <point x="1478.4263565891472" y="1332.5038759689924" type="line"/>
      <point x="1478.4263565891472" y="0.0" type="line"/>
      <point x="1617.8217054263566" y="0.0" type="line"/>
      <point x="1617.8217054263566" y="1431.1046511627908" type="line"/>
      <point x="1486.6356589147288" y="1431.1046511627908" type="line"/>
      <point x="901.6860465116279" y="157.03875968992247" type="line"/>
      <point x="947.562015503876" y="180.77131782945736" type="line"/>
      <point x="323.72093023255815" y="1431.1046511627908" type="line"/>
      <point x="172.26356589147287" y="1431.1046511627908" type="line"/>
    </contour>
  </outline>
</glyph>
<glyph name="N" format="2">
  <advance width="1492.2558139534883"/>
  <unicode hex="004E"/>
  <note>
N
</note>
  <anchor x="746.6279069767442" y="11.046511627906977" name="bottom"/>
  <anchor x="746.6279069767442" y="1430.0" name="top"/>
  <outline>
    <contour>
      <point x="175.1046511627907" y="0.0" type="line"/>
      <point x="218.98062015503876" y="0.0" type="line"/>
      <point x="218.98062015503876" y="1338.3527131782946" type="line"/>
      <point x="185.36434108527132" y="1280.7635658914728" type="line"/>
      <point x="1286.1666666666667" y="-24.0" type="line"/>
      <point x="1318.9922480620155" y="-24.0" type="line"/>
      <point x="1318.9922480620155" y="1431.1046511627908" type="line"/>
      <point x="1274.7480620155038" y="1431.1046511627908" type="line"/>
      <point x="1274.7480620155038" y="151.76356589147287" type="line"/>
      <point x="1303.15503875969" y="154.18604651162792" type="line"/>
      <point x="202.8798449612403" y="1461.1046511627908" type="line"/>
      <point x="173.26356589147287" y="1461.1046511627908" type="line"/>
    </contour>
  </outline>
</glyph>
<glyph name="O" format="2">
  <advance width="1602.9806201550387"/>
  <unicode hex="004F"/>
  <note>
O
</note>
  <anchor x="801.6744186046511" y="3.3139534883720927" name="bottom"/>
  <anchor x="801.6744186046511" y="715.0" name="center"/>
  <anchor x="990.9806201550388" y="0.0" name="ogonek"/>
  <anchor x="801.6744186046511" y="1430.0" name="top"/>
  <anchor x="41.04651162790698" y="1430.0" name="topleft"/>
  <anchor x="1417.5736434108528" y="1430.0" name="topright"/>
  <outline>
    <contour>
      <point x="801.6744186046511" y="-31.52325581395349" type="curve" smooth="yes"/>
      <point x="1220.1434108527133" y="-31.52325581395349"/>
      <point x="1523.0852713178294" y="306.6317829457364"/>
      <point x="1523.0852713178294" y="713.8953488372093" type="curve" smooth="yes"/>
      <point x="1523.0852713178294" y="1122.1589147286822"/>
      <point x="1218.7751937984497" y="1463.6821705426357"/>
      <point x="801.6744186046511" y="1463.6821705426357" type="curve" smooth="yes"/>
      <point x="385.9418604651163" y="1463.6821705426357"/>
      <point x="79.8953488372093" y="1123.1589147286822"/>
      <point x="79.8953488372093" y="713.8953488372093" type="curve" smooth="yes"/>
      <point x="79.8953488372093" y="306.6317829457364"/>
      <point x="383.5736434108527" y="-31.52325581395349"/>
    </contour>
    <contour>
      <point x="801.6744186046511" y="0.15116279069766847" type="curve"/>
      <point x="484.5077519379845" y="-1.321705426356587"/>
      <point x="217.18604651162792" y="318.78682170542635"/>
      <point x="217.18604651162792" y="716.1589147286821" type="curve" smooth="yes"/>
      <point x="217.18604651162792" y="1119.2674418604652"/>
      <point x="492.1395348837209" y="1433.1124031007753"/>
      <point x="801.6744186046511" y="1432.375968992248" type="curve"/>
      <point x="1111.2093023255813" y="1433.1124031007753"/>
      <point x="1386.1627906976744" y="1119.2674418604652"/>
      <point x="1386.1627906976744" y="716.1589147286821" type="curve" smooth="yes"/>
      <point x="1386.1627906976744" y="318.4186046511628"/>
      <point x="1119.2093023255813" y="-1.321705426356587"/>
    </contour>
  </outline>
</glyph>
<glyph name="P" format="2">
  <advance width="1113.7635658914728"/>
  <unicode hex="0050"/>
  <note>
P
</note>
  <anchor x="565.7790697674419" y="-18.410852713178294" name="bottom"/>
  <anchor x="565.7790697674419" y="1430.0" name="top"/>
  <outline>
    <contour>
      <point x="173.26356589147287" y="0.0" type="line"/>
      <point x="305.65891472868213" y="0.0" type="line"/>
      <point x="305.65891472868213" y="571.3720930232558" type="line"/>
      <point x="250.08914728682169" y="557.9573643410853" type="line"/>
      <point x="617.2403100775193" y="557.9573643410853" type="line" smooth="yes"/>
      <point x="727.5581395348837" y="557.9573643410853"/>
      <point x="831.9806201550388" y="601.5891472868217"/>
      <point x="916.3992248062016" y="677.3255813953489" type="curve" smooth="yes"/>
      <point x="998.9767441860465" y="751.5891472868217"/>
      <point x="1055.5" y="867.4263565891473"/>
      <point x="1055.5" y="990.7945736434109" type="curve" smooth="yes"/>
      <point x="1055.5" y="1114.7945736434108"/>
      <point x="1000.5542635658915" y="1226.84496124031"/>
      <point x="916.7131782945737" y="1303.5813953488373" type="curve" smooth="yes"/>
      <point x="827.7170542635658" y="1384.6317829457364"/>
      <point x="714.6124031007752" y="1431.1046511627908"/>
      <point x="592.7713178294573" y="1431.1046511627908" type="curve" smooth="yes"/>
      <point x="173.26356589147287" y="1431.1046511627908" type="line"/>
    </contour>
    <contour>
      <point x="305.65891472868213" y="567.4302325581396" type="line"/>
      <point x="305.65891472868213" y="1424.3682170542636" type="line"/>
      <point x="222.47286821705427" y="1405.2713178294573" type="line"/>
      <point x="600.5038759689922" y="1405.2713178294573" type="line" smooth="yes"/>
      <point x="776.4147286821706" y="1405.2713178294573"/>
      <point x="942.2093023255813" y="1222.062015503876"/>
      <point x="942.2093023255813" y="986.4806201550388" type="curve" smooth="yes"/>
      <point x="942.2093023255813" y="762.3100775193799"/>
      <point x="771.0968992248062" y="585.6317829457364"/>
      <point x="600.5038759689922" y="585.6317829457364" type="curve" smooth="yes"/>
      <point x="264.0813953488372" y="585.6317829457364" type="line"/>
    </contour>
  </outline>
</glyph>
<glyph name="Q" format="2">
  <advance width="1602.9806201550387"/>
  <unicode hex="0051"/>
  <note>
Q
</note>
  <anchor x="796.7790697674419" y="16.93798449612403" name="bottom"/>
  <anchor x="796.7790697674419" y="1422.2674418604652" name="top"/>
  <anchor x="801.6744186046511" y="721.4722315891472" name="center"/>
  <anchor x="990.9806201550388" y="2.259689922480618" name="ogonek"/>
  <anchor x="41.04651162790698" y="1440.6847732558138" name="topleft"/>
  <anchor x="1417.5736434108528" y="1440.6847732558138" name="topright"/>
  <outline>
    <contour>
      <point x="1092.3023255813953" y="-382.3139534883721" type="curve" smooth="yes"/>
      <point x="1148.608527131783" y="-382.3139534883721"/>
      <point x="1175.2906976744187" y="-372.36821705426354"/>
      <point x="1191.0813953488373" y="-347.9573643410853" type="curve"/>
      <point x="1171.7170542635658" y="-347.9573643410853"/>
      <point x="1151.7209302325582" y="-347.9573643410853"/>
      <point x="1132.3565891472867" y="-347.9573643410853" type="curve" smooth="yes"/>
      <point x="870.3488372093024" y="-347.9573643410853"/>
      <point x="855.7131782945737" y="-312.48062015503876"/>
      <point x="855.7131782945737" y="-158.42248062015503" type="curve" smooth="yes"/>
      <point x="855.7131782945737" y="-7.112403100775197" type="line"/>
      <point x="740.4767441860465" y="-7.112403100775197" type="line"/>
      <point x="740.4767441860465" y="-180.37209302325581" type="line" smooth="yes"/>
      <point x="740.4767441860465" y="-265.5813953488372"/>
      <point x="792.1589147286821" y="-315.73643410852713"/>
      <point x="845.4147286821706" y="-342.0503875968992" type="curve" smooth="yes"/>
      <point x="896.5697674418604" y="-368.6821705426357"/>
      <point x="961.0426356589147" y="-382.3139534883721"/>
    </contour>
    <component base="O" yScale="1.0058916666666666" yOffset="2.259689922480618"/>
  </outline>
</glyph>
<glyph name="R" format="2">
  <advance width="1169.1317829457364"/>
  <unicode hex="0052"/>
  <note>
R
</note>
  <anchor x="590.6201550387597" y="11.046511627906977" name="bottom"/>
  <anchor x="590.6201550387597" y="1430.0" name="top"/>
  <outline>
    <contour>
      <point x="173.26356589147287" y="0.0" type="line"/>
      <point x="305.65891472868213" y="0.0" type="line"/>
      <point x="305.65891472868213" y="635.9961240310078" type="line"/>
      <point x="244.9341085271318" y="618.2674418604652" type="line"/>
      <point x="538.0348837209302" y="618.2674418604652" type="line"/>
      <point x="575.7248062015503" y="617.2674418604652" type="line"/>
      <point x="841.1434108527131" y="617.1666666666666"/>
      <point x="1055.5" y="757.0077519379845"/>
      <point x="1055.5" y="1003.7403100775193" type="curve" smooth="yes"/>
      <point x="1055.5" y="1253.108527131783"/>
      <point x="837.2945736434108" y="1431.1046511627908"/>
      <point x="592.7713178294573" y="1431.1046511627908" type="curve" smooth="yes"/>
      <point x="173.26356589147287" y="1431.1046511627908" type="line"/>
    </contour>
    <contour>
      <point x="258.5581395348837" y="644.1007751937984" type="line"/>
      <point x="305.65891472868213" y="621.7945736434109" type="line"/>
      <point x="305.65891472868213" y="1430.0503875968993" type="line"/>
      <point x="220.26356589147287" y="1405.2713178294573" type="line"/>
      <point x="600.5038759689922" y="1405.2713178294573" type="line" smooth="yes"/>
      <point x="776.4147286821706" y="1405.2713178294573"/>
      <point x="942.2093023255813" y="1235.375968992248"/>
      <point x="942.2093023255813" y="1004.5813953488372" type="curve" smooth="yes"/>
      <point x="942.2093023255813" y="772.3100775193799"/>
      <point x="771.0968992248062" y="644.1007751937984"/>
      <point x="600.5038759689922" y="644.1007751937984" type="curve" smooth="yes"/>
    </contour>
    <contour>
      <point x="490.1007751937984" y="621.2674418604652" type="line"/>
      <point x="544.1007751937984" y="611.2674418604652"/>
      <point x="616.4728682170543" y="646.6860465116279"/>
      <point x="740.1007751937984" y="525.2674418604652" type="curve" smooth="yes"/>
      <point x="795.4728682170543" y="467.6860465116279"/>
      <point x="854.7325581395348" y="386.7403100775194"/>
      <point x="933.1007751937984" y="195.21317829457365" type="curve" smooth="yes"/>
      <point x="948.3643410852713" y="158.52713178294573"/>
      <point x="985.3643410852713" y="60.52713178294574"/>
      <point x="1003.9961240310078" y="0.0" type="curve"/>
      <point x="1093.8682170542636" y="0.0" type="line"/>
      <point x="1067.2364341085272" y="68.26356589147287"/>
      <point x="1027.2364341085272" y="176.8953488372093"/>
      <point x="995.9728682170543" y="242.21317829457365" type="curve" smooth="yes"/>
      <point x="957.6046511627907" y="328.7906976744186"/>
      <point x="900.4496124031008" y="434.7906976744186"/>
      <point x="831.9728682170543" y="506.2674418604651" type="curve" smooth="yes"/>
      <point x="773.8720930232558" y="566.0"/>
      <point x="696.8720930232558" y="636.5813953488372"/>
      <point x="577.1899224806201" y="626.4767441860465" type="curve"/>
    </contour>
  </outline>
</glyph>
<glyph name="S" format="2">
  <advance width="1160.139534883721"/>
  <unicode hex="0053"/>
  <note>
S
</note>
  <anchor x="578.5697674418604" y="11.046511627906977" name="bottom"/>
  <anchor x="578.5697674418604" y="1430.0" name="top"/>
  <outline>
    <contour>
      <point x="566.937984496124" y="-28.57751937984496" type="curve" smooth="yes"/>
      <point x="920.8798449612403" y="-28.57751937984496"/>
      <point x="1083.875968992248" y="148.63178294573643"/>
      <point x="1083.875968992248" y="381.1007751937984" type="curve" smooth="yes"/>
      <point x="1083.875968992248" y="655.1007751937984"/>
      <point x="859.0813953488372" y="731.9418604651163"/>
      <point x="590.515503875969" y="823.046511627907" type="curve" smooth="yes"/>
      <point x="340.3992248062016" y="912.4728682170543"/>
      <point x="247.92635658914728" y="1014.9961240310078"/>
      <point x="247.92635658914728" y="1166.6356589147288" type="curve" smooth="yes"/>
      <point x="247.92635658914728" y="1341.0581395348838"/>
      <point x="365.40697674418607" y="1430.484496124031"/>
      <point x="588.8333333333334" y="1430.484496124031" type="curve" smooth="yes"/>
      <point x="787.6240310077519" y="1430.484496124031"/>
      <point x="936.8992248062016" y="1305.2209302325582"/>
      <point x="953.4263565891473" y="1137.0038759689924" type="curve"/>
      <point x="1053.0348837209303" y="1137.0038759689924" type="line"/>
      <point x="1022.6666666666666" y="1331.5813953488373"/>
      <point x="849.4031007751938" y="1464.3682170542636"/>
      <point x="598.3062015503876" y="1464.3682170542636" type="curve" smooth="yes"/>
      <point x="282.05426356589146" y="1464.3682170542636"/>
      <point x="124.68604651162791" y="1300.2093023255813"/>
      <point x="124.68604651162791" y="1123.0581395348838" type="curve" smooth="yes"/>
      <point x="124.68604651162791" y="932.0581395348837"/>
      <point x="286.6821705426357" y="811.3798449612403"/>
      <point x="544.3100775193799" y="722.8527131782946" type="curve" smooth="yes"/>
      <point x="814.4147286821706" y="628.3255813953489"/>
      <point x="960.5813953488372" y="544.3759689922481"/>
      <point x="960.5813953488372" y="345.47286821705427" type="curve" smooth="yes"/>
      <point x="960.5813953488372" y="129.9418604651163"/>
      <point x="866.0" y="6.779069767441861"/>
      <point x="573.0426356589147" y="6.779069767441861" type="curve" smooth="yes"/>
      <point x="346.4573643410853" y="6.779069767441861"/>
      <point x="195.7170542635659" y="118.41085271317829"/>
      <point x="165.03100775193798" y="390.7906976744186" type="curve"/>
      <point x="64.26356589147287" y="390.7906976744186" type="line"/>
      <point x="90.94961240310077" y="104.4186046511628"/>
      <point x="265.8953488372093" y="-28.57751937984496"/>
    </contour>
  </outline>
</glyph>
<glyph name="T" format="2">
  <advance width="1115.0387596899225"/>
  <unicode hex="0054"/>
  <note>
T
</note>
  <anchor x="557.5193798449612" y="11.046511627906977" name="bottom"/>
  <anchor x="557.5193798449612" y="715.0" name="center"/>
  <anchor x="557.5193798449612" y="1430.0" name="top"/>
  <outline>
    <contour>
      <point x="490.58527131782944" y="0.0" type="line"/>
      <point x="624.453488372093" y="0.0" type="line"/>
      <point x="624.453488372093" y="1423.422480620155" type="line"/>
      <point x="556.8914728682171" y="1386.860465116279" type="line"/>
      <point x="1086.0387596899225" y="1386.860465116279" type="line"/>
      <point x="1086.0387596899225" y="1431.1046511627908" type="line"/>
      <point x="29.0" y="1431.1046511627908" type="line"/>
      <point x="29.0" y="1386.860465116279" type="line"/>
      <point x="558.1472868217054" y="1386.860465116279" type="line"/>
      <point x="490.58527131782944" y="1423.422480620155" type="line"/>
    </contour>
  </outline>
</glyph>
<glyph name="U" format="2">
  <advance width="1416.0891472868218"/>
  <unicode hex="0055"/>
  <note>
U
</note>
  <anchor x="746.7286821705426" y="11.046511627906977" name="bottom"/>
  <anchor x="853.8294573643411" y="0.0" name="ogonek"/>
  <anchor x="746.7286821705426" y="1430.0" name="top"/>
  <anchor x="1284.8875968992247" y="1430.0" name="topright"/>
  <outline>
    <contour>
      <point x="708.7286821705426" y="-26.945736434108525" type="curve" smooth="yes"/>
      <point x="1029.6162790697674" y="-26.945736434108525"/>
      <point x="1279.8255813953488" y="243.36821705426357"/>
      <point x="1279.8255813953488" y="570.3217054263566" type="curve" smooth="yes"/>
      <point x="1279.8255813953488" y="1431.1046511627908" type="line"/>
      <point x="1219.4767441860465" y="1431.1046511627908" type="line"/>
      <point x="1218.0038759689924" y="546.8488372093024" type="line" smooth="yes"/>
      <point x="1217.6356589147288" y="245.57364341085272"/>
      <point x="957.2015503875969" y="17.83333333333333"/>
      <point x="706.7286821705426" y="17.83333333333333" type="curve" smooth="yes"/>
      <point x="462.14728682170545" y="17.83333333333333"/>
      <point x="240.60852713178295" y="236.36821705426357"/>
      <point x="240.60852713178295" y="552.3720930232558" type="curve" smooth="yes"/>
      <point x="240.60852713178295" y="1431.1046511627908" type="line"/>
      <point x="138.26356589147287" y="1431.1046511627908" type="line"/>
      <point x="138.26356589147287" y="544.3720930232558" type="line" smooth="yes"/>
      <point x="138.26356589147287" y="186.47286821705427"/>
      <point x="422.73643410852713" y="-26.945736434108525"/>
    </contour>
  </outline>
</glyph>
<glyph name="V" format="2">
  <advance width="1284.4612403100775"/>
  <unicode hex="0056"/>
  <note>
V
</note>
  <anchor x="643.4147286821706" y="11.046511627906977" name="bottom"/>
  <anchor x="643.4147286821706" y="1430.0" name="top"/>
  <outline>
    <contour>
      <point x="649.4147286821706" y="-39.52713178294574" type="line"/>
      <point x="1243.1976744186047" y="1430.1046511627908" type="line"/>
      <point x="1205.6860465116279" y="1430.1046511627908" type="line"/>
      <point x="655.5193798449612" y="54.49612403100775" type="line"/>
      <point x="697.7751937984497" y="124.27906976744185" type="line"/>
      <point x="166.76356589147287" y="1431.1046511627908" type="line"/>
      <point x="41.263565891472865" y="1430.1046511627908" type="line"/>
    </contour>
  </outline>
</glyph>
<glyph name="W" format="2">
  <advance width="1904.8875968992247"/>
  <unicode hex="0057"/>
  <note>
W
</note>
  <anchor x="952.6279069767442" y="11.046511627906977" name="bottom"/>
  <anchor x="952.6279069767442" y="1430.0" name="top"/>
  <outline>
    <contour>
      <point x="1279.4147286821706" y="-37.68604651162791" type="line"/>
      <point x="1863.624031007752" y="1430.1046511627908" type="line"/>
      <point x="1840.1046511627908" y="1430.1046511627908" type="line"/>
      <point x="1288.4651162790697" y="47.5" type="line"/>
      <point x="1322.9883720930234" y="134.58914728682169" type="line"/>
      <point x="790.8720930232558" y="1431.1046511627908" type="line"/>
      <point x="665.7403100775193" y="1430.1046511627908" type="line"/>
    </contour>
    <contour>
      <point x="653.8333333333334" y="-37.68604651162791" type="line"/>
      <point x="981.6744186046511" y="788.4186046511628" type="line"/>
      <point x="974.8333333333334" y="829.7713178294573" type="line"/>
      <point x="663.2519379844962" y="48.604651162790695" type="line"/>
      <point x="698.8798449612403" y="132.3798449612403" type="line"/>
      <point x="166.3953488372093" y="1431.1046511627908" type="line"/>
      <point x="41.263565891472865" y="1430.1046511627908" type="line"/>
    </contour>
    <contour>
      <point x="997.1472868217054" y="779.2131782945736" type="line"/>
      <point x="1253.8837209302326" y="1430.1046511627908" type="line"/>
      <point x="1229.9961240310076" y="1430.1046511627908" type="line"/>
      <point x="989.937984496124" y="820.5658914728682" type="line"/>
    </contour>
  </outline>
</glyph>
<glyph name="X" format="2">
  <advance width="1230.391472868217"/>
  <unicode hex="0058"/>
  <note>
X
</note>
  <anchor x="614.1434108527131" y="11.046511627906977" name="bottom"/>
  <anchor x="614.1434108527131" y="1430.0" name="top"/>
  <outline>
    <contour>
      <point x="1043.9496124031007" y="0.0" type="line"/>
      <point x="1181.1279069767443" y="0.0" type="line"/>
      <point x="212.5503875968992" y="1430.0" type="line"/>
      <point x="75.37209302325581" y="1430.0" type="line"/>
    </contour>
    <contour>
      <point x="48.2093023255814" y="0.0" type="line"/>
      <point x="101.56201550387597" y="0.0" type="line"/>
      <point x="632.9806201550388" y="725.3139534883721" type="line"/>
      <point x="606.8837209302326" y="768.9341085271318" type="line"/>
    </contour>
    <contour>
      <point x="629.5658914728682" y="705.7984496124031" type="line"/>
      <point x="1141.8217054263566" y="1431.1046511627908" type="line"/>
      <point x="1088.8372093023256" y="1431.1046511627908" type="line"/>
      <point x="603.1007751937984" y="749.4186046511628" type="line"/>
    </contour>
  </outline>
</glyph>
<glyph name="Y" format="2">
  <advance width="1092.562015503876"/>
  <unicode hex="0059"/>
  <note>
Y
</note>
  <anchor x="557.937984496124" y="3.682170542635659" name="bottom"/>
  <anchor x="546.0968992248062" y="1430.0" name="top"/>
  <anchor x="11.631782945736433" y="1430.0" name="topleft"/>
  <outline>
    <contour>
      <point x="491.4767441860465" y="0.0" type="line"/>
      <point x="625.7131782945736" y="0.0" type="line"/>
      <point x="625.7131782945736" y="688.9496124031008" type="line"/>
      <point x="1059.2984496124031" y="1431.1046511627908" type="line"/>
      <point x="1022.8372093023256" y="1431.1046511627908" type="line"/>
      <point x="559.6279069767442" y="632.3875968992248" type="line"/>
      <point x="613.0852713178294" y="712.6240310077519" type="line"/>
      <point x="188.28682170542635" y="1431.1046511627908" type="line"/>
      <point x="32.8953488372093" y="1431.1046511627908" type="line"/>
      <point x="491.4767441860465" y="657.422480620155" type="line"/>
    </contour>
  </outline>
</glyph>
<glyph name="Z" format="2">
  <advance width="1128.9302325581396"/>
  <unicode hex="005A"/>
  <note>
Z
</note>
  <anchor x="566.4651162790698" y="11.046511627906977" name="bottom"/>
  <anchor x="566.4651162790698" y="715.0" name="center"/>
  <anchor x="566.4651162790698" y="1430.0" name="top"/>
  <outline>
    <contour>
      <point x="43.263565891472865" y="0.0" type="line"/>
      <point x="1079.6666666666667" y="0.0" type="line"/>
      <point x="1079.4031007751937" y="55.45736434108527" type="line"/>
      <point x="83.52325581395348" y="55.45736434108527" type="line"/>
      <point x="175.55426356589146" y="12.895348837209303" type="line"/>
      <point x="1059.6666666666667" y="1431.1046511627908" type="line"/>
      <point x="101.57751937984496" y="1431.1046511627908" type="line"/>
      <point x="101.57751937984496" y="1375.6472868217054" type="line"/>
      <point x="1004.9418604651163" y="1375.6472868217054" type="line"/>
      <point x="925.2713178294573" y="1415.4728682170542" type="line"/>
    </contour>
  </outline>
</glyph>
<glyph name="bracketleft" format="2">
  <advance width="543.8837209302326"/>
  <unicode hex="005B"/>
  <note>
bracketleft
</note>
  <outline>
    <contour>
      <point x="168.63178294573643" y="-401.26356589147287" type="line"/>
      <point x="504.8837209302326" y="-401.26356589147287" type="line"/>
      <point x="504.8837209302326" y="-329.5387596899225" type="line"/>
      <point x="233.30232558139534" y="-329.5387596899225" type="line"/>
      <point x="233.30232558139534" y="1391.3798449612402" type="line"/>
      <point x="504.8837209302326" y="1391.3798449612402" type="line"/>
      <point x="504.8837209302326" y="1462.7364341085272" type="line"/>
      <point x="168.63178294573643" y="1462.7364341085272" type="line"/>
    </contour>
  </outline>
</glyph>
<glyph name="bracketright" format="2">
  <advance width="543.8837209302326"/>
  <unicode hex="005D"/>
  <note>
bracketright
</note>
  <outline>
    <contour>
      <point x="39.0" y="-401.26356589147287" type="line"/>
      <point x="375.2519379844961" y="-401.26356589147287" type="line"/>
      <point x="375.2519379844961" y="1462.7364341085272" type="line"/>
      <point x="39.0" y="1462.7364341085272" type="line"/>
      <point x="39.0" y="1391.3798449612402" type="line"/>
      <point x="310.9496124031008" y="1391.3798449612402" type="line"/>
      <point x="310.9496124031008" y="-329.5387596899225" type="line"/>
      <point x="39.0" y="-329.5387596899225" type="line"/>
    </contour>
  </outline>
</glyph>
<glyph name="asciicircum" format="2">
  <advance width="938.4457364341085"/>
  <unicode hex="005E"/>
  <note>
asciicircum
</note>
  <outline>
    <contour>
      <point x="94.8953488372093" y="846.4806201550388" type="line"/>
      <point x="166.4031007751938" y="846.4806201550388" type="line"/>
      <point x="488.8217054263566" y="1415.2713178294573" type="line"/>
      <point x="448.1511627906977" y="1417.1124031007753" type="line"/>
      <point x="772.0426356589147" y="846.4806201550388" type="line"/>
      <point x="843.5503875968992" y="846.4806201550388" type="line"/>
      <point x="495.87209302325584" y="1456.6860465116279" type="line"/>
      <point x="440.5736434108527" y="1456.6860465116279" type="line"/>
    </contour>
  </outline>
</glyph>
<glyph name="underscore" format="2">
  <advance width="1260.639534883721"/>
  <unicode hex="005F"/>
  <note>
underscore
</note>
  <outline>
    <contour>
      <point x="73.73643410852713" y="-342.9922480620155" type="line"/>
      <point x="1186.9031007751937" y="-342.9922480620155" type="line"/>
      <point x="1186.9031007751937" y="-280.16279069767444" type="line"/>
      <point x="73.73643410852713" y="-280.16279069767444" type="line"/>
    </contour>
  </outline>
</glyph>
<glyph name="a" format="2">
  <advance width="1146.6046511627908"/>
  <unicode hex="0061"/>
  <note>
a
</note>
  <anchor x="516.7286821705426" y="6.259689922480618" name="bottom"/>
  <anchor x="967.6124031007752" y="0.0" name="ogonek"/>
  <anchor x="516.7286821705426" y="916.577519379845" name="top"/>
  <outline>
    <contour>
      <point x="506.6782945736434" y="-26.209302325581394" type="curve" smooth="yes"/>
      <point x="708.0426356589147" y="-26.209302325581394"/>
      <point x="856.8333333333334" y="85.15891472868218"/>
      <point x="920.0968992248062" y="267.62790697674416" type="curve"/>
      <point x="902.4186046511628" y="285.72868217054264" type="line"/>
      <point x="904.2596899224807" y="0.0" type="line"/>
      <point x="1018.9728682170543" y="0.0" type="line"/>
      <point x="1018.9728682170543" y="914.0503875968992" type="line"/>
      <point x="903.5232558139535" y="914.0503875968992" type="line"/>
      <point x="903.5232558139535" y="628.4263565891473" type="line"/>
      <point x="918.6240310077519" y="644.7906976744187" type="line"/>
      <point x="857.2015503875969" y="828.0503875968992"/>
      <point x="706.937984496124" y="943.4186046511628"/>
      <point x="505.9418604651163" y="943.4186046511628" type="curve" smooth="yes"/>
      <point x="240.2093023255814" y="943.4186046511628"/>
      <point x="51.263565891472865" y="740.7868217054264"/>
      <point x="51.263565891472865" y="455.8410852713178" type="curve" smooth="yes"/>
      <point x="51.263565891472865" y="171.8953488372093"/>
      <point x="241.31395348837208" y="-26.209302325581394"/>
    </contour>
    <contour>
      <point x="515.1472868217054" y="6.306201550387598" type="curve" smooth="yes"/>
      <point x="305.6666666666667" y="6.306201550387598"/>
      <point x="171.50387596899225" y="200.99612403100775"/>
      <point x="171.50387596899225" y="464.1046511627907" type="curve" smooth="yes"/>
      <point x="171.50387596899225" y="736.8449612403101"/>
      <point x="316.2984496124031" y="910.5348837209302"/>
      <point x="514.4108527131783" y="910.5348837209302" type="curve" smooth="yes"/>
      <point x="724.1550387596899" y="910.5348837209302"/>
      <point x="860.7906976744187" y="709.4806201550388"/>
      <point x="860.7906976744187" y="454.1046511627907" type="curve" smooth="yes"/>
      <point x="860.7906976744187" y="189.46511627906978"/>
      <point x="712.1550387596899" y="6.306201550387598"/>
    </contour>
  </outline>
</glyph>
<glyph name="b" format="2">
  <advance width="1147.3410852713178"/>
  <unicode hex="0062"/>
  <note>
b
</note>
  <anchor x="577.4069767441861" y="14.360465116279073" name="bottom"/>
  <anchor x="577.4069767441861" y="1515.4728682170542" name="top"/>
  <outline>
    <contour>
      <point x="633.6627906976744" y="-24.73643410852713" type="curve" smooth="yes"/>
      <point x="904.0271317829457" y="-24.73643410852713"/>
      <point x="1096.077519379845" y="172.36821705426357"/>
      <point x="1096.077519379845" y="456.57751937984494" type="curve" smooth="yes"/>
      <point x="1096.077519379845" y="739.7868217054264"/>
      <point x="906.1317829457364" y="942.4186046511628"/>
      <point x="634.3992248062016" y="942.4186046511628" type="curve" smooth="yes"/>
      <point x="451.4031007751938" y="942.4186046511628"/>
      <point x="311.5077519379845" y="852.4186046511628"/>
      <point x="239.7170542635659" y="702.5271317829457" type="curve"/>
      <point x="256.8178294573643" y="683.4263565891473" type="line"/>
      <point x="256.8178294573643" y="1515.4728682170542" type="line"/>
      <point x="140.26356589147287" y="1515.4728682170542" type="line"/>
      <point x="140.26356589147287" y="0.0" type="line"/>
      <point x="256.0813953488372" y="0.0" type="line"/>
      <point x="256.0813953488372" y="231.72868217054264" type="line"/>
      <point x="238.6124031007752" y="212.99612403100775" type="line"/>
      <point x="311.8759689922481" y="62.63178294573643"/>
      <point x="451.0348837209302" y="-24.73643410852713"/>
    </contour>
    <contour>
      <point x="625.1937984496124" y="7.4108527131782935" type="curve" smooth="yes"/>
      <point x="411.8178294573643" y="7.4108527131782935"/>
      <point x="272.1821705426357" y="209.56976744186045"/>
      <point x="272.1821705426357" y="465.2093023255814" type="curve" smooth="yes"/>
      <point x="272.1821705426357" y="728.8488372093024"/>
      <point x="422.8178294573643" y="909.9031007751938"/>
      <point x="625.9302325581396" y="909.9031007751938" type="curve" smooth="yes"/>
      <point x="838.0426356589147" y="909.9031007751938"/>
      <point x="977.8372093023256" y="718.5813953488372"/>
      <point x="977.8372093023256" y="454.8410852713178" type="curve" smooth="yes"/>
      <point x="977.8372093023256" y="183.10077519379846"/>
      <point x="828.6744186046511" y="7.4108527131782935"/>
    </contour>
  </outline>
</glyph>
<glyph name="c" format="2">
  <advance width="902.9302325581396"/>
  <unicode hex="0063"/>
  <note>
c
</note>
  <anchor x="460.4651162790698" y="-18.313953488372093" name="bottom"/>
  <anchor x="520.4651162790698" y="926.577519379845" name="top"/>
  <outline>
    <contour>
      <point x="521.8875968992248" y="-26.209302325581394" type="curve" smooth="yes"/>
      <point x="655.2519379844962" y="-26.209302325581394"/>
      <point x="771.8798449612403" y="20.0"/>
      <point x="855.562015503876" y="101.62790697674419" type="curve"/>
      <point x="855.562015503876" y="201.19767441860466" type="line"/>
      <point x="781.9341085271318" y="79.25193798449612"/>
      <point x="661.3062015503876" y="5.937984496124031"/>
      <point x="524.8333333333334" y="5.937984496124031" type="curve" smooth="yes"/>
      <point x="304.51162790697674" y="5.937984496124031"/>
      <point x="171.71317829457365" y="200.36434108527132"/>
      <point x="171.71317829457365" y="462.26356589147287" type="curve" smooth="yes"/>
      <point x="171.71317829457365" y="736.5813953488372"/>
      <point x="314.51162790697674" y="909.9031007751938"/>
      <point x="524.4651162790698" y="909.9031007751938" type="curve" smooth="yes"/>
      <point x="666.0426356589147" y="909.9031007751938"/>
      <point x="782.5658914728682" y="832.5891472868217"/>
      <point x="855.562015503876" y="710.6434108527131" type="curve"/>
      <point x="855.562015503876" y="811.2131782945736" type="line"/>
      <point x="772.2480620155038" y="894.8410852713179"/>
      <point x="656.2519379844962" y="942.4186046511628"/>
      <point x="522.2558139534883" y="942.4186046511628" type="curve" smooth="yes"/>
      <point x="237.68604651162792" y="942.4186046511628"/>
      <point x="51.263565891472865" y="730.8449612403101"/>
      <point x="51.263565891472865" y="453.6317829457364" type="curve" smooth="yes"/>
      <point x="51.263565891472865" y="178.52325581395348"/>
      <point x="237.05426356589146" y="-26.209302325581394"/>
    </contour>
  </outline>
</glyph>
<glyph name="d" format="2">
  <advance width="1146.9728682170542"/>
  <unicode hex="0064"/>
  <note>
d
</note>
  <anchor x="528.2480620155038" y="14.360465116279073" name="bottom"/>
  <anchor x="949.2480620155038" y="1272.3139534883721" name="center"/>
  <anchor x="574.9341085271318" y="1515.4728682170542" name="top"/>
  <anchor x="1109.562015503876" y="1515.4728682170542" name="topright"/>
  <outline>
    <contour>
      <point x="513.6782945736434" y="-24.73643410852713" type="curve" smooth="yes"/>
      <point x="696.3062015503876" y="-24.73643410852713"/>
      <point x="835.4651162790698" y="63.736434108527135"/>
      <point x="908.7286821705426" y="214.10077519379846" type="curve"/>
      <point x="890.8914728682171" y="232.83333333333331" type="line"/>
      <point x="890.8914728682171" y="0.0" type="line"/>
      <point x="1006.7093023255813" y="0.0" type="line"/>
      <point x="1006.7093023255813" y="1515.4728682170542" type="line"/>
      <point x="890.5232558139535" y="1515.4728682170542" type="line"/>
      <point x="890.5232558139535" y="683.7945736434109" type="line"/>
      <point x="907.6240310077519" y="702.8953488372093" type="line"/>
      <point x="835.8333333333334" y="852.4186046511628"/>
      <point x="695.937984496124" y="941.6821705426356"/>
      <point x="512.9418604651163" y="941.6821705426356" type="curve" smooth="yes"/>
      <point x="241.2093023255814" y="941.6821705426356"/>
      <point x="51.263565891472865" y="739.4186046511628"/>
      <point x="51.263565891472865" y="456.2093023255814" type="curve" smooth="yes"/>
      <point x="51.263565891472865" y="172.73643410852713"/>
      <point x="243.31395348837208" y="-24.73643410852713"/>
    </contour>
    <contour>
      <point x="522.1472868217054" y="7.4108527131782935" type="curve" smooth="yes"/>
      <point x="318.6666666666667" y="7.4108527131782935"/>
      <point x="169.50387596899225" y="183.8372093023256"/>
      <point x="169.50387596899225" y="454.47286821705427" type="curve" smooth="yes"/>
      <point x="169.50387596899225" y="717.4767441860465"/>
      <point x="309.2984496124031" y="909.5348837209302"/>
      <point x="521.4108527131783" y="909.5348837209302" type="curve" smooth="yes"/>
      <point x="724.1550387596899" y="909.5348837209302"/>
      <point x="874.7906976744187" y="729.2170542635658"/>
      <point x="874.7906976744187" y="465.57751937984494" type="curve" smooth="yes"/>
      <point x="874.7906976744187" y="210.67441860465115"/>
      <point x="735.1550387596899" y="7.4108527131782935"/>
    </contour>
  </outline>
</glyph>
<glyph name="e" format="2">
  <advance width="1041.7170542635658"/>
  <unicode hex="0065"/>
  <note>
e
</note>
  <anchor x="520.6744186046511" y="-13.472868217054263" name="bottom"/>
  <anchor x="668.1434108527131" y="0.0" name="ogonek"/>
  <anchor x="520.6744186046511" y="916.577519379845" name="top"/>
  <outline>
    <contour>
      <point x="519.7790697674419" y="-26.209302325581394" type="curve" smooth="yes"/>
      <point x="726.3527131782946" y="-26.209302325581394"/>
      <point x="923.0348837209302" y="84.42248062015504"/>
      <point x="976.8759689922481" y="257.21317829457365" type="curve"/>
      <point x="867.7364341085271" y="257.21317829457365" type="line"/>
      <point x="800.8914728682171" y="104.9922480620155"/>
      <point x="676.4147286821706" y="5.937984496124031"/>
      <point x="520.8837209302326" y="5.937984496124031" type="curve" smooth="yes"/>
      <point x="312.72093023255815" y="5.937984496124031"/>
      <point x="171.34496124031008" y="190.6201550387597"/>
      <point x="171.34496124031008" y="455.1046511627907" type="curve" smooth="yes"/>
      <point x="171.34496124031008" y="740.8488372093024"/>
      <point x="324.1395348837209" y="909.5348837209302"/>
      <point x="519.7790697674419" y="909.5348837209302" type="curve" smooth="yes"/>
      <point x="695.6821705426356" y="909.5348837209302"/>
      <point x="850.7945736434109" y="773.4263565891473"/>
      <point x="877.7945736434109" y="500.00387596899225" type="curve"/>
      <point x="1000.453488372093" y="500.00387596899225" type="line"/>
      <point x="976.1395348837209" y="785.4186046511628"/>
      <point x="753.0891472868217" y="942.4186046511628"/>
      <point x="518.6744186046511" y="942.4186046511628" type="curve" smooth="yes"/>
      <point x="240.0503875968992" y="942.4186046511628"/>
      <point x="51.263565891472865" y="719.5232558139535"/>
      <point x="51.263565891472865" y="447.3139534883721" type="curve" smooth="yes"/>
      <point x="51.263565891472865" y="157.63178294573643"/>
      <point x="252.68217054263565" y="-26.209302325581394"/>
    </contour>
    <contour>
      <point x="149.86821705426357" y="499.6356589147287" type="line"/>
      <point x="932.7209302325581" y="500.00387596899225" type="line"/>
      <point x="933.0891472868217" y="524.3643410852713" type="line"/>
      <point x="137.7170542635659" y="524.3643410852713" type="line"/>
    </contour>
  </outline>
</glyph>
<glyph name="f" format="2">
  <advance width="483.22093023255815"/>
  <unicode hex="0066"/>
  <note>
f
</note>
  <anchor x="242.29457364341084" y="14.360465116279073" name="bottom"/>
  <anchor x="242.29457364341084" y="1515.4728682170542" name="top"/>
  <outline>
    <contour>
      <point x="168.8410852713178" y="0.0" type="line"/>
      <point x="284.65891472868213" y="0.0" type="line"/>
      <point x="284.65891472868213" y="1133.2751937984497" type="line" smooth="yes"/>
      <point x="284.65891472868213" y="1401.0736434108528"/>
      <point x="291.3527131782946" y="1502.5348837209303"/>
      <point x="385.29457364341084" y="1502.5348837209303" type="curve" smooth="yes"/>
      <point x="438.08527131782944" y="1494.5348837209303"/>
      <point x="484.55426356589146" y="1452.4806201550387"/>
      <point x="484.55426356589146" y="1369.2209302325582" type="curve" smooth="yes"/>
      <point x="484.55426356589146" y="1344.484496124031"/>
      <point x="479.92248062015506" y="1312.7480620155038"/>
      <point x="472.1860465116279" y="1289.3294573643411" type="curve"/>
      <point x="544.2790697674418" y="1289.3294573643411" type="line"/>
      <point x="552.7519379844962" y="1335.6434108527133"/>
      <point x="555.3837209302326" y="1374.1666666666667"/>
      <point x="555.3837209302326" y="1396.2713178294573" type="curve" smooth="yes"/>
      <point x="555.3837209302326" y="1492.1046511627908"/>
      <point x="481.7093023255814" y="1537.2596899224807"/>
      <point x="373.1395348837209" y="1537.2596899224807" type="curve" smooth="yes"/>
      <point x="211.30232558139534" y="1537.2596899224807"/>
      <point x="168.8410852713178" y="1382.515503875969"/>
      <point x="168.8410852713178" y="1151.6860465116279" type="curve" smooth="yes"/>
    </contour>
    <contour>
      <point x="27.0" y="875.3294573643411" type="line"/>
      <point x="438.968992248062" y="875.3294573643411" type="line"/>
      <point x="438.968992248062" y="904.8449612403101" type="line"/>
      <point x="27.0" y="904.8449612403101" type="line"/>
    </contour>
  </outline>
</glyph>
<glyph name="g" format="2">
  <advance width="1159.5503875968993"/>
  <unicode hex="0067"/>
  <note>
g
</note>
  <anchor x="570.7751937984497" y="-511.6395348837209" name="bottom"/>
  <anchor x="526.7248062015503" y="916.577519379845" name="top"/>
  <outline>
    <contour>
      <point x="532.4573643410853" y="-580.6821705426356" type="curve" smooth="yes"/>
      <point x="930.7131782945737" y="-580.6821705426356"/>
      <point x="1018.2868217054264" y="-269.5813953488372"/>
      <point x="1019.2868217054264" y="126.25968992248062" type="curve" smooth="yes"/>
      <point x="1022.2868217054264" y="914.0503875968992" type="line"/>
      <point x="906.8372093023256" y="914.0503875968992" type="line"/>
      <point x="906.8372093023256" y="648.3100775193799" type="line"/>
      <point x="918.2558139534883" y="660.9922480620155" type="line"/>
      <point x="853.5193798449612" y="832.8372093023256"/>
      <point x="703.6240310077519" y="942.4186046511628"/>
      <point x="507.41472868217056" y="942.4186046511628" type="curve" smooth="yes"/>
      <point x="240.94573643410854" y="942.4186046511628"/>
      <point x="51.263565891472865" y="740.7868217054264"/>
      <point x="51.263565891472865" y="455.8410852713178" type="curve" smooth="yes"/>
      <point x="51.263565891472865" y="171.8953488372093"/>
      <point x="242.41860465116278" y="-26.57751937984496"/>
      <point x="508.51937984496124" y="-26.57751937984496" type="curve" smooth="yes"/>
      <point x="703.2558139534883" y="-26.57751937984496"/>
      <point x="852.046511627907" y="75.95348837209302"/>
      <point x="917.8875968992248" y="248.48062015503876" type="curve"/>
      <point x="905.7325581395348" y="261.79457364341084" type="line"/>
      <point x="907.2054263565891" y="120.36821705426357" type="line"/>
      <point x="907.2054263565891" y="-344.06201550387595"/>
      <point x="810.7286821705426" y="-551.1666666666666"/>
      <point x="516.6162790697674" y="-551.1666666666666" type="curve" smooth="yes"/>
      <point x="296.2984496124031" y="-551.1666666666666"/>
      <point x="216.76356589147287" y="-447.4263565891473"/>
      <point x="183.81782945736433" y="-317.7403100775194" type="curve"/>
      <point x="76.31395348837209" y="-317.7403100775194" type="line"/>
      <point x="154.25581395348837" y="-559.0503875968992"/>
      <point x="407.51937984496124" y="-580.6821705426356"/>
    </contour>
    <contour>
      <point x="514.7790697674419" y="5.937984496124031" type="curve" smooth="yes"/>
      <point x="305.6666666666667" y="5.937984496124031"/>
      <point x="171.87209302325581" y="201.36434108527132"/>
      <point x="171.87209302325581" y="464.1046511627907" type="curve" smooth="yes"/>
      <point x="171.87209302325581" y="736.8449612403101"/>
      <point x="316.2984496124031" y="909.5348837209302"/>
      <point x="514.0426356589147" y="909.5348837209302" type="curve" smooth="yes"/>
      <point x="723.4186046511628" y="909.5348837209302"/>
      <point x="860.0542635658915" y="709.4806201550388"/>
      <point x="860.0542635658915" y="454.1046511627907" type="curve" smooth="yes"/>
      <point x="860.0542635658915" y="189.46511627906978"/>
      <point x="711.7868217054264" y="5.937984496124031"/>
    </contour>
  </outline>
</glyph>
<glyph name="h" format="2">
  <advance width="1072.5542635658915"/>
  <unicode hex="0068"/>
  <note>
h
</note>
  <anchor x="545.3565891472869" y="0.0" name="bottom"/>
  <anchor x="202.67054263565893" y="1253.3139534883721" name="center"/>
  <anchor x="545.3565891472869" y="1515.4728682170542" name="top"/>
  <outline>
    <contour>
      <point x="140.26356589147287" y="0.0" type="line"/>
      <point x="258.6589147286822" y="0.0" type="line"/>
      <point x="258.6589147286822" y="614.577519379845" type="line" smooth="yes"/>
      <point x="258.6589147286822" y="761.2713178294574"/>
      <point x="414.9263565891473" y="910.1666666666666"/>
      <point x="607.7248062015503" y="910.1666666666666" type="curve" smooth="yes"/>
      <point x="772.2093023255813" y="910.1666666666666"/>
      <point x="852.5271317829457" y="798.5852713178294"/>
      <point x="852.5271317829457" y="533.1085271317829" type="curve" smooth="yes"/>
      <point x="852.5271317829457" y="0.0" type="line"/>
      <point x="970.922480620155" y="0.0" type="line"/>
      <point x="970.922480620155" y="544.1007751937984" type="line" smooth="yes"/>
      <point x="970.922480620155" y="811.4728682170543"/>
      <point x="838.2945736434109" y="942.0503875968992"/>
      <point x="630.2441860465117" y="942.0503875968992" type="curve" smooth="yes"/>
      <point x="432.8759689922481" y="942.0503875968992"/>
      <point x="266.13565891472865" y="827.468992248062"/>
      <point x="239.98062015503876" y="640.1550387596899" type="curve"/>
      <point x="257.92248062015506" y="612.968992248062" type="line"/>
      <point x="258.6589147286822" y="1515.4728682170542" type="line"/>
      <point x="140.26356589147287" y="1515.4728682170542" type="line"/>
    </contour>
  </outline>
</glyph>
<glyph name="k" format="2">
  <advance width="913.4922480620155"/>
  <unicode hex="006B"/>
  <note>
k
</note>
  <anchor x="483.3992248062016" y="0.0" name="bottom"/>
  <anchor x="475.2984496124031" y="1515.4728682170542" name="top"/>
  <outline>
    <contour>
      <point x="140.26356589147287" y="0.0" type="line"/>
      <point x="262.0813953488372" y="0.0" type="line"/>
      <point x="262.0813953488372" y="1515.4728682170542" type="line"/>
      <point x="140.26356589147287" y="1515.4728682170542" type="line"/>
    </contour>
    <contour>
      <point x="775.6201550387597" y="0.0" type="line"/>
      <point x="914.2286821705426" y="0.0" type="line"/>
      <point x="398.5387596899225" y="555.0503875968992" type="line"/>
      <point x="324.44573643410854" y="479.32945736434107" type="line"/>
    </contour>
    <contour>
      <point x="224.4031007751938" y="390.9108527131783" type="line"/>
      <point x="783.2829457364342" y="914.0503875968992" type="line"/>
      <point x="724.5116279069767" y="914.0503875968992" type="line"/>
      <point x="240.28682170542635" y="468.82945736434107" type="line"/>
    </contour>
  </outline>
</glyph>
<glyph name="m" format="2">
  <advance width="1703.9302325581396"/>
  <unicode hex="006D"/>
  <note>
m
</note>
  <anchor x="853.4651162790698" y="0.0" name="bottom"/>
  <anchor x="853.4651162790698" y="916.577519379845" name="top"/>
  <outline>
    <contour>
      <point x="127.26356589147287" y="0.0" type="line"/>
      <point x="244.92248062015503" y="0.0" type="line"/>
      <point x="244.92248062015503" y="614.577519379845" type="line" smooth="yes"/>
      <point x="244.92248062015503" y="760.5348837209302"/>
      <point x="393.3488372093023" y="910.1666666666666"/>
      <point x="573.7286821705426" y="910.1666666666666" type="curve" smooth="yes"/>
      <point x="731.3178294573644" y="910.1666666666666"/>
      <point x="806.2674418604652" y="795.6395348837209"/>
      <point x="806.2674418604652" y="525.0077519379845" type="curve" smooth="yes"/>
      <point x="806.2674418604652" y="0.0" type="line"/>
      <point x="923.9263565891473" y="0.0" type="line"/>
      <point x="922.9263565891473" y="614.577519379845" type="line" smooth="yes"/>
      <point x="922.9263565891473" y="750.5348837209302"/>
      <point x="1066.984496124031" y="910.5348837209302"/>
      <point x="1247.7325581395348" y="910.5348837209302" type="curve" smooth="yes"/>
      <point x="1405.953488372093" y="910.5348837209302"/>
      <point x="1484.0077519379845" y="796.0077519379845"/>
      <point x="1484.0077519379845" y="525.0077519379845" type="curve" smooth="yes"/>
      <point x="1484.0077519379845" y="0.0" type="line"/>
      <point x="1601.6666666666667" y="0.0" type="line"/>
      <point x="1601.6666666666667" y="532.6860465116279" type="line" smooth="yes"/>
      <point x="1601.6666666666667" y="808.5271317829457"/>
      <point x="1473.9341085271317" y="942.4186046511628"/>
      <point x="1269.1472868217054" y="942.4186046511628" type="curve" smooth="yes"/>
      <point x="1088.0387596899225" y="942.4186046511628"/>
      <point x="923.8759689922481" y="826.2054263565891"/>
      <point x="901.7209302325581" y="643.6821705426356" type="curve"/>
      <point x="914.0852713178294" y="646.3100775193799" type="line"/>
      <point x="882.6666666666666" y="846.0503875968992"/>
      <point x="769.5116279069767" y="942.4186046511628"/>
      <point x="594.1434108527131" y="942.4186046511628" type="curve" smooth="yes"/>
      <point x="426.98062015503876" y="942.4186046511628"/>
      <point x="271.4496124031008" y="850.4147286821706"/>
      <point x="235.39922480620154" y="686.8333333333334" type="curve"/>
      <point x="244.55426356589146" y="676.7286821705426" type="line"/>
      <point x="244.92248062015503" y="914.0503875968992" type="line"/>
      <point x="127.26356589147287" y="914.0503875968992" type="line"/>
    </contour>
  </outline>
</glyph>
<glyph name="n" format="2">
  <advance width="1059.1860465116279"/>
  <unicode hex="006E"/>
  <note>
n
</note>
  <anchor x="512.9883720930233" y="0.0" name="bottom"/>
  <anchor x="512.9883720930233" y="916.577519379845" name="top"/>
  <outline>
    <contour>
      <point x="127.63178294573643" y="0.0" type="line"/>
      <point x="245.65891472868216" y="0.0" type="line"/>
      <point x="245.65891472868216" y="614.577519379845" type="line" smooth="yes"/>
      <point x="245.65891472868216" y="761.2713178294574"/>
      <point x="401.9263565891473" y="910.9031007751938"/>
      <point x="594.7248062015503" y="910.9031007751938" type="curve" smooth="yes"/>
      <point x="759.2093023255813" y="910.9031007751938"/>
      <point x="839.5271317829457" y="798.5852713178294"/>
      <point x="839.5271317829457" y="533.1085271317829" type="curve" smooth="yes"/>
      <point x="839.5271317829457" y="0.0" type="line"/>
      <point x="957.5542635658915" y="0.0" type="line"/>
      <point x="957.5542635658915" y="543.7325581395348" type="line" smooth="yes"/>
      <point x="957.5542635658915" y="811.4728682170543"/>
      <point x="825.2945736434109" y="942.4186046511628"/>
      <point x="617.2441860465117" y="942.4186046511628" type="curve" smooth="yes"/>
      <point x="421.34883720930236" y="942.4186046511628"/>
      <point x="255.71317829457365" y="829.6782945736434"/>
      <point x="226.98062015503876" y="640.1550387596899" type="curve"/>
      <point x="244.92248062015503" y="613.3372093023256" type="line"/>
      <point x="245.65891472868216" y="914.0503875968992" type="line"/>
      <point x="127.63178294573643" y="914.0503875968992" type="line"/>
    </contour>
  </outline>
</glyph>
<glyph name="o" format="2">
  <advance width="1057.1899224806202"/>
  <unicode hex="006F"/>
  <note>
o
</note>
  <anchor x="528.7790697674419" y="6.259689922480618" name="bottom"/>
  <anchor x="528.7790697674419" y="458.1046511627907" name="center"/>
  <anchor x="673.1434108527131" y="0.0" name="ogonek"/>
  <anchor x="528.7790697674419" y="916.577519379845" name="top"/>
  <anchor x="1010.1899224806201" y="916.577519379845" name="topright"/>
  <outline>
    <contour>
      <point x="527.7790697674419" y="-26.209302325581394" type="curve" smooth="yes"/>
      <point x="808.6666666666666" y="-26.209302325581394"/>
      <point x="1005.9263565891473" y="170.15891472868216"/>
      <point x="1005.9263565891473" y="456.2093023255814" type="curve" smooth="yes"/>
      <point x="1005.9263565891473" y="740.5232558139535"/>
      <point x="809.6666666666666" y="942.4186046511628"/>
      <point x="527.7790697674419" y="942.4186046511628" type="curve" smooth="yes"/>
      <point x="246.52325581395348" y="942.4186046511628"/>
      <point x="51.263565891472865" y="741.1550387596899"/>
      <point x="51.263565891472865" y="456.2093023255814" type="curve" smooth="yes"/>
      <point x="51.263565891472865" y="171.52713178294573"/>
      <point x="245.89147286821705" y="-26.209302325581394"/>
    </contour>
    <contour>
      <point x="527.7790697674419" y="5.937984496124031" type="curve" smooth="yes"/>
      <point x="313.7170542635659" y="5.937984496124031"/>
      <point x="173.55426356589146" y="206.25581395348837"/>
      <point x="173.55426356589146" y="463.73643410852713" type="curve" smooth="yes"/>
      <point x="173.55426356589146" y="729.953488372093"/>
      <point x="322.98062015503876" y="910.2713178294574"/>
      <point x="527.7790697674419" y="910.2713178294574" type="curve" smooth="yes"/>
      <point x="741.9457364341085" y="910.2713178294574"/>
      <point x="884.3720930232558" y="711.5852713178294"/>
      <point x="884.3720930232558" y="455.2093023255814" type="curve" smooth="yes"/>
      <point x="884.3720930232558" y="189.72868217054264"/>
      <point x="730.4728682170543" y="5.937984496124031"/>
    </contour>
  </outline>
</glyph>
<glyph name="p" format="2">
  <advance width="1150.2868217054263"/>
  <unicode hex="0070"/>
  <note>
p
</note>
  <anchor x="576.2480620155038" y="14.360465116279073" name="bottom"/>
  <anchor x="576.2480620155038" y="916.577519379845" name="top"/>
  <outline>
    <contour>
      <point x="140.26356589147287" y="-600.0" type="line"/>
      <point x="256.8178294573643" y="-600.0" type="line"/>
      <point x="256.8178294573643" y="232.7829457364341" type="line"/>
      <point x="239.34883720930233" y="213.68217054263567" type="line"/>
      <point x="311.5077519379845" y="63.7906976744186"/>
      <point x="452.1395348837209" y="-26.209302325581394"/>
      <point x="635.8720930232558" y="-26.209302325581394" type="curve" smooth="yes"/>
      <point x="908.3410852713179" y="-26.209302325581394"/>
      <point x="1099.0232558139535" y="176.42248062015503"/>
      <point x="1099.0232558139535" y="459.6317829457364" type="curve" smooth="yes"/>
      <point x="1099.0232558139535" y="744.577519379845"/>
      <point x="906.2364341085272" y="942.4186046511628"/>
      <point x="635.1356589147287" y="942.4186046511628" type="curve" smooth="yes"/>
      <point x="451.77131782945736" y="942.4186046511628"/>
      <point x="311.8759689922481" y="854.3139534883721"/>
      <point x="238.24418604651163" y="703.5813953488372" type="curve"/>
      <point x="256.0813953488372" y="685.2170542635658" type="line"/>
      <point x="256.0813953488372" y="914.0503875968992" type="line"/>
      <point x="140.26356589147287" y="914.0503875968992" type="line"/>
    </contour>
    <contour>
      <point x="627.4031007751938" y="6.306201550387598" type="curve" smooth="yes"/>
      <point x="423.55426356589146" y="6.306201550387598"/>
      <point x="272.1821705426357" y="187.36046511627907"/>
      <point x="272.1821705426357" y="451.3682170542636" type="curve" smooth="yes"/>
      <point x="272.1821705426357" y="707.3759689922481"/>
      <point x="412.55426356589146" y="909.9031007751938"/>
      <point x="626.6666666666666" y="909.9031007751938" type="curve" smooth="yes"/>
      <point x="831.2519379844962" y="909.9031007751938"/>
      <point x="980.7829457364342" y="733.4767441860465"/>
      <point x="980.7829457364342" y="461.73643410852713" type="curve" smooth="yes"/>
      <point x="980.7829457364342" y="197.99612403100775"/>
      <point x="840.6201550387597" y="6.306201550387598"/>
    </contour>
  </outline>
</glyph>
<glyph name="q" format="2">
  <advance width="1137.65503875969"/>
  <unicode hex="0071"/>
  <note>
q
</note>
  <anchor x="565.7751937984497" y="14.360465116279073" name="bottom"/>
  <anchor x="565.7751937984497" y="916.577519379845" name="top"/>
  <outline>
    <contour>
      <point x="893.468992248062" y="-600.0" type="line"/>
      <point x="1010.0232558139535" y="-600.0" type="line"/>
      <point x="1010.0232558139535" y="914.0503875968992" type="line"/>
      <point x="894.2054263565891" y="914.0503875968992" type="line"/>
      <point x="894.2054263565891" y="684.4806201550388" type="line"/>
      <point x="912.0426356589147" y="703.2131782945736" type="line"/>
      <point x="838.4108527131783" y="853.9457364341085"/>
      <point x="698.515503875969" y="942.4186046511628"/>
      <point x="515.1511627906976" y="942.4186046511628" type="curve" smooth="yes"/>
      <point x="244.0503875968992" y="942.4186046511628"/>
      <point x="51.263565891472865" y="743.8410852713179"/>
      <point x="51.263565891472865" y="459.6317829457364" type="curve" smooth="yes"/>
      <point x="51.263565891472865" y="176.42248062015503"/>
      <point x="241.94573643410854" y="-26.209302325581394"/>
      <point x="514.4147286821706" y="-26.209302325581394" type="curve" smooth="yes"/>
      <point x="698.1472868217054" y="-26.209302325581394"/>
      <point x="838.7790697674419" y="63.7906976744186"/>
      <point x="910.937984496124" y="214.0503875968992" type="curve"/>
      <point x="893.468992248062" y="232.7829457364341" type="line"/>
    </contour>
    <contour>
      <point x="522.8837209302326" y="6.306201550387598" type="curve" smooth="yes"/>
      <point x="309.6666666666667" y="6.306201550387598"/>
      <point x="169.50387596899225" y="197.99612403100775"/>
      <point x="169.50387596899225" y="461.73643410852713" type="curve" smooth="yes"/>
      <point x="169.50387596899225" y="733.1085271317829"/>
      <point x="319.0348837209302" y="909.9031007751938"/>
      <point x="523.6201550387597" y="909.9031007751938" type="curve" smooth="yes"/>
      <point x="738.1007751937984" y="909.9031007751938"/>
      <point x="878.1046511627907" y="706.6395348837209"/>
      <point x="878.1046511627907" y="451.3682170542636" type="curve" smooth="yes"/>
      <point x="878.1046511627907" y="187.36046511627907"/>
      <point x="726.7325581395348" y="6.306201550387598"/>
    </contour>
  </outline>
</glyph>
<glyph name="r" format="2">
  <advance width="772.9186046511628"/>
  <unicode hex="0072"/>
  <note>
r
</note>
  <anchor x="159.61627906976744" y="0.0" name="bottom"/>
  <anchor x="486.92248062015506" y="916.577519379845" name="top"/>
  <outline>
    <contour>
      <point x="127.26356589147287" y="0.0" type="line"/>
      <point x="245.65891472868216" y="0.0" type="line"/>
      <point x="245.65891472868216" y="558.6860465116279" type="line" smooth="yes"/>
      <point x="245.65891472868216" y="756.7984496124031"/>
      <point x="343.66279069767444" y="909.1666666666666"/>
      <point x="485.87984496124034" y="909.1666666666666" type="curve" smooth="yes"/>
      <point x="574.9922480620155" y="909.1666666666666"/>
      <point x="660.7751937984497" y="855.7945736434109"/>
      <point x="654.1472868217054" y="753.484496124031" type="curve" smooth="yes"/>
      <point x="653.7790697674419" y="730.2209302325582"/>
      <point x="647.3062015503876" y="695.6937984496124"/>
      <point x="634.937984496124" y="672.9031007751938" type="curve"/>
      <point x="719.3410852713179" y="648.7480620155038" type="line"/>
      <point x="745.8643410852713" y="686.953488372093"/>
      <point x="759.2868217054264" y="734.0"/>
      <point x="759.2868217054264" y="768.6860465116279" type="curve" smooth="yes"/>
      <point x="759.2868217054264" y="888.046511627907"/>
      <point x="624.7170542635658" y="942.4186046511628"/>
      <point x="512.031007751938" y="942.4186046511628" type="curve" smooth="yes"/>
      <point x="349.5077519379845" y="942.4186046511628"/>
      <point x="245.55426356589146" y="832.6279069767442"/>
      <point x="211.29457364341084" y="551.2635658914728" type="curve"/>
      <point x="244.92248062015503" y="587.4418604651163" type="line"/>
      <point x="245.65891472868216" y="914.0503875968992" type="line"/>
      <point x="127.26356589147287" y="914.0503875968992" type="line"/>
    </contour>
  </outline>
</glyph>
<glyph name="s" format="2">
  <advance width="774.8217054263566"/>
  <unicode hex="0073"/>
  <note>
s
</note>
  <anchor x="360.984496124031" y="-16.686046511627907" name="bottom"/>
  <anchor x="379.4108527131783" y="915.1046511627907" name="top"/>
  <outline>
    <contour>
      <point x="380.7248062015504" y="-25.1046511627907" type="curve" smooth="yes"/>
      <point x="596.6124031007752" y="-24.73643410852713"/>
      <point x="727.5581395348837" y="72.21317829457365"/>
      <point x="730.1899224806201" y="247.68217054263567" type="curve" smooth="yes"/>
      <point x="733.1899224806201" y="469.2015503875969"/>
      <point x="477.4612403100775" y="520.4147286821706"/>
      <point x="407.5658914728682" y="537.7829457364342" type="curve" smooth="yes"/>
      <point x="200.0891472868217" y="589.046511627907"/>
      <point x="167.61627906976744" y="642.4728682170543"/>
      <point x="167.61627906976744" y="714.9496124031008" type="curve" smooth="yes"/>
      <point x="167.61627906976744" y="882.2713178294574"/>
      <point x="315.14728682170545" y="906.9573643410853"/>
      <point x="401.0968992248062" y="907.3255813953489" type="curve" smooth="yes"/>
      <point x="553.6240310077519" y="907.3255813953489"/>
      <point x="598.8294573643411" y="826.5852713178294"/>
      <point x="671.7170542635658" y="745.5348837209302" type="curve"/>
      <point x="672.3488372093024" y="838.8410852713179" type="line"/>
      <point x="614.1434108527131" y="899.3139534883721"/>
      <point x="540.0387596899225" y="942.4186046511628"/>
      <point x="402.4651162790698" y="942.4186046511628" type="curve" smooth="yes"/>
      <point x="251.36434108527132" y="942.0503875968992"/>
      <point x="75.8953488372093" y="900.3643410852713"/>
      <point x="76.26356589147287" y="699.7403100775193" type="curve" smooth="yes"/>
      <point x="76.63178294573643" y="600.4806201550388"/>
      <point x="136.78682170542635" y="510.531007751938"/>
      <point x="356.5232558139535" y="445.4263565891473" type="curve" smooth="yes"/>
      <point x="460.47286821705427" y="414.4263565891473"/>
      <point x="628.0503875968992" y="402.0503875968992"/>
      <point x="625.0503875968992" y="227.78682170542635" type="curve" smooth="yes"/>
      <point x="623.0503875968992" y="103.04651162790698"/>
      <point x="519.7403100775193" y="14.093023255813954"/>
      <point x="376.515503875969" y="14.093023255813954" type="curve" smooth="yes"/>
      <point x="225.515503875969" y="13.724806201550386"/>
      <point x="132.46511627906978" y="82.83333333333333"/>
      <point x="48.0" y="191.8294573643411" type="curve"/>
      <point x="47.736434108527135" y="79.94573643410853" type="line"/>
      <point x="109.62790697674419" y="17.054263565891475"/>
      <point x="235.10077519379846" y="-25.472868217054263"/>
    </contour>
  </outline>
</glyph>
<glyph name="t" format="2">
  <advance width="444.19767441860466"/>
  <unicode hex="0074"/>
  <note>
t
</note>
  <anchor x="239.51937984496124" y="-10.0" name="bottom"/>
  <anchor x="207.25193798449612" y="567.8527131782946" name="center"/>
  <anchor x="229.51937984496124" y="916.577519379845" name="top"/>
  <anchor x="420.7248062015504" y="1279.891472868217" name="topright"/>
  <outline>
    <contour>
      <point x="275.468992248062" y="-18.73643410852713" type="curve" smooth="yes"/>
      <point x="330.72868217054264" y="-18.73643410852713"/>
      <point x="405.30232558139534" y="-0.2635658914728687"/>
      <point x="420.5658914728682" y="8.209302325581396" type="curve"/>
      <point x="420.5658914728682" y="53.98837209302326" type="line"/>
      <point x="379.31007751937983" y="35.0968992248062"/>
      <point x="327.6240310077519" y="13.779069767441861"/>
      <point x="295.2519379844961" y="13.779069767441861" type="curve" smooth="yes"/>
      <point x="246.40697674418604" y="13.779069767441861"/>
      <point x="253.08914728682169" y="60.93798449612403"/>
      <point x="253.08914728682169" y="264.44573643410854" type="curve" smooth="yes"/>
      <point x="253.08914728682169" y="886.3759689922481" type="line"/>
      <point x="378.36046511627904" y="886.3759689922481" type="line"/>
      <point x="378.36046511627904" y="915.1550387596899" type="line"/>
      <point x="253.08914728682169" y="915.1550387596899" type="line"/>
      <point x="253.08914728682169" y="1204.3643410852712" type="line"/>
      <point x="215.7829457364341" y="1204.3643410852712" type="line"/>
      <point x="223.515503875969" y="957.4612403100775"/>
      <point x="157.37209302325581" y="913.7868217054264"/>
      <point x="36.0" y="915.1550387596899" type="curve"/>
      <point x="36.0" y="886.3759689922481" type="line"/>
      <point x="142.0581395348837" y="886.3759689922481" type="line"/>
      <point x="142.0581395348837" y="243.68217054263565" type="line" smooth="yes"/>
      <point x="142.0581395348837" y="63.42635658914729"/>
      <point x="158.31395348837208" y="-18.73643410852713"/>
    </contour>
  </outline>
</glyph>
<glyph name="u" format="2">
  <advance width="1038.0813953488373"/>
  <unicode hex="0075"/>
  <note>
u
</note>
  <anchor x="480.0968992248062" y="3.3139534883720927" name="bottom"/>
  <anchor x="859.6162790697674" y="0.0" name="ogonek"/>
  <anchor x="514.8837209302326" y="918.4186046511628" name="top"/>
  <anchor x="1053.9767441860465" y="918.4186046511628" name="topright"/>
  <outline>
    <contour>
      <point x="447.36046511627904" y="-17.631782945736433" type="curve" smooth="yes"/>
      <point x="663.6279069767442" y="-17.631782945736433"/>
      <point x="776.8953488372093" y="121.31395348837209"/>
      <point x="805.2093023255813" y="342.11240310077517" type="curve"/>
      <point x="793.7906976744187" y="359.9263565891473" type="line"/>
      <point x="793.422480620155" y="0.0" type="line"/>
      <point x="911.0813953488372" y="0.0" type="line"/>
      <point x="911.0813953488372" y="914.0503875968992" type="line"/>
      <point x="793.422480620155" y="914.0503875968992" type="line"/>
      <point x="793.422480620155" y="474.9031007751938" type="line" smooth="yes"/>
      <point x="793.422480620155" y="215.46511627906978"/>
      <point x="690.577519379845" y="13.515503875968989"/>
      <point x="462.14728682170545" y="13.515503875968989" type="curve" smooth="yes"/>
      <point x="290.87209302325584" y="13.515503875968989"/>
      <point x="220.2906976744186" y="110.25581395348837"/>
      <point x="220.2906976744186" y="400.6744186046512" type="curve" smooth="yes"/>
      <point x="220.2906976744186" y="914.0503875968992" type="line"/>
      <point x="102.26356589147287" y="914.0503875968992" type="line"/>
      <point x="102.26356589147287" y="374.468992248062" type="line" smooth="yes"/>
      <point x="102.26356589147287" y="94.78682170542636"/>
      <point x="215.04651162790697" y="-17.631782945736433"/>
    </contour>
  </outline>
</glyph>
<glyph name="v" format="2">
  <advance width="952.7131782945737"/>
  <unicode hex="0076"/>
  <note>
v
</note>
  <anchor x="476.35658914728685" y="14.360465116279073" name="bottom"/>
  <anchor x="476.35658914728685" y="916.577519379845" name="top"/>
  <outline>
    <contour>
      <point x="469.88759689922483" y="-15.631782945736434" type="line"/>
      <point x="493.4573643410853" y="-15.631782945736434" type="line"/>
      <point x="939.2403100775193" y="914.0503875968992" type="line"/>
      <point x="903.0426356589147" y="914.0503875968992" type="line"/>
      <point x="500.77131782945736" y="69.6046511627907" type="line"/>
      <point x="530.6124031007752" y="104.87209302325581" type="line"/>
      <point x="135.2906976744186" y="914.0503875968992" type="line"/>
      <point x="13.472868217054263" y="914.0503875968992" type="line"/>
    </contour>
  </outline>
</glyph>
<glyph name="w" format="2">
  <advance width="1447.8023255813953"/>
  <unicode hex="0077"/>
  <note>
w
</note>
  <anchor x="725.0852713178294" y="0.0" name="bottom"/>
  <anchor x="725.0852713178294" y="918.4186046511628" name="top"/>
  <outline>
    <contour>
      <point x="988.1899224806201" y="-17.1046511627907" type="line"/>
      <point x="1012.1279069767442" y="-17.1046511627907" type="line"/>
      <point x="1434.5387596899225" y="914.4186046511628" type="line"/>
      <point x="1397.6046511627908" y="914.4186046511628" type="line"/>
      <point x="1022.4922480620155" y="75.75968992248062" type="line"/>
      <point x="1052.9651162790697" y="105.97674418604652" type="line"/>
      <point x="677.6472868217054" y="914.0503875968992" type="line"/>
      <point x="558.0930232558139" y="914.4186046511628" type="line"/>
    </contour>
    <contour>
      <point x="443.3604651162791" y="-17.1046511627907" type="line"/>
      <point x="467.2984496124031" y="-17.1046511627907" type="line"/>
      <point x="752.1317829457364" y="624.9341085271318" type="line"/>
      <point x="733.9806201550388" y="663.6589147286821" type="line"/>
      <point x="476.18992248062017" y="75.75968992248062" type="line"/>
      <point x="501.5077519379845" y="105.97674418604652" type="line"/>
      <point x="132.81782945736433" y="914.0503875968992" type="line"/>
      <point x="13.263565891472865" y="914.4186046511628" type="line"/>
    </contour>
    <contour>
      <point x="770.0232558139535" y="634.5077519379845" type="line"/>
      <point x="897.2906976744187" y="914.4186046511628" type="line"/>
      <point x="859.6201550387597" y="914.4186046511628" type="line"/>
      <point x="742.6666666666666" y="656.2945736434109" type="line"/>
    </contour>
  </outline>
</glyph>
<glyph name="x" format="2">
  <advance width="830.077519379845"/>
  <unicode hex="0078"/>
  <note>
x
</note>
  <anchor x="414.0387596899225" y="14.360465116279073" name="bottom"/>
  <anchor x="414.0387596899225" y="916.577519379845" name="top"/>
  <outline>
    <contour>
      <point x="663.577519379845" y="0.0" type="line"/>
      <point x="794.8139534883721" y="0.0" type="line"/>
      <point x="186.02713178294573" y="914.0503875968992" type="line"/>
      <point x="54.79069767441861" y="914.0503875968992" type="line"/>
    </contour>
    <contour>
      <point x="30.259689922480618" y="0.0" type="line"/>
      <point x="81.6124031007752" y="0.0" type="line"/>
      <point x="420.0891472868217" y="445.2170542635659" type="line"/>
      <point x="402.35658914728685" y="491.7829457364341" type="line"/>
    </contour>
    <contour>
      <point x="428.77131782945736" y="446.79457364341084" type="line"/>
      <point x="795.3410852713179" y="914.0503875968992" type="line"/>
      <point x="739.3565891472869" y="914.0503875968992" type="line"/>
      <point x="415.62015503875966" y="497.20542635658916" type="line"/>
    </contour>
  </outline>
</glyph>
<glyph name="y" format="2">
  <advance width="943.8759689922481"/>
  <unicode hex="0079"/>
  <note>
y
</note>
  <anchor x="585.9302325581396" y="0.0" name="bottom"/>
  <anchor x="481.14341085271315" y="918.4186046511628" name="top"/>
  <outline>
    <contour>
      <point x="209.2015503875969" y="-552.4186046511628" type="curve" smooth="yes"/>
      <point x="292.56201550387595" y="-552.4186046511628"/>
      <point x="328.98062015503876" y="-477.48062015503876"/>
      <point x="371.7170542635659" y="-358.7984496124031" type="curve" smooth="yes"/>
      <point x="456.7170542635659" y="-125.06201550387595"/>
      <point x="476.98062015503876" y="-62.798449612403104"/>
      <point x="500.08527131782944" y="-0.1666666666666714" type="curve"/>
      <point x="932.2441860465117" y="914.4186046511628" type="line"/>
      <point x="896.4147286821706" y="914.4186046511628" type="line"/>
      <point x="498.3062015503876" y="73.03875968992247" type="line"/>
      <point x="538.2403100775193" y="88.03875968992247" type="line"/>
      <point x="132.71317829457365" y="914.0503875968992" type="line"/>
      <point x="11.263565891472865" y="914.4186046511628" type="line"/>
      <point x="481.4612403100775" y="-38.41085271317829" type="line"/>
      <point x="478.8333333333333" y="35.98837209302326" type="line"/>
      <point x="349.8333333333333" y="-338.16279069767444" type="line" smooth="yes"/>
      <point x="322.67054263565893" y="-416.8062015503876"/>
      <point x="289.0426356589147" y="-528.7403100775193"/>
      <point x="216.46511627906978" y="-528.7403100775193" type="curve" smooth="yes"/>
      <point x="170.99612403100775" y="-528.7403100775193"/>
      <point x="114.94186046511628" y="-504.79457364341084"/>
      <point x="123.20542635658914" y="-391.9496124031008" type="curve"/>
      <point x="69.0" y="-391.9496124031008" type="line"/>
      <point x="80.73643410852713" y="-518.577519379845"/>
      <point x="144.84108527131784" y="-552.4186046511628"/>
    </contour>
  </outline>
</glyph>
<glyph name="z" format="2">
  <advance width="803.7131782945737"/>
  <unicode hex="007A"/>
  <note>
z
</note>
  <anchor x="401.35658914728685" y="0.0" name="bottom"/>
  <anchor x="401.35658914728685" y="459.2093023255814" name="center"/>
  <anchor x="401.35658914728685" y="918.4186046511628" name="top"/>
  <outline>
    <contour>
      <point x="21.263565891472865" y="0.0" type="line"/>
      <point x="759.2906976744187" y="0.0" type="line"/>
      <point x="759.2906976744187" y="29.14728682170542" type="line"/>
      <point x="142.97286821705427" y="29.14728682170542" type="line"/>
      <point x="140.7674418604651" y="11.891472868217054" type="line"/>
      <point x="777.7131782945737" y="914.0503875968992" type="line"/>
      <point x="54.36821705426357" y="914.0503875968992" type="line"/>
      <point x="54.36821705426357" y="885.2713178294574" type="line"/>
      <point x="662.422480620155" y="885.2713178294574" type="line"/>
      <point x="658.2093023255813" y="901.5271317829457" type="line"/>
    </contour>
  </outline>
</glyph>
<glyph name="braceleft" format="2">
  <advance width="553.562015503876"/>
  <unicode hex="007B"/>
  <note>
braceleft
</note>
  <outline>
    <contour>
      <point x="514.562015503876" y="-400.1589147286822" type="curve"/>
      <point x="514.562015503876" y="-328.0658914728682" type="line"/>
      <point x="341.18992248062017" y="-335.7984496124031"/>
      <point x="242.98062015503876" y="-197.27131782945736"/>
      <point x="242.98062015503876" y="13.52325581395349" type="curve" smooth="yes"/>
      <point x="242.98062015503876" y="332.57751937984494" type="line" smooth="yes"/>
      <point x="242.98062015503876" y="403.3139534883721"/>
      <point x="184.45348837209303" y="452.94573643410854"/>
      <point x="147.7674418604651" y="479.1046511627907" type="curve"/>
      <point x="184.45348837209303" y="507.26356589147287"/>
      <point x="242.98062015503876" y="555.2635658914729"/>
      <point x="242.98062015503876" y="626.0" type="curve" smooth="yes"/>
      <point x="242.98062015503876" y="1048.3178294573643" type="line" smooth="yes"/>
      <point x="242.98062015503876" y="1262.4263565891472"/>
      <point x="338.61240310077517" y="1397.639534883721"/>
      <point x="514.562015503876" y="1389.5387596899225" type="curve"/>
      <point x="514.562015503876" y="1462.0" type="line"/>
      <point x="298.0426356589147" y="1466.4186046511627"/>
      <point x="178.31007751937983" y="1324.577519379845"/>
      <point x="178.31007751937983" y="1117.5813953488373" type="curve" smooth="yes"/>
      <point x="178.31007751937983" y="626.0" type="line" smooth="yes"/>
      <point x="178.31007751937983" y="557.1046511627907"/>
      <point x="120.15116279069767" y="513.8914728682171"/>
      <point x="66.8953488372093" y="479.8410852713178" type="curve"/>
      <point x="120.8875968992248" y="443.5813953488372"/>
      <point x="178.31007751937983" y="402.2093023255814"/>
      <point x="178.31007751937983" y="332.57751937984494" type="curve" smooth="yes"/>
      <point x="178.31007751937983" y="-55.372093023255815" type="line" smooth="yes"/>
      <point x="178.31007751937983" y="-263.1046511627907"/>
      <point x="296.0426356589147" y="-404.57751937984494"/>
    </contour>
  </outline>
</glyph>
<glyph name="braceright" format="2">
  <advance width="553.9302325581396"/>
  <unicode hex="007D"/>
  <note>
braceright
</note>
  <outline>
    <contour>
      <point x="39.0" y="-400.1589147286822" type="line"/>
      <point x="257.88759689922483" y="-404.57751937984494"/>
      <point x="375.2519379844961" y="-263.1046511627907"/>
      <point x="375.2519379844961" y="-55.372093023255815" type="curve" smooth="yes"/>
      <point x="375.2519379844961" y="332.57751937984494" type="line" smooth="yes"/>
      <point x="375.2519379844961" y="402.2093023255814"/>
      <point x="432.6744186046512" y="443.21317829457365"/>
      <point x="487.0348837209302" y="479.47286821705427" type="curve"/>
      <point x="433.0426356589147" y="513.8914728682171"/>
      <point x="375.2519379844961" y="557.1046511627907"/>
      <point x="375.2519379844961" y="626.0" type="curve" smooth="yes"/>
      <point x="375.2519379844961" y="1117.5813953488373" type="line" smooth="yes"/>
      <point x="375.2519379844961" y="1324.577519379845"/>
      <point x="255.8875968992248" y="1466.4186046511627"/>
      <point x="39.0" y="1462.0" type="curve"/>
      <point x="39.0" y="1389.5387596899225" type="line"/>
      <point x="215.68604651162792" y="1397.639534883721"/>
      <point x="310.9496124031008" y="1262.4263565891472"/>
      <point x="310.9496124031008" y="1048.3178294573643" type="curve" smooth="yes"/>
      <point x="310.9496124031008" y="626.0" type="line" smooth="yes"/>
      <point x="310.9496124031008" y="554.8953488372093"/>
      <point x="369.4767441860465" y="507.26356589147287"/>
      <point x="406.16279069767444" y="479.1046511627907" type="curve"/>
      <point x="369.4767441860465" y="452.94573643410854"/>
      <point x="310.9496124031008" y="403.3139534883721"/>
      <point x="310.9496124031008" y="332.57751937984494" type="curve" smooth="yes"/>
      <point x="310.9496124031008" y="13.52325581395349" type="line" smooth="yes"/>
      <point x="310.9496124031008" y="-197.27131782945736"/>
      <point x="212.74031007751938" y="-335.7984496124031"/>
      <point x="39.0" y="-328.0658914728682" type="curve"/>
    </contour>
  </outline>
</glyph>
<glyph name="asciitilde" format="2">
  <advance width="1099.0658914728683"/>
  <unicode hex="007E"/>
  <note>
asciitilde
</note>
  <outline>
    <contour>
      <point x="718.0813953488372" y="627.5387596899225" type="curve" smooth="yes"/>
      <point x="834.4961240310078" y="627.5387596899225"/>
      <point x="925.062015503876" y="686.1627906976744"/>
      <point x="984.1705426356589" y="765.3837209302326" type="curve"/>
      <point x="942.7596899224807" y="817.1550387596899" type="line"/>
      <point x="890.8178294573644" y="752.1550387596899"/>
      <point x="799.2906976744187" y="699.1007751937984"/>
      <point x="713.1860465116279" y="699.1007751937984" type="curve" smooth="yes"/>
      <point x="652.7131782945736" y="699.1007751937984"/>
      <point x="615.6085271317829" y="727.1007751937984"/>
      <point x="573.2945736434109" y="757.468992248062" type="curve" smooth="yes"/>
      <point x="521.6666666666666" y="792.5736434108527"/>
      <point x="466.7751937984496" y="829.5736434108527"/>
      <point x="372.87984496124034" y="829.5736434108527" type="curve" smooth="yes"/>
      <point x="267.2480620155039" y="829.5736434108527"/>
      <point x="179.20542635658916" y="779.8914728682171"/>
      <point x="114.8953488372093" y="684.8372093023256" type="curve"/>
      <point x="156.0968992248062" y="635.9069767441861" type="line"/>
      <point x="215.77131782945736" y="707.5348837209302"/>
      <point x="297.77131782945736" y="756.0116279069767"/>
      <point x="375.51162790697674" y="756.0116279069767" type="curve" smooth="yes"/>
      <point x="438.35658914728685" y="756.0116279069767"/>
      <point x="479.67054263565893" y="722.9573643410853"/>
      <point x="534.7713178294574" y="687.0116279069767" type="curve" smooth="yes"/>
      <point x="580.453488372093" y="658.0116279069767"/>
      <point x="631.7674418604652" y="627.5387596899225"/>
    </contour>
  </outline>
</glyph>
<glyph name=".notdef" format="2">
  <advance width="1348.0"/>
  <unicode hex="007F"/>
  <note>
.notdef
</note>
  <outline>
    <contour>
      <point x="160.37596899224806" y="-351.42248062015506" type="line"/>
      <point x="1187.624031007752" y="-351.42248062015506" type="line"/>
      <point x="1187.624031007752" y="1411.4728682170542" type="line"/>
      <point x="160.37596899224806" y="1411.4728682170542" type="line"/>
    </contour>
    <contour>
      <point x="299.9922480620155" y="-214.38372093023256" type="line"/>
      <point x="299.9922480620155" y="1274.4341085271317" type="line"/>
      <point x="1048.375968992248" y="1274.4341085271317" type="line"/>
      <point x="1048.375968992248" y="-214.38372093023256" type="line"/>
    </contour>
  </outline>
</glyph>
<glyph name="Euro" format="2">
  <advance width="1438.015503875969"/>
  <unicode hex="0080"/>
  <note>
Euro
</note>
  <outline>
    <contour>
      <point x="856.8720930232558" y="-12.996124031007753" type="curve" smooth="yes"/>
      <point x="1081.7054263565892" y="-12.996124031007753"/>
      <point x="1227.8565891472867" y="102.4186046511628"/>
      <point x="1329.4883720930234" y="322.72868217054264" type="curve"/>
      <point x="1247.2945736434108" y="322.72868217054264" type="line"/>
      <point x="1140.0348837209303" y="88.8953488372093"/>
      <point x="992.5116279069767" y="34.67829457364341"/>
      <point x="863.6085271317829" y="34.67829457364341" type="curve" smooth="yes"/>
      <point x="566.7635658914728" y="34.67829457364341"/>
      <point x="375.2829457364341" y="329.25581395348837"/>
      <point x="375.2829457364341" y="715.0542635658915" type="curve" smooth="yes"/>
      <point x="375.2829457364341" y="1119.2170542635658"/>
      <point x="578.3914728682171" y="1394.1666666666667"/>
      <point x="855.3992248062016" y="1394.1666666666667" type="curve" smooth="yes"/>
      <point x="983.1434108527131" y="1394.1666666666667"/>
      <point x="1152.875968992248" y="1335.2674418604652"/>
      <point x="1246.3488372093022" y="1104.0658914728683" type="curve"/>
      <point x="1325.2790697674418" y="1104.0658914728683" type="line"/>
      <point x="1232.9108527131782" y="1340.4263565891472"/>
      <point x="1065.6007751937984" y="1441.4728682170542"/>
      <point x="857.8720930232558" y="1441.4728682170542" type="curve" smooth="yes"/>
      <point x="510.0348837209302" y="1441.4728682170542"/>
      <point x="268.3062015503876" y="1155.1046511627908"/>
      <point x="268.3062015503876" y="712.7906976744187" type="curve" smooth="yes"/>
      <point x="267.93798449612405" y="249.9496124031008"/>
      <point x="518.6666666666666" y="-12.996124031007753"/>
    </contour>
    <contour>
      <point x="92.8953488372093" y="527.8992248062016" type="line"/>
      <point x="905.2984496124031" y="527.8992248062016" type="line"/>
      <point x="916.453488372093" y="572.3100775193799" type="line"/>
      <point x="104.78682170542635" y="572.3100775193799" type="line"/>
    </contour>
    <contour>
      <point x="141.26356589147287" y="826.5852713178294" type="line"/>
      <point x="953.6666666666666" y="826.5852713178294" type="line"/>
      <point x="964.0852713178294" y="870.6279069767442" type="line"/>
      <point x="152.41860465116278" y="870.6279069767442" type="line"/>
    </contour>
  </outline>
</glyph>
<glyph name="sterling" format="2">
  <advance width="1165.5038759689924"/>
  <unicode hex="00A3"/>
  <note>
sterling
</note>
  <outline>
    <contour>
      <point x="241.14728682170542" y="36.72868217054263" type="curve" smooth="yes"/>
      <point x="410.0891472868217" y="36.72868217054263"/>
      <point x="730.5658914728682" y="199.62403100775194"/>
      <point x="730.5658914728682" y="429.8914728682171" type="curve" smooth="yes"/>
      <point x="730.5658914728682" y="652.953488372093"/>
      <point x="606.6666666666666" y="722.4767441860465"/>
      <point x="442.35271317829455" y="843.1589147286821" type="curve" smooth="yes"/>
      <point x="395.09302325581393" y="879.4186046511628"/>
      <point x="284.5077519379845" y="968.4728682170543"/>
      <point x="284.5077519379845" y="1143.3720930232557" type="curve" smooth="yes"/>
      <point x="284.5077519379845" y="1311.0581395348838"/>
      <point x="405.77131782945736" y="1434.1666666666667"/>
      <point x="571.7286821705426" y="1434.1666666666667" type="curve" smooth="yes"/>
      <point x="749.3100775193799" y="1434.1666666666667"/>
      <point x="908.8410852713179" y="1269.124031007752"/>
      <point x="922.2635658914729" y="1091.9147286821706" type="curve"/>
      <point x="1015.7170542635658" y="1091.9147286821706" type="line"/>
      <point x="983.6627906976744" y="1320.5348837209303"/>
      <point x="809.6666666666666" y="1465.8410852713178"/>
      <point x="579.8333333333334" y="1465.8410852713178" type="curve" smooth="yes"/>
      <point x="333.31007751937983" y="1465.8410852713178"/>
      <point x="162.74031007751938" y="1309.531007751938"/>
      <point x="162.74031007751938" y="1114.6937984496124" type="curve" smooth="yes"/>
      <point x="162.74031007751938" y="898.4263565891473"/>
      <point x="257.58527131782944" y="820.8992248062016"/>
      <point x="400.63565891472865" y="715.0581395348837" type="curve" smooth="yes"/>
      <point x="516.7403100775193" y="629.0581395348837"/>
      <point x="604.1666666666666" y="535.2713178294573"/>
      <point x="604.1666666666666" y="397.20542635658916" type="curve" smooth="yes"/>
      <point x="604.1666666666666" y="251.8294573643411"/>
      <point x="408.0077519379845" y="54.4031007751938"/>
      <point x="146.36821705426357" y="56.24418604651163" type="curve"/>
      <point x="203.62790697674419" y="39.3062015503876"/>
      <point x="200.82558139534885" y="36.72868217054263"/>
    </contour>
    <contour>
      <point x="132.36821705426357" y="0.0" type="line"/>
      <point x="1056.8720930232557" y="0.0" type="line"/>
      <point x="1056.8720930232557" y="56.24418604651163" type="line"/>
      <point x="132.36821705426357" y="56.24418604651163" type="line"/>
    </contour>
    <contour>
      <point x="153.47286821705427" y="646.7984496124031" type="line"/>
      <point x="965.8837209302326" y="646.7984496124031" type="line"/>
      <point x="965.8837209302326" y="675.9457364341085" type="line"/>
      <point x="153.47286821705427" y="675.9457364341085" type="line"/>
    </contour>
  </outline>
</glyph>
<glyph name="currency" format="2">
  <advance width="1149.8062015503876"/>
  <unicode hex="00A4"/>
  <note>
currency
</note>
  <outline>
    <contour>
      <point x="180.51937984496124" y="249.7015503875969" type="line"/>
      <point x="371.6744186046512" y="450.8565891472868" type="line"/>
      <point x="429.09302325581393" y="404.015503875969"/>
      <point x="502.2480620155039" y="375.9108527131783"/>
      <point x="581.4031007751938" y="375.9108527131783" type="curve" smooth="yes"/>
      <point x="656.9263565891473" y="375.9108527131783"/>
      <point x="725.0813953488372" y="401.015503875969"/>
      <point x="780.5" y="441.8565891472868" type="curve"/>
      <point x="964.6550387596899" y="249.7015503875969" type="line"/>
      <point x="1008.9108527131783" y="295.3255813953488" type="line"/>
      <point x="827.1240310077519" y="485.48062015503876" type="line"/>
      <point x="880.9651162790698" y="544.2674418604652"/>
      <point x="913.0697674418604" y="622.0542635658915"/>
      <point x="913.0697674418604" y="707.577519379845" type="curve" smooth="yes"/>
      <point x="913.0697674418604" y="794.7325581395348"/>
      <point x="878.9651162790698" y="873.8875968992248"/>
      <point x="824.1240310077519" y="933.3062015503876" type="curve"/>
      <point x="1009.2790697674418" y="1126.4612403100775" type="line"/>
      <point x="962.6550387596899" y="1171.0852713178294" type="line"/>
      <point x="776.5" y="975.9302325581396" type="line"/>
      <point x="722.0813953488372" y="1016.1395348837209"/>
      <point x="654.9263565891473" y="1039.2441860465117"/>
      <point x="581.4031007751938" y="1039.2441860465117" type="curve" smooth="yes"/>
      <point x="504.2480620155039" y="1039.2441860465117"/>
      <point x="432.09302325581393" y="1013.1395348837209"/>
      <point x="376.3062015503876" y="967.9302325581396" type="curve"/>
      <point x="182.15116279069767" y="1171.0852713178294" type="line"/>
      <point x="135.8953488372093" y="1126.4612403100775" type="line"/>
      <point x="330.0503875968992" y="923.3062015503876" type="line"/>
      <point x="279.8410852713178" y="865.8875968992248"/>
      <point x="249.73643410852713" y="790.7325581395348"/>
      <point x="249.73643410852713" y="707.577519379845" type="curve" smooth="yes"/>
      <point x="249.73643410852713" y="626.0542635658915"/>
      <point x="278.8410852713178" y="552.2674418604652"/>
      <point x="327.0503875968992" y="495.48062015503876" type="curve"/>
      <point x="135.8953488372093" y="295.3255813953488" type="line"/>
    </contour>
    <contour>
      <point x="581.4031007751938" y="437.16279069767444" type="curve" smooth="yes"/>
      <point x="432.1434108527132" y="437.16279069767444"/>
      <point x="310.98837209302326" y="558.3178294573644"/>
      <point x="310.98837209302326" y="707.577519379845" type="curve" smooth="yes"/>
      <point x="310.98837209302326" y="856.8372093023256"/>
      <point x="432.1434108527132" y="977.9922480620155"/>
      <point x="581.4031007751938" y="977.9922480620155" type="curve" smooth="yes"/>
      <point x="730.6627906976744" y="977.9922480620155"/>
      <point x="851.8178294573644" y="856.8372093023256"/>
      <point x="851.8178294573644" y="707.577519379845" type="curve" smooth="yes"/>
      <point x="851.8178294573644" y="558.3178294573644"/>
      <point x="730.6627906976744" y="437.16279069767444"/>
    </contour>
  </outline>
</glyph>
<glyph name="brokenbar" format="2">
  <advance width="502.1937984496124"/>
  <unicode hex="00A6"/>
  <note>
brokenbar
</note>
  <outline>
    <contour>
      <point x="215.26356589147287" y="-300.0" type="line"/>
      <point x="286.93023255813955" y="-300.0" type="line"/>
      <point x="286.93023255813955" y="551.4263565891473" type="line"/>
      <point x="215.26356589147287" y="551.4263565891473" type="line"/>
    </contour>
    <contour>
      <point x="215.26356589147287" y="840.5736434108527" type="line"/>
      <point x="286.93023255813955" y="840.5736434108527" type="line"/>
      <point x="286.93023255813955" y="1664.0" type="line"/>
      <point x="215.26356589147287" y="1664.0" type="line"/>
    </contour>
  </outline>
</glyph>
<glyph name="section" format="2">
  <advance width="1031.9418604651164"/>
  <unicode hex="00A7"/>
  <note>
section
</note>
  <outline>
    <contour>
      <point x="480.1550387596899" y="-393.37209302325584" type="curve" smooth="yes"/>
      <point x="659.9418604651163" y="-393.37209302325584"/>
      <point x="859.3100775193798" y="-302.2674418604651"/>
      <point x="856.3100775193798" y="-112.48062015503876" type="curve" smooth="yes"/>
      <point x="853.3100775193798" y="82.83333333333333"/>
      <point x="638.4147286821706" y="139.72868217054264"/>
      <point x="477.15503875968994" y="193.36046511627907" type="curve"/>
      <point x="472.94573643410854" y="169.68604651162792" type="line"/>
      <point x="691.2054263565892" y="145.05426356589146"/>
      <point x="924.6782945736434" y="297.7906976744186"/>
      <point x="920.6782945736434" y="534.577519379845" type="curve" smooth="yes"/>
      <point x="918.6782945736434" y="689.1007751937984"/>
      <point x="784.9961240310078" y="846.8372093023256"/>
      <point x="562.9961240310078" y="912.6279069767442" type="curve" smooth="yes"/>
      <point x="395.37209302325584" y="962.9418604651163"/>
      <point x="279.62790697674416" y="1038.7325581395348"/>
      <point x="277.62790697674416" y="1156.2674418604652" type="curve" smooth="yes"/>
      <point x="275.62790697674416" y="1295.4767441860465"/>
      <point x="380.47286821705427" y="1408.906976744186"/>
      <point x="548.4186046511628" y="1408.906976744186" type="curve" smooth="yes"/>
      <point x="712.5736434108527" y="1408.906976744186"/>
      <point x="802.6821705426356" y="1302.3720930232557"/>
      <point x="793.577519379845" y="1157.9573643410852" type="curve"/>
      <point x="870.3100775193798" y="1157.9573643410852" type="line"/>
      <point x="870.3100775193798" y="1185.8992248062016" type="line" smooth="yes"/>
      <point x="870.3100775193798" y="1330.3178294573643"/>
      <point x="752.2054263565892" y="1444.1589147286822"/>
      <point x="551.7868217054264" y="1444.1589147286822" type="curve" smooth="yes"/>
      <point x="371.6317829457364" y="1444.1589147286822"/>
      <point x="172.26356589147287" y="1353.0542635658915"/>
      <point x="175.26356589147287" y="1163.2674418604652" type="curve" smooth="yes"/>
      <point x="178.26356589147287" y="967.5852713178294"/>
      <point x="390.9496124031008" y="911.7945736434109"/>
      <point x="563.6240310077519" y="855.5852713178294" type="curve"/>
      <point x="554.2093023255813" y="878.3643410852713" type="line"/>
      <point x="340.0" y="904.6279069767442"/>
      <point x="106.8953488372093" y="751.5232558139535"/>
      <point x="110.8953488372093" y="516.2093023255813" type="curve" smooth="yes"/>
      <point x="112.8953488372093" y="362.05426356589146"/>
      <point x="244.0" y="205.05426356589146"/>
      <point x="470.0503875968992" y="137.7906976744186" type="curve" smooth="yes"/>
      <point x="626.6279069767442" y="90.7906976744186"/>
      <point x="751.9457364341085" y="15.0"/>
      <point x="753.9457364341085" y="-105.48062015503876" type="curve" smooth="yes"/>
      <point x="755.9457364341085" y="-244.3217054263566"/>
      <point x="649.2596899224807" y="-358.12015503875966"/>
      <point x="483.1550387596899" y="-358.12015503875966" type="curve" smooth="yes"/>
      <point x="317.8953488372093" y="-358.12015503875966"/>
      <point x="228.15503875968992" y="-250.84883720930233"/>
      <point x="237.99612403100775" y="-107.17054263565892" type="curve"/>
      <point x="161.26356589147287" y="-107.17054263565892" type="line"/>
      <point x="161.26356589147287" y="-135.48062015503876" type="line" smooth="yes"/>
      <point x="161.26356589147287" y="-280.2674418604651"/>
      <point x="279.0" y="-393.37209302325584"/>
    </contour>
    <contour>
      <point x="520.7868217054263" y="191.15116279069767" type="curve" smooth="yes"/>
      <point x="357.2596899224806" y="191.15116279069767"/>
      <point x="222.25968992248062" y="365.20542635658916"/>
      <point x="219.25968992248062" y="520.2093023255813" type="curve" smooth="yes"/>
      <point x="216.25968992248062" y="674.5813953488372"/>
      <point x="336.8914728682171" y="856.6356589147287"/>
      <point x="510.78682170542635" y="856.6356589147287" type="curve" smooth="yes"/>
      <point x="674.6821705426356" y="856.6356589147287"/>
      <point x="809.3139534883721" y="684.8449612403101"/>
      <point x="812.3139534883721" y="530.2093023255813" type="curve" smooth="yes"/>
      <point x="815.3139534883721" y="376.20542635658916"/>
      <point x="684.3139534883721" y="191.15116279069767"/>
    </contour>
  </outline>
</glyph>
<glyph name="copyright" format="2">
  <advance width="1676.2558139534883"/>
  <unicode hex="00A9"/>
  <note>
copyright
</note>
  <outline>
    <contour>
      <point x="836.6279069767442" y="-12.577519379844961" type="curve" smooth="yes"/>
      <point x="1024.6279069767443" y="-12.577519379844961"/>
      <point x="1208.468992248062" y="60.84496124031008"/>
      <point x="1353.4147286821706" y="201.42248062015503" type="curve" smooth="yes"/>
      <point x="1488.7829457364342" y="333.42248062015506"/>
      <point x="1562.360465116279" y="511.6860465116279"/>
      <point x="1562.360465116279" y="707.2635658914729" type="curve" smooth="yes"/>
      <point x="1562.360465116279" y="901.7906976744187"/>
      <point x="1486.1511627906978" y="1084.7364341085272"/>
      <point x="1353.7829457364342" y="1217.1046511627908" type="curve" smooth="yes"/>
      <point x="1215.9418604651162" y="1354.9457364341085"/>
      <point x="1033.7325581395348" y="1427.1046511627908"/>
      <point x="836.6279069767442" y="1427.1046511627908" type="curve" smooth="yes"/>
      <point x="637.9457364341085" y="1427.1046511627908"/>
      <point x="464.0503875968992" y="1356.6821705426357"/>
      <point x="329.47286821705427" y="1219.1046511627908" type="curve" smooth="yes"/>
      <point x="192.47286821705427" y="1078.7364341085272"/>
      <point x="112.8953488372093" y="900.8410852713179"/>
      <point x="112.8953488372093" y="707.2635658914729" type="curve" smooth="yes"/>
      <point x="112.8953488372093" y="515.0"/>
      <point x="189.36821705426357" y="336.1589147286822"/>
      <point x="327.47286821705427" y="199.7906976744186" type="curve" smooth="yes"/>
      <point x="472.3139534883721" y="56.68604651162791"/>
      <point x="648.4186046511628" y="-12.577519379844961"/>
    </contour>
    <contour>
      <point x="846.1550387596899" y="281.6240310077519" type="curve" smooth="yes"/>
      <point x="1038.3100775193798" y="281.6240310077519"/>
      <point x="1160.3643410852712" y="393.56976744186045"/>
      <point x="1189.577519379845" y="536.6240310077519" type="curve"/>
      <point x="1114.1666666666667" y="536.6240310077519" type="line"/>
      <point x="1073.1124031007753" y="397.0426356589147"/>
      <point x="985.7906976744187" y="319.0387596899225"/>
      <point x="854.7868217054264" y="319.0387596899225" type="curve" smooth="yes"/>
      <point x="681.7286821705426" y="319.0387596899225"/>
      <point x="544.3527131782946" y="453.6782945736434"/>
      <point x="544.3527131782946" y="704.2635658914729" type="curve" smooth="yes"/>
      <point x="544.3527131782946" y="949.3759689922481"/>
      <point x="674.5193798449612" y="1099.1201550387598"/>
      <point x="854.7868217054264" y="1099.1201550387598" type="curve" smooth="yes"/>
      <point x="975.422480620155" y="1099.1201550387598"/>
      <point x="1062.0077519379845" y="1031.9573643410852"/>
      <point x="1103.2713178294573" y="902.7984496124031" type="curve"/>
      <point x="1179.9457364341085" y="902.7984496124031" type="line"/>
      <point x="1150.7325581395348" y="1031.8527131782946"/>
      <point x="1038.6782945736434" y="1134.5348837209303"/>
      <point x="855.7868217054264" y="1134.5348837209303" type="curve" smooth="yes"/>
      <point x="622.9961240310078" y="1134.5348837209303"/>
      <point x="451.99612403100775" y="967.1627906976744"/>
      <point x="451.99612403100775" y="703.6317829457364" type="curve" smooth="yes"/>
      <point x="451.99612403100775" y="448.1007751937984"/>
      <point x="612.2596899224807" y="281.6240310077519"/>
    </contour>
    <contour>
      <point x="836.6279069767442" y="40.72868217054263" type="curve" smooth="yes"/>
      <point x="661.2054263565891" y="40.72868217054263"/>
      <point x="491.41472868217056" y="110.25581395348837"/>
      <point x="362.51937984496124" y="239.41472868217053" type="curve" smooth="yes"/>
      <point x="233.36046511627907" y="368.83720930232556"/>
      <point x="163.83333333333331" y="535.3139534883721"/>
      <point x="163.83333333333331" y="707.2635658914729" type="curve" smooth="yes"/>
      <point x="163.83333333333331" y="883.8449612403101"/>
      <point x="234.36046511627907" y="1050.4263565891472"/>
      <point x="364.88759689922483" y="1182.2170542635658" type="curve" smooth="yes"/>
      <point x="489.41472868217056" y="1308.0077519379845"/>
      <point x="652.1007751937984" y="1376.1666666666667"/>
      <point x="836.6279069767442" y="1376.1666666666667" type="curve" smooth="yes"/>
      <point x="1020.5232558139535" y="1376.1666666666667"/>
      <point x="1187.4728682170542" y="1308.7441860465117"/>
      <point x="1316.3682170542636" y="1180.2170542635658" type="curve" smooth="yes"/>
      <point x="1442.5271317829458" y="1054.4263565891472"/>
      <point x="1513.7906976744187" y="884.2131782945736"/>
      <point x="1513.7906976744187" y="707.2635658914729" type="curve" smooth="yes"/>
      <point x="1513.7906976744187" y="523.5232558139535"/>
      <point x="1441.2635658914728" y="360.20542635658916"/>
      <point x="1319.1046511627908" y="241.41472868217053" type="curve" smooth="yes"/>
      <point x="1191.2093023255813" y="117.25581395348837"/>
      <point x="1019.4186046511628" y="40.72868217054263"/>
    </contour>
  </outline>
</glyph>
<glyph name="ordfeminine" format="2">
  <advance width="758.968992248062"/>
  <unicode hex="00AA"/>
  <note>
ordfeminine
</note>
  <outline>
    <contour>
      <point x="342.6162790697674" y="828.062015503876" type="curve" smooth="yes"/>
      <point x="376.2015503875969" y="828.062015503876"/>
      <point x="538.5193798449612" y="831.4341085271318"/>
      <point x="556.5697674418604" y="1029.0193798449613" type="curve"/>
      <point x="556.5697674418604" y="843.8527131782946" type="line"/>
      <point x="626.0813953488372" y="843.8527131782946" type="line"/>
      <point x="626.0813953488372" y="1436.8410852713178" type="line"/>
      <point x="554.937984496124" y="1436.8410852713178" type="line"/>
      <point x="554.937984496124" y="1248.4108527131782" type="line"/>
      <point x="537.2558139534883" y="1447.7325581395348"/>
      <point x="371.93798449612405" y="1452.4728682170542"/>
      <point x="338.6162790697674" y="1452.4728682170542" type="curve" smooth="yes"/>
      <point x="178.93798449612405" y="1452.4728682170542"/>
      <point x="87.31007751937985" y="1320.5271317829458"/>
      <point x="87.31007751937985" y="1138.2674418604652" type="curve" smooth="yes"/>
      <point x="87.31007751937985" y="940.0077519379845"/>
      <point x="182.30620155038758" y="828.062015503876"/>
    </contour>
    <contour>
      <point x="347.984496124031" y="859.5232558139535" type="curve" smooth="yes"/>
      <point x="203.98062015503876" y="859.5232558139535"/>
      <point x="166.7674418604651" y="980.7364341085271"/>
      <point x="166.7674418604651" y="1140.4767441860465" type="curve" smooth="yes"/>
      <point x="166.7674418604651" y="1284.639534883721"/>
      <point x="190.98062015503876" y="1421.0116279069769"/>
      <point x="344.984496124031" y="1421.0116279069769" type="curve" smooth="yes"/>
      <point x="467.14728682170545" y="1421.0116279069769"/>
      <point x="548.5193798449612" y="1341.1666666666667"/>
      <point x="548.5193798449612" y="1137.8992248062016" type="curve" smooth="yes"/>
      <point x="548.5193798449612" y="957.3682170542636"/>
      <point x="476.14728682170545" y="859.5232558139535"/>
    </contour>
    <contour>
      <point x="110.31007751937985" y="716.8062015503876" type="line"/>
      <point x="635.8682170542636" y="716.8062015503876" type="line"/>
      <point x="635.8682170542636" y="750.4302325581396" type="line"/>
      <point x="110.31007751937985" y="750.4302325581396" type="line"/>
    </contour>
  </outline>
</glyph>
<glyph name="logicalnot" format="2">
  <advance width="952.937984496124"/>
  <unicode hex="00AC"/>
  <note>
logicalnot
</note>
  <outline>
    <contour>
      <point x="1017.2480620155038" y="344.7403100775194" type="line"/>
      <point x="1090.7558139534883" y="344.7403100775194" type="line"/>
      <point x="1090.7558139534883" y="864.3139534883721" type="line"/>
      <point x="91.73643410852713" y="864.3139534883721" type="line"/>
      <point x="91.73643410852713" y="809.2248062015503" type="line"/>
      <point x="1017.2480620155038" y="809.2248062015503" type="line"/>
    </contour>
  </outline>
</glyph>
<glyph name="registered" format="2">
  <advance width="1676.2558139534883"/>
  <unicode hex="00AE"/>
  <note>
registered
</note>
  <outline>
    <contour>
      <point x="836.6279069767442" y="-12.577519379844961" type="curve" smooth="yes"/>
      <point x="1024.6279069767443" y="-12.577519379844961"/>
      <point x="1208.468992248062" y="60.84496124031008"/>
      <point x="1353.4147286821706" y="201.42248062015503" type="curve" smooth="yes"/>
      <point x="1488.7829457364342" y="333.42248062015506"/>
      <point x="1562.360465116279" y="511.6860465116279"/>
      <point x="1562.360465116279" y="707.2635658914729" type="curve" smooth="yes"/>
      <point x="1562.360465116279" y="901.7906976744187"/>
      <point x="1486.1511627906978" y="1084.7364341085272"/>
      <point x="1353.7829457364342" y="1217.1046511627908" type="curve" smooth="yes"/>
      <point x="1215.9418604651162" y="1354.9457364341085"/>
      <point x="1033.7325581395348" y="1427.1046511627908"/>
      <point x="836.6279069767442" y="1427.1046511627908" type="curve" smooth="yes"/>
      <point x="637.9457364341085" y="1427.1046511627908"/>
      <point x="464.0503875968992" y="1356.6821705426357"/>
      <point x="329.47286821705427" y="1219.1046511627908" type="curve" smooth="yes"/>
      <point x="192.47286821705427" y="1078.7364341085272"/>
      <point x="112.8953488372093" y="900.8410852713179"/>
      <point x="112.8953488372093" y="707.2635658914729" type="curve" smooth="yes"/>
      <point x="112.8953488372093" y="515.0"/>
      <point x="189.36821705426357" y="336.1589147286822"/>
      <point x="327.47286821705427" y="199.7906976744186" type="curve" smooth="yes"/>
      <point x="472.3139534883721" y="56.68604651162791"/>
      <point x="648.4186046511628" y="-12.577519379844961"/>
    </contour>
    <contour>
      <point x="836.6279069767442" y="40.72868217054263" type="curve" smooth="yes"/>
      <point x="661.2054263565891" y="40.72868217054263"/>
      <point x="491.41472868217056" y="110.25581395348837"/>
      <point x="362.51937984496124" y="239.41472868217053" type="curve" smooth="yes"/>
      <point x="233.36046511627907" y="368.83720930232556"/>
      <point x="163.83333333333331" y="535.3139534883721"/>
      <point x="163.83333333333331" y="707.2635658914729" type="curve" smooth="yes"/>
      <point x="163.83333333333331" y="883.8449612403101"/>
      <point x="234.36046511627907" y="1050.4263565891472"/>
      <point x="364.88759689922483" y="1182.2170542635658" type="curve" smooth="yes"/>
      <point x="489.41472868217056" y="1308.0077519379845"/>
      <point x="651.1007751937984" y="1376.1666666666667"/>
      <point x="836.6279069767442" y="1376.1666666666667" type="curve" smooth="yes"/>
      <point x="1020.5232558139535" y="1376.1666666666667"/>
      <point x="1187.4728682170542" y="1308.7441860465117"/>
      <point x="1316.3682170542636" y="1180.2170542635658" type="curve" smooth="yes"/>
      <point x="1442.5271317829458" y="1054.4263565891472"/>
      <point x="1513.7906976744187" y="884.2131782945736"/>
      <point x="1513.7906976744187" y="707.2635658914729" type="curve" smooth="yes"/>
      <point x="1513.7906976744187" y="526.5232558139535"/>
      <point x="1445.2635658914728" y="364.20542635658916"/>
      <point x="1319.1046511627908" y="241.41472868217053" type="curve" smooth="yes"/>
      <point x="1192.2093023255813" y="118.25581395348837"/>
      <point x="1022.4186046511628" y="40.72868217054263"/>
    </contour>
    <contour>
      <point x="591.5232558139535" y="319.5736434108527" type="line"/>
      <point x="645.6705426356589" y="319.5736434108527" type="line"/>
      <point x="645.6705426356589" y="670.6899224806201" type="line"/>
      <point x="875.468992248062" y="670.6899224806201" type="line"/>
      <point x="1071.1046511627908" y="319.5736434108527" type="line"/>
      <point x="1127.9341085271317" y="319.5736434108527" type="line"/>
      <point x="923.2480620155038" y="680.4767441860465" type="line"/>
      <point x="1055.406976744186" y="702.1046511627907"/>
      <point x="1114.4651162790697" y="770.422480620155"/>
      <point x="1114.4651162790697" y="892.5852713178294" type="curve" smooth="yes"/>
      <point x="1114.4651162790697" y="1047.1627906976744"/>
      <point x="1033.4147286821706" y="1119.6899224806202"/>
      <point x="803.6240310077519" y="1119.6899224806202" type="curve" smooth="yes"/>
      <point x="591.5232558139535" y="1119.6899224806202" type="line"/>
    </contour>
    <contour>
      <point x="645.6705426356589" y="712.4728682170543" type="line"/>
      <point x="645.6705426356589" y="1076.0658914728683" type="line"/>
      <point x="840.468992248062" y="1076.0658914728683" type="line" smooth="yes"/>
      <point x="998.0503875968992" y="1075.6976744186047"/>
      <point x="1060.7906976744187" y="1020.3798449612403"/>
      <point x="1060.7906976744187" y="890.4806201550388" type="curve" smooth="yes"/>
      <point x="1060.7906976744187" y="766.422480620155"/>
      <point x="999.0503875968992" y="712.4728682170543"/>
      <point x="844.8372093023256" y="712.4728682170543" type="curve" smooth="yes"/>
    </contour>
  </outline>
</glyph>
<glyph name="degree" format="2">
  <advance width="648.8798449612403"/>
  <unicode hex="00B0"/>
  <note>
degree
</note>
  <outline>
    <contour>
      <point x="322.6240310077519" y="1030.437984496124" type="curve" smooth="yes"/>
      <point x="426.98837209302326" y="1030.437984496124"/>
      <point x="521.6162790697674" y="1119.6976744186047"/>
      <point x="521.6162790697674" y="1228.7984496124031" type="curve" smooth="yes"/>
      <point x="521.6162790697674" y="1337.531007751938"/>
      <point x="426.98837209302326" y="1426.7906976744187"/>
      <point x="324.25581395348837" y="1426.7906976744187" type="curve" smooth="yes"/>
      <point x="219.52325581395348" y="1426.7906976744187"/>
      <point x="126.8953488372093" y="1339.1627906976744"/>
      <point x="126.8953488372093" y="1228.7984496124031" type="curve" smooth="yes"/>
      <point x="126.8953488372093" y="1118.0658914728683"/>
      <point x="218.89147286821705" y="1030.437984496124"/>
    </contour>
    <contour>
      <point x="324.25581395348837" y="1051.2751937984497" type="curve" smooth="yes"/>
      <point x="231.31007751937983" y="1051.2751937984497"/>
      <point x="157.10077519379846" y="1130.8527131782946"/>
      <point x="157.10077519379846" y="1228.7984496124031" type="curve" smooth="yes"/>
      <point x="157.10077519379846" y="1325.7441860465117"/>
      <point x="231.31007751937983" y="1404.953488372093"/>
      <point x="324.25581395348837" y="1404.953488372093" type="curve" smooth="yes"/>
      <point x="417.2015503875969" y="1404.953488372093"/>
      <point x="490.77906976744185" y="1325.7441860465117"/>
      <point x="490.77906976744185" y="1228.7984496124031" type="curve" smooth="yes"/>
      <point x="490.77906976744185" y="1130.8527131782946"/>
      <point x="417.2015503875969" y="1051.2751937984497"/>
    </contour>
  </outline>
</glyph>
<glyph name="plusminus" format="2">
  <advance width="952.937984496124"/>
  <unicode hex="00B1"/>
  <note>
plusminus
</note>
  <outline>
    <contour>
      <point x="408.31007751937983" y="397.63565891472865" type="line"/>
      <point x="454.8217054263566" y="397.63565891472865" type="line"/>
      <point x="454.8217054263566" y="636.2751937984497" type="line"/>
      <point x="741.6589147286821" y="636.2751937984497" type="line"/>
      <point x="741.6589147286821" y="699.3565891472869" type="line"/>
      <point x="454.8217054263566" y="699.3565891472869" type="line"/>
      <point x="454.8217054263566" y="937.6279069767442" type="line"/>
      <point x="408.31007751937983" y="937.6279069767442" type="line"/>
      <point x="408.31007751937983" y="699.3565891472869" type="line"/>
      <point x="121.84108527131784" y="699.3565891472869" type="line"/>
      <point x="121.84108527131784" y="636.2751937984497" type="line"/>
      <point x="408.31007751937983" y="636.2751937984497" type="line"/>
    </contour>
    <contour>
      <point x="120.84108527131784" y="223.2325581395349" type="line"/>
      <point x="740.2906976744187" y="223.2325581395349" type="line"/>
      <point x="740.2906976744187" y="285.94573643410854" type="line"/>
      <point x="120.84108527131784" y="285.94573643410854" type="line"/>
    </contour>
  </outline>
</glyph>
<glyph name="paragraph" format="2">
  <advance width="1070.5503875968993"/>
  <unicode hex="00B6"/>
  <note>
paragraph
</note>
  <outline>
    <contour>
      <point x="457.26356589147287" y="0.0" type="line"/>
      <point x="575.6666666666666" y="0.0" type="line"/>
      <point x="575.6666666666666" y="1411.5387596899225" type="line"/>
      <point x="725.8837209302326" y="1411.5387596899225" type="line"/>
      <point x="725.8837209302326" y="0.0" type="line"/>
      <point x="843.9186046511628" y="0.0" type="line"/>
      <point x="843.9186046511628" y="1411.5387596899225" type="line"/>
      <point x="939.9186046511628" y="1411.5387596899225" type="line"/>
      <point x="939.9186046511628" y="1445.1046511627908" type="line"/>
      <point x="489.25581395348837" y="1445.1046511627908" type="line" smooth="yes"/>
      <point x="250.62790697674419" y="1445.1046511627908"/>
      <point x="91.26356589147287" y="1300.6356589147288"/>
      <point x="91.26356589147287" y="1088.9031007751937" type="curve" smooth="yes"/>
      <point x="91.26356589147287" y="887.7480620155038"/>
      <point x="234.94573643410854" y="743.437984496124"/>
      <point x="457.26356589147287" y="733.437984496124" type="curve"/>
    </contour>
  </outline>
</glyph>
<glyph name="ordmasculine" format="2">
  <advance width="748.546511627907"/>
  <unicode hex="00BA"/>
  <note>
ordmasculine
</note>
  <outline>
    <contour>
      <point x="373.0891472868217" y="840.1162790697674" type="curve" smooth="yes"/>
      <point x="522.5542635658915" y="840.1162790697674"/>
      <point x="676.077519379845" y="950.3759689922481"/>
      <point x="676.077519379845" y="1139.2674418604652" type="curve" smooth="yes"/>
      <point x="676.077519379845" y="1326.7906976744187"/>
      <point x="524.5542635658915" y="1442.0503875968993"/>
      <point x="373.0891472868217" y="1442.0503875968993" type="curve" smooth="yes"/>
      <point x="223.25581395348837" y="1442.0503875968993"/>
      <point x="71.73255813953489" y="1328.7906976744187"/>
      <point x="71.73255813953489" y="1139.2674418604652" type="curve" smooth="yes"/>
      <point x="71.73255813953489" y="950.3759689922481"/>
      <point x="223.25581395348837" y="840.1162790697674"/>
    </contour>
    <contour>
      <point x="373.72093023255815" y="870.2093023255813" type="curve" smooth="yes"/>
      <point x="254.66666666666666" y="870.2093023255813"/>
      <point x="150.82170542635657" y="974.3682170542636"/>
      <point x="150.82170542635657" y="1139.2674418604652" type="curve" smooth="yes"/>
      <point x="150.82170542635657" y="1304.1666666666667"/>
      <point x="255.66666666666666" y="1411.3255813953488"/>
      <point x="373.72093023255815" y="1411.3255813953488" type="curve" smooth="yes"/>
      <point x="491.7751937984496" y="1411.3255813953488"/>
      <point x="596.6201550387597" y="1304.1666666666667"/>
      <point x="596.6201550387597" y="1139.2674418604652" type="curve" smooth="yes"/>
      <point x="596.6201550387597" y="974.3682170542636"/>
      <point x="492.40697674418607" y="870.2093023255813"/>
    </contour>
    <contour>
      <point x="112.41472868217053" y="716.8062015503876" type="line"/>
      <point x="635.7635658914728" y="716.8062015503876" type="line"/>
      <point x="635.7635658914728" y="750.4302325581396" type="line"/>
      <point x="112.41472868217053" y="750.4302325581396" type="line"/>
    </contour>
  </outline>
</glyph>
<glyph name="AE" format="2">
  <advance width="1662.9612403100775"/>
  <unicode hex="00C6"/>
  <note>
AE
</note>
  <anchor x="864.5542635658915" y="-8.953488372093023" name="bottom"/>
  <anchor x="864.5542635658915" y="1450.0" name="top"/>
  <outline>
    <contour>
      <point x="33.8953488372093" y="0.0" type="line"/>
      <point x="94.93410852713178" y="0.0" type="line"/>
      <point x="956.9263565891473" y="1441.1046511627908" type="line"/>
      <point x="896.2558139534883" y="1441.1046511627908" type="line"/>
    </contour>
    <contour>
      <point x="355.30232558139534" y="452.7403100775194" type="line"/>
      <point x="990.5" y="452.7403100775194" type="line"/>
      <point x="990.5" y="498.1511627906977" type="line"/>
      <point x="355.30232558139534" y="498.1511627906977" type="line"/>
    </contour>
    <contour>
      <point x="918.1007751937984" y="0.0" type="line"/>
      <point x="1589.2248062015503" y="0.0" type="line"/>
      <point x="1589.2248062015503" y="45.04263565891473" type="line"/>
      <point x="950.9418604651163" y="45.04263565891473" type="line"/>
      <point x="1025.968992248062" y="10.0" type="line"/>
      <point x="1025.968992248062" y="753.8372093023256" type="line"/>
      <point x="969.2480620155038" y="706.1627906976744" type="line"/>
      <point x="1589.2248062015503" y="706.1627906976744" type="line"/>
      <point x="1589.2248062015503" y="751.2054263565891" type="line"/>
      <point x="974.7713178294573" y="751.2054263565891" type="line"/>
      <point x="1025.968992248062" y="712.4263565891473" type="line"/>
      <point x="1025.968992248062" y="1440.0" type="line"/>
      <point x="966.7751937984497" y="1396.062015503876" type="line"/>
      <point x="1589.2248062015503" y="1396.062015503876" type="line"/>
      <point x="1589.2248062015503" y="1441.1046511627908" type="line"/>
      <point x="918.1007751937984" y="1441.1046511627908" type="line"/>
    </contour>
  </outline>
</glyph>
<glyph name="Thorn" format="2">
  <advance width="1118.9186046511627"/>
  <unicode hex="00DE"/>
  <note>
Thorn
</note>
  <anchor x="573.1434108527131" y="11.046511627906977" name="bottom"/>
  <anchor x="573.1434108527131" y="1430.0" name="top"/>
  <outline>
    <contour>
      <point x="274.2015503875969" y="299.7403100775194" type="line"/>
      <point x="610.6124031007752" y="299.7403100775194" type="line" smooth="yes"/>
      <point x="728.2945736434108" y="299.7403100775194"/>
      <point x="844.7635658914728" y="345.9496124031008"/>
      <point x="922.6589147286821" y="419.84496124031006" type="curve" smooth="yes"/>
      <point x="1017.0232558139535" y="507.3682170542636"/>
      <point x="1060.65503875969" y="611.6860465116279"/>
      <point x="1060.65503875969" y="730.0" type="curve" smooth="yes"/>
      <point x="1060.65503875969" y="852.3139534883721"/>
      <point x="1013.0232558139535" y="951.8953488372093"/>
      <point x="930.7635658914728" y="1032.4186046511627" type="curve" smooth="yes"/>
      <point x="848.8682170542636" y="1114.3139534883721"/>
      <point x="723.6627906976744" y="1166.2596899224807"/>
      <point x="594.6124031007752" y="1166.2596899224807" type="curve" smooth="yes"/>
      <point x="274.2015503875969" y="1166.2596899224807" type="line"/>
      <point x="274.2015503875969" y="1140.4263565891472" type="line"/>
      <point x="588.3527131782946" y="1140.4263565891472" type="line" smooth="yes"/>
      <point x="783.7790697674418" y="1140.4263565891472"/>
      <point x="949.9418604651163" y="967.8953488372093"/>
      <point x="949.9418604651163" y="729.0" type="curve" smooth="yes"/>
      <point x="949.9418604651163" y="483.47286821705427"/>
      <point x="774.7790697674418" y="325.5736434108527"/>
      <point x="588.3527131782946" y="325.5736434108527" type="curve" smooth="yes"/>
      <point x="274.2015503875969" y="325.5736434108527" type="line"/>
    </contour>
    <contour>
      <point x="173.26356589147287" y="0.0" type="line"/>
      <point x="305.65891472868213" y="0.0" type="line"/>
      <point x="305.65891472868213" y="1431.1046511627908" type="line"/>
      <point x="173.26356589147287" y="1431.1046511627908" type="line"/>
    </contour>
  </outline>
</glyph>
<glyph name="germandbls" format="2">
  <advance width="1025.0697674418604"/>
  <unicode hex="00DF"/>
  <note>
germandbls
</note>
  <anchor x="522.0348837209302" y="14.360465116279073" name="bottom"/>
  <anchor x="522.0348837209302" y="916.577519379845" name="top"/>
  <outline>
    <contour>
      <point x="667.9728682170543" y="-17.104651162790695" type="curve" smooth="yes"/>
      <point x="876.3914728682171" y="-17.104651162790695"/>
      <point x="997.8062015503876" y="87.94961240310077"/>
      <point x="997.8062015503876" y="267.0503875968992" type="curve" smooth="yes"/>
      <point x="997.8062015503876" y="426.6240310077519"/>
      <point x="896.0697674418604" y="493.8914728682171"/>
      <point x="712.0697674418604" y="535.7325581395348" type="curve" smooth="yes"/>
      <point x="569.6937984496124" y="567.8914728682171"/>
      <point x="477.06201550387595" y="604.6821705426356"/>
      <point x="477.06201550387595" y="732.4767441860465" type="curve" smooth="yes"/>
      <point x="477.06201550387595" y="829.8992248062016"/>
      <point x="537.6434108527131" y="871.9031007751938"/>
      <point x="616.7984496124031" y="922.953488372093" type="curve" smooth="yes"/>
      <point x="711.7480620155038" y="985.4806201550388"/>
      <point x="824.0658914728682" y="1047.953488372093"/>
      <point x="824.0658914728682" y="1222.1124031007753" type="curve" smooth="yes"/>
      <point x="824.0658914728682" y="1409.6317829457364"/>
      <point x="706.9147286821706" y="1532.5736434108528"/>
      <point x="482.34883720930236" y="1532.5736434108528" type="curve" smooth="yes"/>
      <point x="309.98837209302326" y="1532.5736434108528"/>
      <point x="167.31395348837208" y="1416.108527131783"/>
      <point x="167.31395348837208" y="1148.7403100775193" type="curve" smooth="yes"/>
      <point x="167.31395348837208" y="0.0" type="line"/>
      <point x="282.3953488372093" y="0.0" type="line"/>
      <point x="282.3953488372093" y="1129.9612403100775" type="line" smooth="yes"/>
      <point x="282.3953488372093" y="1381.0697674418604"/>
      <point x="368.35271317829455" y="1500.0581395348838"/>
      <point x="490.08527131782944" y="1500.0581395348838" type="curve" smooth="yes"/>
      <point x="603.4573643410853" y="1500.0581395348838"/>
      <point x="716.6627906976744" y="1402.0503875968993"/>
      <point x="716.6627906976744" y="1204.6899224806202" type="curve" smooth="yes"/>
      <point x="716.6627906976744" y="1052.6356589147288"/>
      <point x="649.5542635658915" y="981.4806201550388"/>
      <point x="571.3953488372093" y="933.953488372093" type="curve" smooth="yes"/>
      <point x="480.8139534883721" y="877.8992248062016"/>
      <point x="376.5503875968992" y="846.5813953488372"/>
      <point x="376.5503875968992" y="700.6395348837209" type="curve" smooth="yes"/>
      <point x="376.5503875968992" y="554.1085271317829"/>
      <point x="440.07751937984494" y="483.79457364341084"/>
      <point x="628.3953488372093" y="420.68992248062017" type="curve" smooth="yes"/>
      <point x="767.7751937984497" y="372.00387596899225"/>
      <point x="887.6666666666666" y="367.2596899224806"/>
      <point x="887.6666666666666" y="240.52325581395348" type="curve" smooth="yes"/>
      <point x="887.6666666666666" y="96.51937984496124"/>
      <point x="810.5581395348837" y="17.62015503875969"/>
      <point x="668.4457364341085" y="17.62015503875969" type="curve" smooth="yes"/>
      <point x="552.5968992248062" y="17.62015503875969"/>
      <point x="468.8062015503876" y="77.72868217054264"/>
      <point x="393.12790697674416" y="156.30620155038758" type="curve"/>
      <point x="390.5503875968992" y="67.47286821705427" type="line"/>
      <point x="449.6007751937984" y="21.8953488372093"/>
      <point x="551.8100775193799" y="-17.104651162790695"/>
    </contour>
    <contour>
      <point x="24.0" y="884.5348837209302" type="line"/>
      <point x="224.13953488372093" y="884.5348837209302" type="line"/>
      <point x="224.13953488372093" y="914.4186046511628" type="line"/>
      <point x="24.0" y="914.4186046511628" type="line"/>
    </contour>
  </outline>
</glyph>
